<svg xmlns="http://www.w3.org/2000/svg" xmlns:xlink="http://www.w3.org/1999/xlink" width="480" height="178pt" version="1.1" viewBox="0 0 360 178"><g id="surface16"><path style="fill:none;stroke-width:1;stroke-linecap:square;stroke-linejoin:miter;stroke:#fff;stroke-opacity:1;stroke-miterlimit:3.25" d="M 254.640625 176.070312 L 81.839844 20.550781" transform="matrix(1,0,0,1,-66,-5)"/><path style="fill:none;stroke-width:1;stroke-linecap:square;stroke-linejoin:miter;stroke:#fff;stroke-opacity:1;stroke-miterlimit:3.25" d="M 263.28125 167.433594 L 90.480469 29.191406" transform="matrix(1,0,0,1,-66,-5)"/><path style="fill:none;stroke-width:1;stroke-linecap:square;stroke-linejoin:miter;stroke:#fff;stroke-opacity:1;stroke-miterlimit:3.25" d="M 271.921875 158.792969 L 99.121094 37.832031" transform="matrix(1,0,0,1,-66,-5)"/><path style="fill:none;stroke-width:1;stroke-linecap:square;stroke-linejoin:miter;stroke:#fff;stroke-opacity:1;stroke-miterlimit:3.25" d="M 280.558594 150.152344 L 107.761719 46.472656" transform="matrix(1,0,0,1,-66,-5)"/><path style="fill:none;stroke-width:1;stroke-linecap:square;stroke-linejoin:miter;stroke:#fff;stroke-opacity:1;stroke-miterlimit:3.25" d="M 289.199219 141.511719 L 116.398438 55.113281" transform="matrix(1,0,0,1,-66,-5)"/><path style="fill:none;stroke-width:1;stroke-linecap:square;stroke-linejoin:miter;stroke:#fff;stroke-opacity:1;stroke-miterlimit:3.25" d="M 297.839844 132.871094 L 125.039062 63.753906" transform="matrix(1,0,0,1,-66,-5)"/><path style="fill:none;stroke-width:1;stroke-linecap:square;stroke-linejoin:miter;stroke:#fff;stroke-opacity:1;stroke-miterlimit:3.25" d="M 306.480469 124.230469 L 133.679688 72.390625" transform="matrix(1,0,0,1,-66,-5)"/><path style="fill:none;stroke-width:1;stroke-linecap:square;stroke-linejoin:miter;stroke:#fff;stroke-opacity:1;stroke-miterlimit:3.25" d="M 315.121094 115.59375 L 142.320312 81.03125" transform="matrix(1,0,0,1,-66,-5)"/><path style="fill:none;stroke-width:1;stroke-linecap:square;stroke-linejoin:miter;stroke:#fff;stroke-opacity:1;stroke-miterlimit:3.25" d="M 323.761719 106.953125 L 150.960938 89.671875" transform="matrix(1,0,0,1,-66,-5)"/><path style="fill:none;stroke-width:1;stroke-linecap:square;stroke-linejoin:miter;stroke:#fff;stroke-opacity:1;stroke-miterlimit:3.25" d="M 332.398438 98.3125 L 159.601562 98.3125" transform="matrix(1,0,0,1,-66,-5)"/><path style="fill:none;stroke-width:1;stroke-linecap:square;stroke-linejoin:miter;stroke:#fff;stroke-opacity:1;stroke-miterlimit:3.25" d="M 341.039062 89.671875 L 168.238281 106.953125" transform="matrix(1,0,0,1,-66,-5)"/><path style="fill:none;stroke-width:1;stroke-linecap:square;stroke-linejoin:miter;stroke:#fff;stroke-opacity:1;stroke-miterlimit:3.25" d="M 349.679688 81.03125 L 176.878906 115.59375" transform="matrix(1,0,0,1,-66,-5)"/><path style="fill:none;stroke-width:1;stroke-linecap:square;stroke-linejoin:miter;stroke:#fff;stroke-opacity:1;stroke-miterlimit:3.25" d="M 358.320312 72.390625 L 185.519531 124.230469" transform="matrix(1,0,0,1,-66,-5)"/><path style="fill:none;stroke-width:1;stroke-linecap:square;stroke-linejoin:miter;stroke:#fff;stroke-opacity:1;stroke-miterlimit:3.25" d="M 366.960938 63.753906 L 194.160156 132.871094" transform="matrix(1,0,0,1,-66,-5)"/><path style="fill:none;stroke-width:1;stroke-linecap:square;stroke-linejoin:miter;stroke:#fff;stroke-opacity:1;stroke-miterlimit:3.25" d="M 375.601562 55.113281 L 202.800781 141.511719" transform="matrix(1,0,0,1,-66,-5)"/><path style="fill:none;stroke-width:1;stroke-linecap:square;stroke-linejoin:miter;stroke:#fff;stroke-opacity:1;stroke-miterlimit:3.25" d="M 384.238281 46.472656 L 211.441406 150.152344" transform="matrix(1,0,0,1,-66,-5)"/><path style="fill:none;stroke-width:1;stroke-linecap:square;stroke-linejoin:miter;stroke:#fff;stroke-opacity:1;stroke-miterlimit:3.25" d="M 392.878906 37.832031 L 220.078125 158.792969" transform="matrix(1,0,0,1,-66,-5)"/><path style="fill:none;stroke-width:1;stroke-linecap:square;stroke-linejoin:miter;stroke:#fff;stroke-opacity:1;stroke-miterlimit:3.25" d="M 401.519531 29.191406 L 228.71875 167.433594" transform="matrix(1,0,0,1,-66,-5)"/><path style="fill:none;stroke-width:1;stroke-linecap:square;stroke-linejoin:miter;stroke:#fff;stroke-opacity:1;stroke-miterlimit:3.25" d="M 410.160156 20.550781 L 237.359375 176.070312" transform="matrix(1,0,0,1,-66,-5)"/><path style="fill:none;stroke-width:1.6;stroke-linecap:square;stroke-linejoin:miter;stroke:#5e81b5;stroke-opacity:1;stroke-miterlimit:3.25" d="M 73.199219 11.910156 L 73.304688 12.019531 L 73.410156 12.125 L 73.625 12.335938 L 74.046875 12.757812 L 74.894531 13.597656 L 76.59375 15.269531 L 79.984375 18.5625 L 87.339844 25.472656 L 94.203125 31.640625 L 100.9375 37.421875 L 108.238281 43.398438 L 115.054688 48.699219 L 122.441406 54.136719 L 129.691406 59.171875 L 136.457031 63.589844 L 143.792969 68.085938 L 150.636719 72 L 157.351562 75.574219 L 164.632812 79.15625 L 171.429688 82.222656 L 178.796875 85.242188 L 186.027344 87.90625 L 192.773438 90.113281 L 200.085938 92.210938 L 200.195312 92.242188 L 200.300781 92.269531 L 200.515625 92.324219 L 200.941406 92.4375 L 201.792969 92.65625 L 203.5 93.085938 L 206.914062 93.890625 L 207.03125 93.917969 L 207.144531 93.945312 L 207.378906 93.996094 L 207.839844 94.097656 L 208.765625 94.300781 L 210.613281 94.6875 L 210.730469 94.710938 L 210.84375 94.734375 L 211.078125 94.78125 L 211.539062 94.875 L 212.464844 95.058594 L 214.3125 95.40625 L 214.425781 95.425781 L 214.539062 95.449219 L 214.765625 95.488281 L 215.222656 95.570312 L 216.128906 95.730469 L 217.945312 96.035156 L 218.058594 96.054688 L 218.171875 96.070312 L 218.398438 96.109375 L 218.851562 96.179688 L 219.761719 96.320312 L 221.578125 96.585938 L 221.789062 96.617188 L 222 96.644531 L 222.425781 96.703125 L 223.269531 96.816406 L 224.964844 97.03125 L 225.070312 97.042969 L 225.175781 97.058594 L 225.386719 97.082031 L 225.8125 97.132812 L 226.660156 97.230469 L 228.351562 97.410156 L 228.46875 97.421875 L 228.582031 97.433594 L 228.8125 97.457031 L 229.269531 97.503906 L 230.191406 97.589844 L 230.304688 97.597656 L 230.417969 97.609375 L 230.648438 97.628906 L 231.109375 97.671875 L 232.027344 97.746094 L 232.140625 97.757812 L 232.257812 97.765625 L 232.484375 97.785156 L 232.945312 97.820312 L 233.863281 97.886719 L 235.699219 98.003906 L 235.808594 98.011719 L 235.914062 98.019531 L 236.558594 98.054688 L 237.414062 98.097656 L 237.523438 98.105469 L 237.628906 98.109375 L 237.84375 98.121094 L 238.273438 98.140625 L 239.128906 98.175781 L 239.238281 98.179688 L 239.34375 98.183594 L 239.988281 98.207031 L 240.09375 98.210938 L 240.203125 98.214844 L 240.414062 98.222656 L 240.84375 98.234375 L 240.953125 98.238281 L 241.058594 98.242188 L 241.273438 98.246094 L 241.703125 98.257812 L 241.808594 98.261719 L 241.917969 98.265625 L 242.128906 98.269531 L 242.558594 98.277344 L 242.664062 98.28125 L 242.769531 98.28125 L 242.980469 98.285156 L 243.085938 98.289062 L 243.191406 98.289062 L 243.398438 98.292969 L 243.503906 98.292969 L 243.609375 98.296875 L 243.820312 98.296875 L 243.925781 98.300781 L 244.03125 98.300781 L 244.242188 98.304688 L 244.554688 98.304688 L 244.660156 98.308594 L 245.292969 98.308594 L 245.394531 98.3125 L 246.65625 98.3125 L 246.761719 98.308594 L 247.289062 98.308594 L 247.390625 98.304688 L 247.707031 98.304688 L 247.8125 98.300781 L 248.128906 98.300781 L 248.234375 98.296875 L 248.441406 98.292969 L 248.652344 98.292969 L 249.285156 98.28125 L 249.398438 98.277344 L 249.511719 98.277344 L 249.738281 98.273438 L 250.195312 98.261719 L 250.421875 98.253906 L 250.652344 98.25 L 251.109375 98.238281 L 251.5625 98.222656 L 252.019531 98.207031 L 252.929688 98.171875 L 253.046875 98.167969 L 253.160156 98.164062 L 253.386719 98.152344 L 253.84375 98.132812 L 254.753906 98.089844 L 254.871094 98.085938 L 254.984375 98.078125 L 255.210938 98.066406 L 255.667969 98.042969 L 256.578125 97.988281 L 256.6875 97.980469 L 256.792969 97.976562 L 257.003906 97.960938 L 257.429688 97.933594 L 258.28125 97.875 L 258.492188 97.859375 L 258.707031 97.84375 L 259.132812 97.8125 L 259.984375 97.746094 L 260.195312 97.730469 L 260.410156 97.710938 L 260.835938 97.675781 L 261.683594 97.601562 L 263.386719 97.4375 L 263.503906 97.425781 L 263.617188 97.414062 L 264.308594 97.34375 L 265.230469 97.242188 L 267.078125 97.027344 L 267.191406 97.011719 L 267.308594 97 L 267.539062 96.96875 L 268.921875 96.792969 L 270.765625 96.539062 L 270.878906 96.519531 L 271.21875 96.472656 L 271.671875 96.40625 L 272.578125 96.269531 L 274.386719 95.980469 L 278.007812 95.347656 L 278.21875 95.308594 L 278.433594 95.269531 L 278.855469 95.1875 L 279.699219 95.027344 L 281.386719 94.6875 L 284.765625 93.964844 L 284.878906 93.9375 L 284.996094 93.910156 L 285.222656 93.859375 L 285.683594 93.753906 L 286.597656 93.542969 L 288.429688 93.101562 L 292.09375 92.164062 L 298.933594 90.203125 L 305.636719 88.019531 L 312.914062 85.355469 L 319.703125 82.59375 L 327.0625 79.300781 L 333.933594 75.9375 L 340.667969 72.378906 L 347.976562 68.222656 L 354.796875 64.0625 L 362.1875 59.25 L 369.445312 54.21875 L 376.210938 49.25 L 383.550781 43.566406 L 390.402344 37.976562 L 397.121094 32.230469 L 404.410156 25.703125 L 411.207031 19.335938 L 411.328125 19.222656 L 411.445312 19.109375 L 411.683594 18.882812 L 412.15625 18.425781 L 413.105469 17.511719 L 415.003906 15.664062 L 415.121094 15.550781 L 415.242188 15.433594 L 415.480469 15.203125 L 415.953125 14.734375 L 416.902344 13.800781 L 417.019531 13.683594 L 417.140625 13.566406 L 417.375 13.328125 L 417.851562 12.859375 L 418.800781 11.910156" transform="matrix(1,0,0,1,-66,-5)"/></g></svg>