<svg version="1.1" viewBox="0 0 30 30" xmlns="http://www.w3.org/2000/svg">
	<g id="a" fill="#fff">
		<path d="m4.443 4.36c2.857-2.913 6.364-4.36 10.527-4.36 4.196 0 7.777 1.462 10.725 4.39a14.365 14.365 0 0 1 3.214 4.843c0.73 1.804 1.091 3.731 1.091 5.767 0 2.055-0.36 3.984-1.093 5.788-0.714 1.785-1.781 3.362-3.193 4.737a15.399 15.399 0 0 1-4.978 3.32 14.972 14.972 0 0 1-5.767 1.155c-1.983 0-3.883-0.374-5.705-1.125-1.804-0.767-3.428-1.869-4.874-3.298-1.428-1.446-2.516-3.069-3.266-4.873a14.701 14.701 0 0 1-1.124-5.704c0-1.982 0.374-3.882 1.124-5.704a15.224 15.224 0 0 1 3.32-4.937zm19.287 1.952c-2.411-2.409-5.306-3.612-8.7-3.612-3.429 0-6.316 1.2-8.655 3.591a13.054 13.054 0 0 0-2.731 4.044 11.899 11.899 0 0 0-0.944 4.665c0 1.607 0.32 3.154 0.945 4.653a12.806 12.806 0 0 0 2.73 3.992 12.651 12.651 0 0 0 3.993 2.68c1.482 0.607 3.038 0.913 4.663 0.913 1.608 0 3.154-0.31 4.654-0.935a12.9 12.9 0 0 0 4.097-2.71c2.338-2.286 3.518-5.146 3.518-8.593 0-1.66-0.306-3.234-0.914-4.716a12.033 12.033 0 0 0-2.657-3.97zm-14.928 8.688c0-3.961 1.246-8.634 6.198-8.634s6.197 4.673 6.197 8.634c0 3.962-1.245 8.634-6.197 8.634-4.953 0-6.198-4.672-6.198-8.634zm6.755-5.305a2.291 2.291 0 0 0-0.557-0.073c-2.547 0-2.668 3.633-2.668 5.377 0 0.562 0.014 1.313 0.116 2.08l3.298-6.06c0.342-0.592 0.168-1.016-0.19-1.324zm2.111 5.305c0-0.683-0.025-1.654-0.2-2.584l-3.686 6.366c-0.514 0.772-0.157 1.209 0.41 1.45 0.05 0.02 0.105 0.037 0.157 0.052l0.095 0.031c0.172 0.043 0.356 0.064 0.557 0.064 2.546 0 2.667-3.634 2.667-5.379z" clip-rule="evenodd" fill="#fff" fill-rule="evenodd"/>
	</g>
</svg>
