<?xml version="1.0" encoding="UTF-8"?>
<!-- SVG by Yellowsink 2023-02-10 -->
<svg version="1.1" viewBox="0 0 488.6 50" xml:space="preserve" xmlns="http://www.w3.org/2000/svg" xmlns:xlink="http://www.w3.org/1999/xlink"><g transform="matrix(1.0638 0 0 1.0638 -5.7456 -2.6596)" fill="none" stroke="#fff" stroke-width="1px"><path d="m6 49 4-22c-1.0402-8.1381 0.074438-16.13 3-24h1c-2.1411 25.457 8.7975 37.535 35 34v1c-7.3787 4.5605-15.549 5.0075-24 4l-3 7z"/><path d="m14 11 27-1 1 28"/><path d="m22 31 21-23" stroke-linecap="round"/></g><text x="68.846268" y="13.2706" fill="#ffffff" font-family="sans-serif" font-size="40px" style="line-height:1.25" xml:space="preserve"><tspan x="68.846268" y="13.2706"/></text><g fill="#fff" aria-label="Quiet System:"><path d="m64.964 34.665h-4.53v-2.61c4.23-0.57 6.12-4.47 6.12-10.74 0-6.84-2.22-10.83-7.32-10.83s-7.32 3.99-7.32 10.83c0 6.27 1.86 10.17 6.12 10.74v1.11c0 2.07 1.08 3.54 3.42 3.54h3.51zm-5.73-4.71c-3.33 0-4.65-2.73-4.65-6.93v-3.42c0-4.2 1.32-6.93 4.65-6.93s4.65 2.73 4.65 6.93v3.42c0 4.2-1.32 6.93-4.65 6.93z"/><path d="m80.894 31.785h2.4v-15.48h-2.4v10.74c0 2.04-1.92 2.97-3.84 2.97-2.37 0-3.66-1.38-3.66-4.2v-9.51h-2.4v9.93c0 3.75 2.13 5.91 5.37 5.91 2.55 0 3.75-1.35 4.41-2.88h0.12z"/><path d="m96.194 12.885c1.38 0 1.89-0.66 1.89-1.53v-0.48c0-0.87-0.51-1.53-1.89-1.53s-1.89 0.66-1.89 1.53v0.48c0 0.87 0.51 1.53 1.89 1.53zm-6.78 18.9h13.2v-2.04h-5.22v-13.44h-7.98v2.04h5.58v11.4h-5.58z"/><path d="m113.5 32.145c3.06 0 5.28-1.5 6.21-3.57l-1.77-1.2c-0.81 1.68-2.37 2.7-4.44 2.7-2.91 0-4.74-1.98-4.74-4.71v-0.72h11.46v-1.14c0-4.38-2.7-7.56-6.87-7.56-4.2 0-7.11 3.18-7.11 8.13 0 4.89 2.82 8.07 7.26 8.07zm-0.15-14.22c2.55 0 4.29 1.86 4.29 4.59v0.33h-8.88v-0.21c0-2.7 1.95-4.71 4.59-4.71z"/><path d="m138.01 31.785v-2.04h-7.05v-11.4h7.05v-2.04h-7.05v-5.46h-2.31v4.05c0 1.05-0.39 1.41-1.41 1.41h-3.84v2.04h5.16v9.9c0 2.07 1.08 3.54 3.42 3.54z"/><path d="m167.17 32.145c4.65 0 7.32-2.34 7.32-6.21 0-2.73-1.35-5.01-5.46-5.73l-2.25-0.39c-2.97-0.51-3.93-1.71-3.93-3.57 0-2.37 1.59-3.6 4.41-3.6 2.61 0 4.11 1.05 5.28 2.58l1.77-1.53c-1.41-2.01-3.69-3.21-7.02-3.21-4.26 0-6.99 1.98-6.99 5.82 0 2.64 1.29 5.01 5.4 5.7l2.34 0.39c2.85 0.48 3.9 1.56 3.9 3.6 0 2.52-1.65 3.99-4.68 3.99-2.52 0-4.23-0.99-5.85-3.03l-1.83 1.5c1.56 2.16 3.84 3.69 7.59 3.69z"/><path d="m187.63 22.785-2.31 5.88h-0.12l-2.31-5.88-2.61-6.48h-2.46l6.24 15.18-1.74 4.26h-3.6v2.04h2.28c2.34 0 3.24-0.84 3.96-2.61l7.68-18.87h-2.4z"/><path d="m203.41 32.145c3.96 0 6.54-1.77 6.54-4.83 0-3.36-3.09-3.96-5.31-4.29l-2.43-0.36c-1.38-0.21-2.73-0.63-2.73-2.25 0-1.59 1.35-2.46 3.78-2.46 2.73 0 4.11 1.08 4.83 1.95l1.56-1.47c-1.47-1.56-3.51-2.49-6.3-2.49-3.6 0-6.24 1.53-6.24 4.62 0 3.36 3.12 3.96 5.31 4.29l2.43 0.36c1.41 0.21 2.73 0.63 2.73 2.25 0 1.83-1.71 2.67-4.11 2.67-2.46 0-4.14-0.87-5.61-2.43l-1.62 1.41c1.62 1.83 3.93 3.03 7.17 3.03z"/><path d="m228.01 31.785v-2.04h-7.05v-11.4h7.05v-2.04h-7.05v-5.46h-2.31v4.05c0 1.05-0.39 1.41-1.41 1.41h-3.84v2.04h5.16v9.9c0 2.07 1.08 3.54 3.42 3.54z"/><path d="m239.5 32.145c3.06 0 5.28-1.5 6.21-3.57l-1.77-1.2c-0.81 1.68-2.37 2.7-4.44 2.7-2.91 0-4.74-1.98-4.74-4.71v-0.72h11.46v-1.14c0-4.38-2.7-7.56-6.87-7.56-4.2 0-7.11 3.18-7.11 8.13 0 4.89 2.82 8.07 7.26 8.07zm-0.15-14.22c2.55 0 4.29 1.86 4.29 4.59v0.33h-8.88v-0.21c0-2.7 1.95-4.71 4.59-4.71z"/><path d="m252.07 31.785v-11.37c0-1.65 0.9-2.49 2.19-2.49 1.41 0 1.86 0.87 1.86 3.51v10.35h2.22v-11.37c0-1.65 0.9-2.49 2.16-2.49 1.44 0 1.89 0.87 1.89 3.51v10.35h2.22v-10.74c0-3.27-0.66-5.1-3.18-5.1-1.83 0-2.79 1.02-3.36 2.43h-0.09c-0.18-1.44-1.05-2.43-2.82-2.43-1.71 0-2.49 0.96-2.97 2.16h-0.12v-1.8h-2.22v15.48z"/><path d="m275.23 32.055c1.62 0 2.22-0.78 2.22-1.8v-0.54c0-1.02-0.6-1.8-2.22-1.8s-2.22 0.78-2.22 1.8v0.54c0 1.02 0.6 1.8 2.22 1.8zm0-11.88c1.62 0 2.22-0.78 2.22-1.8v-0.54c0-1.02-0.6-1.8-2.22-1.8s-2.22 0.78-2.22 1.8v0.54c0 1.02 0.6 1.8 2.22 1.8z"/></g><g font-size="26px" style="line-height:1.25" aria-label="The Odixation"><g fill="#fff"><path d="m303.14 16.883v-1.898h-14.3v1.898h6.058v16.25h2.184v-16.25z"/><path d="m306.34 33.133h2.08v-9.308c0-1.768 1.664-2.574 3.328-2.574 2.054 0 3.172 1.196 3.172 3.64v8.242h2.08v-8.606c0-3.25-1.846-5.122-4.654-5.122-2.21 0-3.25 1.17-3.822 2.496h-0.104v-8.008h-2.08z"/><path d="m327.42 33.445c2.652 0 4.576-1.3 5.382-3.094l-1.534-1.04c-0.702 1.456-2.054 2.34-3.848 2.34-2.522 0-4.108-1.716-4.108-4.082v-0.624h9.932v-0.988c0-3.796-2.34-6.552-5.954-6.552-3.64 0-6.162 2.756-6.162 7.046 0 4.238 2.444 6.994 6.292 6.994zm-0.13-12.324c2.21 0 3.718 1.612 3.718 3.978v0.286h-7.696v-0.182c0-2.34 1.69-4.082 3.978-4.082z"/><path d="m377.24 33.133h2.08v-19.24h-2.08v8.008h-0.104c-0.858-1.638-2.262-2.496-4.134-2.496-3.276 0-5.252 2.626-5.252 7.02s1.976 7.02 5.252 7.02c1.872 0 3.276-0.858 4.134-2.496h0.104zm-3.432-1.534c-2.418 0-3.822-1.612-3.822-4.03v-2.288c0-2.418 1.404-4.03 3.822-4.03 1.846 0 3.432 0.962 3.432 2.756v4.836c0 1.794-1.586 2.756-3.432 2.756z"/><path d="m390.42 16.753c1.196 0 1.638-0.572 1.638-1.326v-0.416c0-0.754-0.442-1.326-1.638-1.326s-1.638 0.572-1.638 1.326v0.416c0 0.754 0.442 1.326 1.638 1.326zm-5.876 16.38h11.44v-1.768h-4.524v-11.648h-6.916v1.768h4.836v9.88h-4.836z"/><path d="m401.37 33.133 2.184-3.146 1.482-2.132h0.104l1.534 2.132 2.262 3.146h2.496l-5.044-6.838 4.914-6.578h-2.392l-2.002 2.834-1.56 2.236h-0.104l-1.612-2.236-2.028-2.834h-2.496l4.862 6.604-4.992 6.812z"/><path d="m427.29 33.133v-1.82h-1.872v-7.384c0-2.834-2.002-4.524-5.148-4.524-2.73 0-4.446 1.3-5.122 2.704l1.404 1.04c0.702-1.222 1.794-1.976 3.588-1.976 2.028 0 3.198 1.014 3.198 2.964v1.326h-2.86c-4.03 0-5.772 1.43-5.772 3.9 0 2.522 1.794 4.082 4.602 4.082 2.184 0 3.458-0.962 4.03-2.496h0.13c0.156 1.248 0.78 2.184 2.392 2.184zm-7.618-1.43c-1.716 0-2.782-0.728-2.782-2.106v-0.546c0-1.3 1.118-2.028 3.588-2.028h2.86v2.21c0 1.378-1.534 2.47-3.666 2.47z"/><path d="m442.26 33.133v-1.768h-6.11v-9.88h6.11v-1.768h-6.11v-4.732h-2.002v3.51c0 0.91-0.338 1.222-1.222 1.222h-3.328v1.768h4.472v8.58c0 1.794 0.936 3.068 2.964 3.068z"/><path d="m452.82 16.753c1.196 0 1.638-0.572 1.638-1.326v-0.416c0-0.754-0.442-1.326-1.638-1.326s-1.638 0.572-1.638 1.326v0.416c0 0.754 0.442 1.326 1.638 1.326zm-5.876 16.38h11.44v-1.768h-4.524v-11.648h-6.916v1.768h4.836v9.88h-4.836z"/><path d="m467.59 33.445c3.77 0 6.084-2.756 6.084-7.02s-2.314-7.02-6.084-7.02-6.084 2.756-6.084 7.02 2.314 7.02 6.084 7.02zm0-1.794c-2.314 0-3.874-1.378-3.874-4.264v-1.924c0-2.886 1.56-4.264 3.874-4.264s3.874 1.378 3.874 4.264v1.924c0 2.886-1.56 4.264-3.874 4.264z"/><path d="m480.02 33.133v-9.308c0-1.768 1.664-2.574 3.328-2.574 2.054 0 3.172 1.196 3.172 3.64v8.242h2.08v-8.606c0-3.25-1.846-5.122-4.654-5.122-2.21 0-3.25 1.17-3.822 2.496h-0.104v-2.184h-2.08v13.416z"/></g><g id="e" transform="matrix(.18284 0 0 .18284 356.49 24.584)" stroke="#fff"><path id="r" transform="translate(.5 .5)" d="m-9-15h13c8 0 8 8 0 8h-13zm-31 37h40v-11h-9v-8h10c11 0 5 19 14 19h25v-19h-6v2c0 8-9 7-10 2s-5-9-6-9c15-8 6-24-6-24h-47v11h10v26h-15z" fill="#fff" stroke="none" stroke-linejoin="round"/><g id="f" mask="url(#d)" stroke="#fff"><circle r="43" fill="none" stroke-width="9"/><g id="g"><polygon id="a" points="46 -3 46 3 51 0" stroke="#fff" stroke-linejoin="round" stroke-width="3"/><g stroke="#ffffff"><use transform="rotate(11.25)" xlink:href="#a"/><use transform="rotate(22.5)" xlink:href="#a"/><use transform="rotate(33.75)" xlink:href="#a"/><use transform="rotate(45)" xlink:href="#a"/><use transform="rotate(56.25)" xlink:href="#a"/><use transform="rotate(67.5)" xlink:href="#a"/><use transform="rotate(78.75)" xlink:href="#a"/><use transform="rotate(90)" xlink:href="#a"/><use transform="rotate(101.25)" xlink:href="#a"/><use transform="rotate(112.5)" xlink:href="#a"/><use transform="rotate(123.75)" xlink:href="#a"/><use transform="rotate(135)" xlink:href="#a"/><use transform="rotate(146.25)" xlink:href="#a"/><use transform="rotate(157.5)" xlink:href="#a"/><use transform="rotate(168.75)" xlink:href="#a"/><use transform="scale(-1)" xlink:href="#a"/><use transform="rotate(191.25)" xlink:href="#a"/><use transform="rotate(202.5)" xlink:href="#a"/><use transform="rotate(213.75)" xlink:href="#a"/><use transform="rotate(225)" xlink:href="#a"/><use transform="rotate(236.25)" xlink:href="#a"/><use transform="rotate(247.5)" xlink:href="#a"/><use transform="rotate(258.75)" xlink:href="#a"/><use transform="rotate(-90)" xlink:href="#a"/><use transform="rotate(-78.75)" xlink:href="#a"/><use transform="rotate(-67.5)" xlink:href="#a"/><use transform="rotate(-56.25)" xlink:href="#a"/><use transform="rotate(-45)" xlink:href="#a"/><use transform="rotate(-33.75)" xlink:href="#a"/><use transform="rotate(-22.5)" xlink:href="#a"/><use transform="rotate(-11.25)" xlink:href="#a"/></g></g><g id="h"><polygon id="b" points="7 -42 -7 -42 0 -35" stroke="#fff" stroke-linejoin="round" stroke-width="6"/><g stroke="#ffffff"><use transform="rotate(72)" xlink:href="#b"/><use transform="rotate(144)" xlink:href="#b"/><use transform="rotate(216)" xlink:href="#b"/><use transform="rotate(-72)" xlink:href="#b"/></g></g></g><mask id="d"><rect x="-60" y="-60" width="120" height="120" fill="#fff"/><circle id="c" cy="-40" r="3"/><use transform="rotate(72)" xlink:href="#c"/><use transform="rotate(144)" xlink:href="#c"/><use transform="rotate(216)" xlink:href="#c"/><use transform="rotate(-72)" xlink:href="#c"/></mask></g></g></svg>
