<?xml version="1.0" encoding="UTF-8"?>
<svg xmlns="http://www.w3.org/2000/svg" xmlns:xlink="http://www.w3.org/1999/xlink" width="360pt" height="245pt" viewBox="0 0 360 245" version="1.1">
<g id="surface1">
<path style="fill:none;stroke-width:1;stroke-linecap:square;stroke-linejoin:miter;stroke:rgb(99.998474%,99.998474%,99.998474%);stroke-opacity:1;stroke-miterlimit:3.25;" d="M 73.199219 127.113281 C 188.398438 11.910156 303.601562 242.3125 418.800781 127.113281 " transform="matrix(1,0,0,1,-66,-5)"/>
<path style="fill:none;stroke-width:1;stroke-linecap:square;stroke-linejoin:miter;stroke:rgb(0%,99.998474%,0%);stroke-opacity:1;stroke-miterlimit:3.25;" d="M 73.199219 127.113281 L 188.398438 11.910156 L 303.601562 242.3125 L 418.800781 127.113281 " transform="matrix(1,0,0,1,-66,-5)"/>
<path style=" stroke:none;fill-rule:evenodd;fill:rgb(99.998474%,0%,0%);fill-opacity:1;" d="M 8.699219 122.113281 C 8.699219 121.714844 8.542969 121.332031 8.261719 121.050781 C 7.980469 120.769531 7.597656 120.613281 7.199219 120.613281 C 6.800781 120.613281 6.421875 120.769531 6.140625 121.050781 C 5.859375 121.332031 5.699219 121.714844 5.699219 122.113281 C 5.699219 122.511719 5.859375 122.890625 6.140625 123.171875 C 6.421875 123.453125 6.800781 123.613281 7.199219 123.613281 C 7.597656 123.613281 7.980469 123.453125 8.261719 123.171875 C 8.542969 122.890625 8.699219 122.511719 8.699219 122.113281 Z M 8.699219 122.113281 "/>
<path style=" stroke:none;fill-rule:evenodd;fill:rgb(99.998474%,0%,0%);fill-opacity:1;" d="M 123.898438 6.910156 C 123.898438 6.515625 123.742188 6.132812 123.460938 5.851562 C 123.179688 5.570312 122.796875 5.410156 122.398438 5.410156 C 122.003906 5.410156 121.621094 5.570312 121.339844 5.851562 C 121.058594 6.132812 120.898438 6.515625 120.898438 6.910156 C 120.898438 7.308594 121.058594 7.691406 121.339844 7.972656 C 121.621094 8.253906 122.003906 8.410156 122.398438 8.410156 C 122.796875 8.410156 123.179688 8.253906 123.460938 7.972656 C 123.742188 7.691406 123.898438 7.308594 123.898438 6.910156 Z M 123.898438 6.910156 "/>
<path style=" stroke:none;fill-rule:evenodd;fill:rgb(99.998474%,0%,0%);fill-opacity:1;" d="M 239.101562 237.3125 C 239.101562 236.914062 238.941406 236.53125 238.660156 236.25 C 238.378906 235.96875 237.996094 235.8125 237.601562 235.8125 C 237.203125 235.8125 236.820312 235.96875 236.539062 236.25 C 236.257812 236.53125 236.101562 236.914062 236.101562 237.3125 C 236.101562 237.710938 236.257812 238.089844 236.539062 238.371094 C 236.820312 238.652344 237.203125 238.8125 237.601562 238.8125 C 237.996094 238.8125 238.378906 238.652344 238.660156 238.371094 C 238.941406 238.089844 239.101562 237.710938 239.101562 237.3125 Z M 239.101562 237.3125 "/>
<path style=" stroke:none;fill-rule:evenodd;fill:rgb(99.998474%,0%,0%);fill-opacity:1;" d="M 354.300781 122.113281 C 354.300781 121.714844 354.140625 121.332031 353.859375 121.050781 C 353.578125 120.769531 353.199219 120.613281 352.800781 120.613281 C 352.402344 120.613281 352.019531 120.769531 351.738281 121.050781 C 351.457031 121.332031 351.300781 121.714844 351.300781 122.113281 C 351.300781 122.511719 351.457031 122.890625 351.738281 123.171875 C 352.019531 123.453125 352.402344 123.613281 352.800781 123.613281 C 353.199219 123.613281 353.578125 123.453125 353.859375 123.171875 C 354.140625 122.890625 354.300781 122.511719 354.300781 122.113281 Z M 354.300781 122.113281 "/>
</g>
</svg>
