<?xml version="1.0" encoding="UTF-8"?>
<svg xmlns="http://www.w3.org/2000/svg" xmlns:xlink="http://www.w3.org/1999/xlink" width="1302pt" height="4006pt" viewBox="0 0 1302 4006" version="1.1">
<g id="surface1">
<path style="fill:none;stroke-width:2;stroke-linecap:square;stroke-linejoin:miter;stroke:rgb(99.998474%,99.998474%,99.998474%);stroke-opacity:1;stroke-miterlimit:3.25;" d="M 92.023438 3777.585938 C 300.226562 3569.382812 508.425781 3985.785156 716.625 3777.585938 C 924.824219 3569.382812 1133.023438 2736.585938 1341.226562 29.984375 " transform="matrix(1,0,0,1,-66,-5)"/>
<path style="fill:none;stroke-width:2;stroke-linecap:square;stroke-linejoin:miter;stroke:rgb(0%,99.998474%,0%);stroke-opacity:1;stroke-miterlimit:3.25;" d="M 92.023438 3777.585938 L 300.226562 3569.382812 L 508.425781 3985.785156 L 716.625 3777.585938 L 924.824219 3569.382812 L 1133.023438 2736.585938 L 1341.226562 29.984375 " transform="matrix(1,0,0,1,-66,-5)"/>
<path style=" stroke:none;fill-rule:evenodd;fill:rgb(99.998474%,0%,0%);fill-opacity:1;" d="M 27.523438 3772.585938 C 27.523438 3772.1875 27.367188 3771.804688 27.085938 3771.523438 C 26.804688 3771.242188 26.421875 3771.085938 26.023438 3771.085938 C 25.628906 3771.085938 25.246094 3771.242188 24.964844 3771.523438 C 24.683594 3771.804688 24.523438 3772.1875 24.523438 3772.585938 C 24.523438 3772.980469 24.683594 3773.363281 24.964844 3773.644531 C 25.246094 3773.925781 25.628906 3774.085938 26.023438 3774.085938 C 26.421875 3774.085938 26.804688 3773.925781 27.085938 3773.644531 C 27.367188 3773.363281 27.523438 3772.980469 27.523438 3772.585938 Z M 27.523438 3772.585938 "/>
<path style=" stroke:none;fill-rule:evenodd;fill:rgb(99.998474%,0%,0%);fill-opacity:1;" d="M 235.726562 3564.382812 C 235.726562 3563.984375 235.566406 3563.605469 235.285156 3563.324219 C 235.003906 3563.042969 234.621094 3562.882812 234.226562 3562.882812 C 233.828125 3562.882812 233.445312 3563.042969 233.164062 3563.324219 C 232.882812 3563.605469 232.726562 3563.984375 232.726562 3564.382812 C 232.726562 3564.78125 232.882812 3565.164062 233.164062 3565.445312 C 233.445312 3565.726562 233.828125 3565.882812 234.226562 3565.882812 C 234.621094 3565.882812 235.003906 3565.726562 235.285156 3565.445312 C 235.566406 3565.164062 235.726562 3564.78125 235.726562 3564.382812 Z M 235.726562 3564.382812 "/>
<path style=" stroke:none;fill-rule:evenodd;fill:rgb(99.998474%,0%,0%);fill-opacity:1;" d="M 443.925781 3980.785156 C 443.925781 3980.386719 443.765625 3980.003906 443.484375 3979.722656 C 443.203125 3979.441406 442.824219 3979.285156 442.425781 3979.285156 C 442.027344 3979.285156 441.644531 3979.441406 441.363281 3979.722656 C 441.082031 3980.003906 440.925781 3980.386719 440.925781 3980.785156 C 440.925781 3981.183594 441.082031 3981.5625 441.363281 3981.84375 C 441.644531 3982.125 442.027344 3982.285156 442.425781 3982.285156 C 442.824219 3982.285156 443.203125 3982.125 443.484375 3981.84375 C 443.765625 3981.5625 443.925781 3981.183594 443.925781 3980.785156 Z M 443.925781 3980.785156 "/>
<path style=" stroke:none;fill-rule:evenodd;fill:rgb(99.998474%,0%,0%);fill-opacity:1;" d="M 652.125 3772.585938 C 652.125 3772.1875 651.96875 3771.804688 651.6875 3771.523438 C 651.40625 3771.242188 651.023438 3771.085938 650.625 3771.085938 C 650.226562 3771.085938 649.84375 3771.242188 649.5625 3771.523438 C 649.28125 3771.804688 649.125 3772.1875 649.125 3772.585938 C 649.125 3772.980469 649.28125 3773.363281 649.5625 3773.644531 C 649.84375 3773.925781 650.226562 3774.085938 650.625 3774.085938 C 651.023438 3774.085938 651.40625 3773.925781 651.6875 3773.644531 C 651.96875 3773.363281 652.125 3772.980469 652.125 3772.585938 Z M 652.125 3772.585938 "/>
<path style=" stroke:none;fill-rule:evenodd;fill:rgb(99.998474%,0%,0%);fill-opacity:1;" d="M 860.324219 3564.382812 C 860.324219 3563.984375 860.167969 3563.605469 859.886719 3563.324219 C 859.605469 3563.042969 859.222656 3562.882812 858.824219 3562.882812 C 858.425781 3562.882812 858.046875 3563.042969 857.765625 3563.324219 C 857.484375 3563.605469 857.324219 3563.984375 857.324219 3564.382812 C 857.324219 3564.78125 857.484375 3565.164062 857.765625 3565.445312 C 858.046875 3565.726562 858.425781 3565.882812 858.824219 3565.882812 C 859.222656 3565.882812 859.605469 3565.726562 859.886719 3565.445312 C 860.167969 3565.164062 860.324219 3564.78125 860.324219 3564.382812 Z M 860.324219 3564.382812 "/>
<path style=" stroke:none;fill-rule:evenodd;fill:rgb(99.998474%,0%,0%);fill-opacity:1;" d="M 1068.523438 2731.585938 C 1068.523438 2731.1875 1068.367188 2730.804688 1068.085938 2730.523438 C 1067.804688 2730.242188 1067.421875 2730.085938 1067.023438 2730.085938 C 1066.628906 2730.085938 1066.246094 2730.242188 1065.964844 2730.523438 C 1065.683594 2730.804688 1065.523438 2731.1875 1065.523438 2731.585938 C 1065.523438 2731.980469 1065.683594 2732.363281 1065.964844 2732.644531 C 1066.246094 2732.925781 1066.628906 2733.085938 1067.023438 2733.085938 C 1067.421875 2733.085938 1067.804688 2732.925781 1068.085938 2732.644531 C 1068.367188 2732.363281 1068.523438 2731.980469 1068.523438 2731.585938 Z M 1068.523438 2731.585938 "/>
<path style=" stroke:none;fill-rule:evenodd;fill:rgb(99.998474%,0%,0%);fill-opacity:1;" d="M 1276.726562 24.984375 C 1276.726562 24.585938 1276.566406 24.203125 1276.285156 23.921875 C 1276.003906 23.640625 1275.621094 23.484375 1275.226562 23.484375 C 1274.828125 23.484375 1274.445312 23.640625 1274.164062 23.921875 C 1273.882812 24.203125 1273.726562 24.585938 1273.726562 24.984375 C 1273.726562 25.382812 1273.882812 25.761719 1274.164062 26.042969 C 1274.445312 26.324219 1274.828125 26.484375 1275.226562 26.484375 C 1275.621094 26.484375 1276.003906 26.324219 1276.285156 26.042969 C 1276.566406 25.761719 1276.726562 25.382812 1276.726562 24.984375 Z M 1276.726562 24.984375 "/>
</g>
</svg>
