<?xml version="1.0" encoding="UTF-8"?>
<svg xmlns="http://www.w3.org/2000/svg" xmlns:xlink="http://www.w3.org/1999/xlink" width="1302pt" height="1888pt" viewBox="0 0 1302 1888" version="1.1">
<g id="surface6">
<path style="fill:none;stroke-width:2;stroke-linecap:square;stroke-linejoin:miter;stroke:rgb(99.998474%,99.998474%,99.998474%);stroke-opacity:1;stroke-miterlimit:3.25;" d="M 973.8125 1793.558594 C 1047.296875 1720.078125 1120.777344 1867.042969 1194.261719 1793.558594 C 1267.742188 1720.078125 1341.226562 1426.148438 92.023438 29.984375 " transform="matrix(1,0,0,1,-66,-5)"/>
<path style="fill:none;stroke-width:2;stroke-linecap:square;stroke-linejoin:miter;stroke:rgb(0%,99.998474%,0%);stroke-opacity:1;stroke-miterlimit:3.25;" d="M 973.8125 1793.558594 L 1047.296875 1720.078125 L 1120.777344 1867.042969 L 1267.742188 1720.078125 L 1341.226562 1426.148438 L 92.023438 29.984375 " transform="matrix(1,0,0,1,-66,-5)"/>
<path style=" stroke:none;fill-rule:evenodd;fill:rgb(99.998474%,0%,0%);fill-opacity:1;" d="M 909.3125 1788.558594 C 909.3125 1788.164062 909.15625 1787.78125 908.875 1787.5 C 908.59375 1787.21875 908.210938 1787.058594 907.8125 1787.058594 C 907.414062 1787.058594 907.035156 1787.21875 906.753906 1787.5 C 906.472656 1787.78125 906.3125 1788.164062 906.3125 1788.558594 C 906.3125 1788.957031 906.472656 1789.339844 906.753906 1789.621094 C 907.035156 1789.902344 907.414062 1790.058594 907.8125 1790.058594 C 908.210938 1790.058594 908.59375 1789.902344 908.875 1789.621094 C 909.15625 1789.339844 909.3125 1788.957031 909.3125 1788.558594 Z M 909.3125 1788.558594 "/>
<path style=" stroke:none;fill-rule:evenodd;fill:rgb(99.998474%,0%,0%);fill-opacity:1;" d="M 982.796875 1715.078125 C 982.796875 1714.679688 982.636719 1714.296875 982.355469 1714.015625 C 982.074219 1713.734375 981.695312 1713.578125 981.296875 1713.578125 C 980.898438 1713.578125 980.515625 1713.734375 980.234375 1714.015625 C 979.953125 1714.296875 979.796875 1714.679688 979.796875 1715.078125 C 979.796875 1715.476562 979.953125 1715.859375 980.234375 1716.140625 C 980.515625 1716.421875 980.898438 1716.578125 981.296875 1716.578125 C 981.695312 1716.578125 982.074219 1716.421875 982.355469 1716.140625 C 982.636719 1715.859375 982.796875 1715.476562 982.796875 1715.078125 Z M 982.796875 1715.078125 "/>
<path style=" stroke:none;fill-rule:evenodd;fill:rgb(99.998474%,0%,0%);fill-opacity:1;" d="M 1056.277344 1862.042969 C 1056.277344 1861.644531 1056.121094 1861.261719 1055.839844 1860.980469 C 1055.558594 1860.699219 1055.175781 1860.542969 1054.777344 1860.542969 C 1054.378906 1860.542969 1054 1860.699219 1053.71875 1860.980469 C 1053.4375 1861.261719 1053.277344 1861.644531 1053.277344 1862.042969 C 1053.277344 1862.441406 1053.4375 1862.820312 1053.71875 1863.101562 C 1054 1863.386719 1054.378906 1863.542969 1054.777344 1863.542969 C 1055.175781 1863.542969 1055.558594 1863.386719 1055.839844 1863.101562 C 1056.121094 1862.820312 1056.277344 1862.441406 1056.277344 1862.042969 Z M 1056.277344 1862.042969 "/>
<path style=" stroke:none;fill-rule:evenodd;fill:rgb(99.998474%,0%,0%);fill-opacity:1;" d="M 1129.761719 1788.558594 C 1129.761719 1788.164062 1129.601562 1787.78125 1129.320312 1787.5 C 1129.039062 1787.21875 1128.65625 1787.058594 1128.261719 1787.058594 C 1127.863281 1787.058594 1127.480469 1787.21875 1127.199219 1787.5 C 1126.917969 1787.78125 1126.761719 1788.164062 1126.761719 1788.558594 C 1126.761719 1788.957031 1126.917969 1789.339844 1127.199219 1789.621094 C 1127.480469 1789.902344 1127.863281 1790.058594 1128.261719 1790.058594 C 1128.65625 1790.058594 1129.039062 1789.902344 1129.320312 1789.621094 C 1129.601562 1789.339844 1129.761719 1788.957031 1129.761719 1788.558594 Z M 1129.761719 1788.558594 "/>
<path style=" stroke:none;fill-rule:evenodd;fill:rgb(99.998474%,0%,0%);fill-opacity:1;" d="M 1203.242188 1715.078125 C 1203.242188 1714.679688 1203.085938 1714.296875 1202.804688 1714.015625 C 1202.523438 1713.734375 1202.140625 1713.578125 1201.742188 1713.578125 C 1201.34375 1713.578125 1200.964844 1713.734375 1200.683594 1714.015625 C 1200.402344 1714.296875 1200.242188 1714.679688 1200.242188 1715.078125 C 1200.242188 1715.476562 1200.402344 1715.859375 1200.683594 1716.140625 C 1200.964844 1716.421875 1201.34375 1716.578125 1201.742188 1716.578125 C 1202.140625 1716.578125 1202.523438 1716.421875 1202.804688 1716.140625 C 1203.085938 1715.859375 1203.242188 1715.476562 1203.242188 1715.078125 Z M 1203.242188 1715.078125 "/>
<path style=" stroke:none;fill-rule:evenodd;fill:rgb(99.998474%,0%,0%);fill-opacity:1;" d="M 1276.726562 1421.148438 C 1276.726562 1420.75 1276.566406 1420.371094 1276.285156 1420.089844 C 1276.003906 1419.808594 1275.621094 1419.648438 1275.226562 1419.648438 C 1274.828125 1419.648438 1274.445312 1419.808594 1274.164062 1420.089844 C 1273.882812 1420.371094 1273.726562 1420.75 1273.726562 1421.148438 C 1273.726562 1421.546875 1273.882812 1421.929688 1274.164062 1422.210938 C 1274.445312 1422.492188 1274.828125 1422.648438 1275.226562 1422.648438 C 1275.621094 1422.648438 1276.003906 1422.492188 1276.285156 1422.210938 C 1276.566406 1421.929688 1276.726562 1421.546875 1276.726562 1421.148438 Z M 1276.726562 1421.148438 "/>
<path style=" stroke:none;fill-rule:evenodd;fill:rgb(99.998474%,0%,0%);fill-opacity:1;" d="M 27.523438 24.984375 C 27.523438 24.585938 27.367188 24.203125 27.085938 23.921875 C 26.804688 23.640625 26.421875 23.484375 26.023438 23.484375 C 25.628906 23.484375 25.246094 23.640625 24.964844 23.921875 C 24.683594 24.203125 24.523438 24.585938 24.523438 24.984375 C 24.523438 25.382812 24.683594 25.761719 24.964844 26.042969 C 25.246094 26.324219 25.628906 26.484375 26.023438 26.484375 C 26.421875 26.484375 26.804688 26.324219 27.085938 26.042969 C 27.367188 25.761719 27.523438 25.382812 27.523438 24.984375 Z M 27.523438 24.984375 "/>
</g>
</svg>
