<?xml version="1.0" encoding="UTF-8"?>
<svg xmlns="http://www.w3.org/2000/svg" xmlns:xlink="http://www.w3.org/1999/xlink" width="360pt" height="224pt" viewBox="0 0 360 224" version="1.1">
<defs>
<clipPath id="clip1">
  <path d="M 69 4 L 359.039062 4 L 359.039062 89 L 69 89 Z M 69 4 "/>
</clipPath>
</defs>
<g id="surface16">
<g clip-path="url(#clip1)" clip-rule="nonzero">
<path style="fill:none;stroke-width:1.6;stroke-linecap:square;stroke-linejoin:miter;stroke:rgb(99.998474%,99.998474%,99.998474%);stroke-opacity:1;stroke-miterlimit:3.25;" d="M 417.839844 85.652344 L 409.652344 85.632812 L 401.589844 85.570312 L 393.652344 85.472656 L 385.835938 85.332031 L 378.144531 85.15625 L 370.578125 84.941406 L 363.132812 84.691406 L 355.8125 84.40625 L 348.617188 84.085938 L 341.542969 83.730469 L 334.59375 83.34375 L 327.769531 82.925781 L 321.066406 82.476562 L 314.488281 81.996094 L 308.035156 81.484375 L 301.703125 80.945312 L 295.496094 80.378906 L 289.414062 79.785156 L 283.453125 79.164062 L 277.617188 78.519531 L 271.90625 77.847656 L 266.320312 77.152344 L 260.855469 76.4375 L 255.511719 75.695312 L 250.296875 74.933594 L 245.203125 74.152344 L 240.234375 73.351562 L 235.386719 72.53125 L 230.664062 71.691406 L 226.066406 70.835938 L 221.59375 69.964844 L 217.242188 69.078125 L 213.011719 68.175781 L 208.910156 67.257812 L 204.929688 66.328125 L 201.074219 65.386719 L 197.339844 64.429688 L 193.734375 63.464844 L 190.25 62.492188 L 186.886719 61.507812 L 183.648438 60.515625 L 180.535156 59.519531 L 177.546875 58.511719 L 174.679688 57.5 L 171.9375 56.484375 L 169.316406 55.464844 L 166.824219 54.441406 L 164.453125 53.414062 L 162.203125 52.386719 L 160.078125 51.359375 L 158.078125 50.328125 L 156.203125 49.300781 L 154.449219 48.273438 L 152.820312 47.25 L 151.316406 46.230469 L 149.933594 45.214844 L 148.675781 44.203125 L 147.542969 43.195312 L 146.53125 42.199219 L 145.644531 41.207031 L 144.882812 40.222656 L 144.242188 39.25 L 143.726562 38.285156 L 143.335938 37.332031 L 143.066406 36.386719 L 142.921875 35.457031 L 142.902344 34.542969 L 143.007812 33.636719 L 143.234375 32.75 L 143.582031 31.878906 L 144.058594 31.023438 L 144.65625 30.183594 L 145.378906 29.363281 L 146.222656 28.5625 L 147.191406 27.78125 L 148.285156 27.019531 L 149.5 26.277344 L 150.84375 25.5625 L 152.304688 24.867188 L 153.894531 24.195312 L 155.605469 23.550781 L 157.441406 22.929688 L 159.398438 22.335938 L 161.480469 21.769531 L 163.6875 21.230469 L 166.019531 20.71875 L 168.472656 20.238281 L 171.050781 19.789062 L 173.75 19.371094 L 176.578125 18.984375 L 179.527344 18.628906 L 182.597656 18.308594 L 185.792969 18.023438 L 189.113281 17.773438 L 192.558594 17.558594 L 196.125 17.382812 L 199.816406 17.246094 L 203.632812 17.144531 L 207.570312 17.082031 L 211.632812 17.0625 " transform="matrix(1,0,0,1,-66,-5)"/>
</g>
<path style="fill:none;stroke-width:0.2;stroke-linecap:butt;stroke-linejoin:miter;stroke:rgb(99.998474%,99.998474%,99.998474%);stroke-opacity:1;stroke-miterlimit:3.25;" d="M 67 222.832031 L 425 222.832031 " transform="matrix(1,0,0,1,-66,-5)"/>
<path style="fill:none;stroke-width:0.2;stroke-linecap:butt;stroke-linejoin:miter;stroke:rgb(99.998474%,99.998474%,99.998474%);stroke-opacity:1;stroke-miterlimit:3.25;" d="M 74.160156 227.257812 L 74.160156 6 " transform="matrix(1,0,0,1,-66,-5)"/>
</g>
</svg>
