<?xml version="1.0" encoding="UTF-8"?>
<svg xmlns="http://www.w3.org/2000/svg" xmlns:xlink="http://www.w3.org/1999/xlink" width="360pt" height="223pt" viewBox="0 0 360 223" version="1.1">
<g id="surface22">
<path style="fill:none;stroke-width:1.6;stroke-linecap:square;stroke-linejoin:miter;stroke:rgb(88.070679%,61.103821%,14.204407%);stroke-opacity:1;stroke-miterlimit:3.25;" d="M 73.199219 116.246094 L 73.304688 115.472656 L 73.410156 114.703125 L 73.625 113.160156 L 74.046875 110.074219 L 74.894531 103.929688 L 76.59375 91.800781 L 76.699219 91.050781 L 76.804688 90.304688 L 77.015625 88.816406 L 77.441406 85.863281 L 78.289062 80.042969 L 79.984375 68.832031 L 80.097656 68.097656 L 80.214844 67.367188 L 80.441406 65.914062 L 80.902344 63.046875 L 81.820312 57.5 L 81.9375 56.824219 L 82.050781 56.152344 L 82.28125 54.824219 L 82.742188 52.214844 L 83.660156 47.21875 L 83.777344 46.613281 L 83.890625 46.015625 L 84.121094 44.832031 L 84.582031 42.527344 L 85.5 38.164062 L 85.613281 37.644531 L 85.730469 37.128906 L 85.960938 36.113281 L 86.417969 34.152344 L 87.339844 30.507812 L 87.445312 30.105469 L 87.550781 29.710938 L 87.765625 28.9375 L 88.195312 27.449219 L 88.304688 27.089844 L 88.410156 26.738281 L 88.625 26.050781 L 89.054688 24.738281 L 89.160156 24.421875 L 89.269531 24.113281 L 89.484375 23.515625 L 89.914062 22.382812 L 90.019531 22.113281 L 90.128906 21.847656 L 90.34375 21.339844 L 90.769531 20.390625 L 90.878906 20.167969 L 90.984375 19.953125 L 91.199219 19.535156 L 91.308594 19.335938 L 91.414062 19.140625 L 91.628906 18.773438 L 91.738281 18.597656 L 91.84375 18.429688 L 92.058594 18.105469 L 92.167969 17.957031 L 92.273438 17.808594 L 92.488281 17.535156 L 92.59375 17.410156 L 92.703125 17.285156 L 92.917969 17.0625 L 93.023438 16.957031 L 93.132812 16.859375 L 93.347656 16.683594 L 93.453125 16.605469 L 93.5625 16.53125 L 93.667969 16.464844 L 93.777344 16.402344 L 93.882812 16.347656 L 93.992188 16.296875 L 94.097656 16.253906 L 94.203125 16.21875 L 94.308594 16.1875 L 94.414062 16.164062 L 94.519531 16.144531 L 94.625 16.132812 L 94.730469 16.125 L 94.835938 16.125 L 94.941406 16.128906 L 95.046875 16.140625 L 95.152344 16.15625 L 95.257812 16.179688 L 95.363281 16.207031 L 95.46875 16.242188 L 95.574219 16.28125 L 95.675781 16.328125 L 95.78125 16.378906 L 95.886719 16.4375 L 95.992188 16.5 L 96.097656 16.570312 L 96.203125 16.644531 L 96.308594 16.726562 L 96.414062 16.8125 L 96.519531 16.90625 L 96.730469 17.109375 L 96.835938 17.21875 L 96.941406 17.335938 L 97.148438 17.582031 L 97.253906 17.714844 L 97.359375 17.855469 L 97.570312 18.152344 L 97.675781 18.304688 L 97.78125 18.46875 L 97.992188 18.808594 L 98.414062 19.558594 L 98.519531 19.761719 L 98.621094 19.96875 L 98.832031 20.402344 L 99.253906 21.332031 L 99.359375 21.578125 L 99.464844 21.828125 L 99.675781 22.351562 L 100.09375 23.457031 L 100.9375 25.929688 L 101.050781 26.292969 L 101.164062 26.660156 L 101.394531 27.414062 L 101.851562 28.996094 L 102.761719 32.445312 L 102.875 32.90625 L 102.992188 33.367188 L 103.21875 34.3125 L 103.675781 36.265625 L 104.589844 40.4375 L 104.703125 40.984375 L 104.816406 41.535156 L 105.042969 42.648438 L 105.5 44.941406 L 106.414062 49.761719 L 108.238281 60.257812 L 108.347656 60.902344 L 108.453125 61.550781 L 108.664062 62.855469 L 109.089844 65.503906 L 109.945312 70.945312 L 111.648438 82.328125 L 115.054688 106.472656 L 115.171875 107.308594 L 115.285156 108.144531 L 115.515625 109.820312 L 115.980469 113.179688 L 116.902344 119.898438 L 118.75 133.261719 L 118.863281 134.089844 L 118.980469 134.914062 L 119.210938 136.5625 L 119.671875 139.84375 L 120.59375 146.316406 L 122.441406 158.832031 L 122.554688 159.578125 L 122.667969 160.320312 L 122.894531 161.792969 L 123.347656 164.707031 L 124.253906 170.375 L 124.367188 171.066406 L 124.480469 171.753906 L 124.707031 173.121094 L 125.160156 175.804688 L 126.066406 180.976562 L 126.292969 182.226562 L 126.519531 183.457031 L 126.972656 185.867188 L 127.878906 190.457031 L 127.992188 191.007812 L 128.105469 191.550781 L 128.332031 192.628906 L 128.785156 194.722656 L 129.691406 198.644531 L 129.796875 199.082031 L 129.902344 199.511719 L 130.117188 200.355469 L 130.539062 201.984375 L 130.644531 202.378906 L 130.75 202.769531 L 130.960938 203.535156 L 131.382812 205 L 131.488281 205.355469 L 131.59375 205.703125 L 131.804688 206.382812 L 132.230469 207.679688 L 133.074219 210.015625 L 133.179688 210.28125 L 133.285156 210.542969 L 133.496094 211.046875 L 133.921875 211.992188 L 134.027344 212.214844 L 134.132812 212.433594 L 134.34375 212.847656 L 134.765625 213.609375 L 134.871094 213.789062 L 134.976562 213.957031 L 135.1875 214.28125 L 135.292969 214.4375 L 135.398438 214.582031 L 135.609375 214.859375 L 135.71875 214.992188 L 135.824219 215.113281 L 136.035156 215.347656 L 136.140625 215.453125 L 136.246094 215.554688 L 136.457031 215.738281 L 136.570312 215.828125 L 136.6875 215.910156 L 136.800781 215.988281 L 136.914062 216.054688 L 137.03125 216.117188 L 137.144531 216.175781 L 137.257812 216.222656 L 137.375 216.265625 L 137.488281 216.296875 L 137.601562 216.324219 L 137.71875 216.347656 L 137.832031 216.359375 L 137.945312 216.367188 L 138.0625 216.367188 L 138.175781 216.359375 L 138.289062 216.34375 L 138.40625 216.324219 L 138.519531 216.296875 L 138.632812 216.261719 L 138.75 216.21875 L 138.863281 216.171875 L 138.976562 216.113281 L 139.09375 216.050781 L 139.207031 215.980469 L 139.320312 215.90625 L 139.4375 215.820312 L 139.550781 215.730469 L 139.664062 215.632812 L 139.78125 215.53125 L 139.894531 215.417969 L 140.125 215.175781 L 140.238281 215.042969 L 140.351562 214.90625 L 140.582031 214.605469 L 140.695312 214.449219 L 140.8125 214.28125 L 141.039062 213.929688 L 141.15625 213.742188 L 141.269531 213.550781 L 141.5 213.144531 L 141.957031 212.25 L 142.074219 212.007812 L 142.1875 211.761719 L 142.417969 211.25 L 142.875 210.144531 L 142.988281 209.851562 L 143.105469 209.550781 L 143.332031 208.933594 L 143.792969 207.617188 L 143.898438 207.296875 L 144.003906 206.96875 L 144.21875 206.300781 L 144.648438 204.894531 L 145.503906 201.828125 L 145.609375 201.421875 L 145.71875 201.011719 L 145.929688 200.171875 L 146.359375 198.429688 L 147.214844 194.714844 L 147.320312 194.230469 L 147.429688 193.738281 L 147.644531 192.742188 L 148.070312 190.695312 L 148.925781 186.386719 L 150.636719 176.972656 L 150.742188 176.363281 L 150.847656 175.75 L 151.058594 174.515625 L 151.476562 172.003906 L 152.316406 166.832031 L 153.996094 155.9375 L 157.351562 132.546875 L 157.464844 131.730469 L 157.804688 129.269531 L 158.261719 125.976562 L 159.171875 119.363281 L 160.992188 106.121094 L 161.105469 105.300781 L 161.21875 104.476562 L 161.449219 102.832031 L 161.902344 99.554688 L 162.8125 93.0625 L 164.632812 80.40625 L 164.742188 79.683594 L 164.847656 78.964844 L 165.058594 77.535156 L 165.484375 74.703125 L 166.332031 69.15625 L 168.03125 58.625 L 168.136719 57.996094 L 168.246094 57.367188 L 168.457031 56.125 L 168.882812 53.683594 L 169.730469 48.976562 L 171.429688 40.347656 L 171.546875 39.804688 L 171.660156 39.265625 L 171.890625 38.207031 L 172.351562 36.148438 L 173.273438 32.308594 L 173.386719 31.855469 L 173.5 31.40625 L 173.730469 30.53125 L 174.191406 28.847656 L 175.113281 25.773438 L 175.226562 25.417969 L 175.34375 25.070312 L 175.574219 24.390625 L 176.035156 23.105469 L 176.148438 22.804688 L 176.265625 22.503906 L 176.496094 21.929688 L 176.953125 20.859375 L 177.070312 20.605469 L 177.183594 20.363281 L 177.414062 19.894531 L 177.53125 19.667969 L 177.644531 19.449219 L 177.875 19.035156 L 177.992188 18.839844 L 178.105469 18.648438 L 178.335938 18.289062 L 178.453125 18.117188 L 178.566406 17.957031 L 178.796875 17.648438 L 178.910156 17.511719 L 179.023438 17.378906 L 179.136719 17.25 L 179.25 17.132812 L 179.472656 16.910156 L 179.699219 16.71875 L 179.8125 16.632812 L 179.925781 16.554688 L 180.039062 16.480469 L 180.152344 16.414062 L 180.265625 16.355469 L 180.378906 16.304688 L 180.492188 16.257812 L 180.605469 16.21875 L 180.71875 16.1875 L 180.832031 16.160156 L 180.945312 16.140625 L 181.054688 16.128906 L 181.167969 16.125 L 181.28125 16.125 L 181.394531 16.132812 L 181.507812 16.148438 L 181.621094 16.171875 L 181.734375 16.199219 L 181.847656 16.234375 L 181.960938 16.277344 L 182.074219 16.328125 L 182.1875 16.382812 L 182.300781 16.445312 L 182.414062 16.511719 L 182.523438 16.589844 L 182.636719 16.671875 L 182.75 16.761719 L 182.863281 16.855469 L 182.976562 16.960938 L 183.089844 17.070312 L 183.316406 17.308594 L 183.429688 17.4375 L 183.542969 17.574219 L 183.769531 17.867188 L 184.21875 18.53125 L 184.332031 18.710938 L 184.445312 18.902344 L 184.671875 19.300781 L 185.125 20.175781 L 185.238281 20.410156 L 185.351562 20.648438 L 185.578125 21.152344 L 186.027344 22.234375 L 186.132812 22.5 L 186.238281 22.773438 L 186.449219 23.332031 L 186.871094 24.519531 L 187.714844 27.152344 L 187.820312 27.503906 L 187.925781 27.863281 L 188.136719 28.59375 L 188.558594 30.117188 L 189.402344 33.40625 L 189.503906 33.839844 L 189.609375 34.277344 L 189.820312 35.167969 L 190.242188 37.007812 L 191.085938 40.90625 L 192.773438 49.535156 L 193 50.785156 L 193.230469 52.054688 L 193.6875 54.644531 L 194.601562 60.027344 L 196.429688 71.507812 L 200.085938 96.625 L 206.914062 145.761719 L 207.03125 146.566406 L 207.144531 147.367188 L 207.378906 148.964844 L 207.839844 152.125 L 208.765625 158.328125 L 210.613281 170.128906 L 210.730469 170.835938 L 210.84375 171.539062 L 211.078125 172.933594 L 211.539062 175.679688 L 212.464844 180.957031 L 214.3125 190.617188 L 214.425781 191.167969 L 214.539062 191.714844 L 214.765625 192.789062 L 215.222656 194.878906 L 216.128906 198.796875 L 216.242188 199.261719 L 216.355469 199.722656 L 216.582031 200.621094 L 217.039062 202.355469 L 217.945312 205.539062 L 218.058594 205.910156 L 218.171875 206.273438 L 218.398438 206.984375 L 218.851562 208.332031 L 218.964844 208.652344 L 219.078125 208.96875 L 219.308594 209.578125 L 219.761719 210.722656 L 219.875 210.996094 L 219.988281 211.257812 L 220.214844 211.765625 L 220.328125 212.011719 L 220.441406 212.25 L 220.667969 212.703125 L 220.78125 212.921875 L 220.894531 213.132812 L 221.121094 213.539062 L 221.578125 214.265625 L 221.683594 214.417969 L 221.789062 214.566406 L 222 214.847656 L 222.105469 214.976562 L 222.210938 215.101562 L 222.425781 215.335938 L 222.53125 215.441406 L 222.636719 215.542969 L 222.742188 215.640625 L 222.847656 215.730469 L 222.953125 215.8125 L 223.058594 215.890625 L 223.164062 215.964844 L 223.269531 216.03125 L 223.375 216.089844 L 223.484375 216.144531 L 223.589844 216.191406 L 223.695312 216.234375 L 223.800781 216.273438 L 223.90625 216.304688 L 224.011719 216.328125 L 224.117188 216.347656 L 224.222656 216.359375 L 224.328125 216.367188 L 224.4375 216.367188 L 224.542969 216.363281 L 224.648438 216.351562 L 224.753906 216.335938 L 224.859375 216.3125 L 225.070312 216.25 L 225.175781 216.207031 L 225.28125 216.160156 L 225.386719 216.109375 L 225.496094 216.050781 L 225.601562 215.988281 L 225.707031 215.917969 L 225.8125 215.839844 L 225.917969 215.757812 L 226.023438 215.671875 L 226.234375 215.476562 L 226.339844 215.371094 L 226.445312 215.261719 L 226.660156 215.019531 L 226.765625 214.890625 L 226.871094 214.753906 L 227.082031 214.46875 L 227.1875 214.316406 L 227.292969 214.15625 L 227.507812 213.824219 L 227.613281 213.648438 L 227.71875 213.46875 L 227.929688 213.085938 L 228.351562 212.257812 L 228.46875 212.019531 L 228.582031 211.773438 L 228.8125 211.257812 L 229.269531 210.152344 L 229.386719 209.855469 L 229.5 209.558594 L 229.730469 208.9375 L 230.191406 207.625 L 230.304688 207.277344 L 230.417969 206.925781 L 230.648438 206.207031 L 231.109375 204.6875 L 232.027344 201.359375 L 232.140625 200.917969 L 232.257812 200.46875 L 232.484375 199.550781 L 232.945312 197.652344 L 233.863281 193.582031 L 235.699219 184.421875 L 235.808594 183.851562 L 235.914062 183.273438 L 236.128906 182.105469 L 236.558594 179.722656 L 237.414062 174.773438 L 239.128906 164.214844 L 242.558594 141.039062 L 249.285156 92.5625 L 249.511719 90.953125 L 249.738281 89.351562 L 250.195312 86.167969 L 251.109375 79.90625 L 252.929688 67.886719 L 253.046875 67.164062 L 253.160156 66.441406 L 253.386719 65.007812 L 253.84375 62.183594 L 254.753906 56.71875 L 256.578125 46.59375 L 256.6875 46.042969 L 256.792969 45.492188 L 257.003906 44.402344 L 257.429688 42.28125 L 258.28125 38.25 L 258.386719 37.765625 L 258.492188 37.285156 L 258.707031 36.34375 L 259.132812 34.515625 L 259.984375 31.09375 L 260.195312 30.289062 L 260.410156 29.507812 L 260.835938 28 L 260.941406 27.636719 L 261.046875 27.28125 L 261.257812 26.582031 L 261.683594 25.246094 L 261.792969 24.925781 L 261.898438 24.609375 L 262.109375 23.996094 L 262.535156 22.835938 L 262.640625 22.5625 L 262.75 22.289062 L 262.960938 21.765625 L 263.386719 20.785156 L 263.503906 20.535156 L 263.617188 20.292969 L 263.847656 19.828125 L 263.964844 19.605469 L 264.078125 19.390625 L 264.308594 18.976562 L 264.425781 18.78125 L 264.539062 18.59375 L 264.769531 18.238281 L 264.886719 18.070312 L 265 17.90625 L 265.230469 17.605469 L 265.347656 17.464844 L 265.460938 17.332031 L 265.578125 17.207031 L 265.691406 17.085938 L 265.808594 16.972656 L 265.921875 16.867188 L 266.152344 16.675781 L 266.269531 16.59375 L 266.382812 16.515625 L 266.5 16.445312 L 266.617188 16.382812 L 266.730469 16.324219 L 266.847656 16.273438 L 266.960938 16.234375 L 267.078125 16.195312 L 267.191406 16.167969 L 267.308594 16.148438 L 267.421875 16.132812 L 267.539062 16.125 L 267.652344 16.125 L 267.769531 16.132812 L 267.882812 16.144531 L 268 16.167969 L 268.113281 16.195312 L 268.230469 16.230469 L 268.34375 16.269531 L 268.460938 16.320312 L 268.574219 16.375 L 268.691406 16.4375 L 268.804688 16.507812 L 268.921875 16.585938 L 269.035156 16.671875 L 269.152344 16.761719 L 269.265625 16.859375 L 269.382812 16.964844 L 269.613281 17.195312 L 269.84375 17.453125 L 269.957031 17.59375 L 270.074219 17.742188 L 270.304688 18.054688 L 270.765625 18.765625 L 270.878906 18.957031 L 270.992188 19.15625 L 271.21875 19.570312 L 271.671875 20.480469 L 271.785156 20.722656 L 271.898438 20.972656 L 272.125 21.492188 L 272.578125 22.609375 L 272.691406 22.90625 L 272.804688 23.207031 L 273.03125 23.828125 L 273.480469 25.144531 L 274.386719 28.078125 L 274.5 28.46875 L 274.613281 28.867188 L 274.839844 29.6875 L 275.292969 31.390625 L 276.199219 35.070312 L 276.3125 35.554688 L 276.425781 36.042969 L 276.652344 37.042969 L 277.105469 39.101562 L 278.007812 43.46875 L 278.21875 44.53125 L 278.433594 45.613281 L 278.855469 47.824219 L 279.699219 52.441406 L 281.386719 62.375 L 284.765625 84.519531 L 292.09375 137.15625 L 292.199219 137.917969 L 292.308594 138.675781 L 292.519531 140.1875 L 292.949219 143.199219 L 293.804688 149.140625 L 295.511719 160.613281 L 295.621094 161.308594 L 295.726562 162.003906 L 295.941406 163.382812 L 296.367188 166.105469 L 297.222656 171.402344 L 298.933594 181.339844 L 299.039062 181.917969 L 299.140625 182.492188 L 299.351562 183.628906 L 299.769531 185.855469 L 300.609375 190.109375 L 300.714844 190.621094 L 300.820312 191.128906 L 301.027344 192.132812 L 301.449219 194.089844 L 302.285156 197.78125 L 302.496094 198.65625 L 302.703125 199.511719 L 303.125 201.167969 L 303.960938 204.242188 L 304.066406 204.601562 L 304.171875 204.957031 L 304.378906 205.65625 L 304.800781 206.988281 L 305.636719 209.394531 L 305.75 209.695312 L 305.867188 209.988281 L 306.09375 210.558594 L 306.546875 211.617188 L 306.660156 211.867188 L 306.773438 212.109375 L 307.003906 212.574219 L 307.457031 213.421875 L 307.570312 213.621094 L 307.683594 213.808594 L 307.910156 214.167969 L 308.023438 214.335938 L 308.140625 214.5 L 308.367188 214.804688 L 308.480469 214.945312 L 308.59375 215.082031 L 308.707031 215.210938 L 308.820312 215.332031 L 308.933594 215.449219 L 309.046875 215.554688 L 309.277344 215.753906 L 309.390625 215.839844 L 309.503906 215.921875 L 309.617188 215.996094 L 309.730469 216.066406 L 309.84375 216.125 L 309.957031 216.179688 L 310.070312 216.226562 L 310.183594 216.269531 L 310.300781 216.300781 L 310.414062 216.328125 L 310.527344 216.347656 L 310.640625 216.359375 L 310.753906 216.367188 L 310.867188 216.367188 L 310.980469 216.359375 L 311.09375 216.34375 L 311.207031 216.324219 L 311.320312 216.296875 L 311.4375 216.261719 L 311.550781 216.21875 L 311.664062 216.171875 L 311.890625 216.054688 L 312.003906 215.984375 L 312.117188 215.910156 L 312.230469 215.824219 L 312.34375 215.734375 L 312.457031 215.640625 L 312.574219 215.535156 L 312.6875 215.425781 L 312.914062 215.1875 L 313.019531 215.066406 L 313.125 214.9375 L 313.335938 214.667969 L 313.445312 214.523438 L 313.550781 214.371094 L 313.761719 214.054688 L 313.867188 213.886719 L 313.972656 213.710938 L 314.1875 213.347656 L 314.609375 212.546875 L 314.714844 212.332031 L 314.824219 212.113281 L 315.035156 211.65625 L 315.460938 210.675781 L 315.671875 210.152344 L 315.882812 209.605469 L 316.308594 208.441406 L 316.414062 208.140625 L 316.519531 207.832031 L 316.730469 207.195312 L 317.15625 205.859375 L 318.003906 202.9375 L 318.109375 202.546875 L 318.21875 202.152344 L 318.429688 201.351562 L 318.851562 199.683594 L 319.703125 196.109375 L 319.816406 195.601562 L 319.933594 195.089844 L 320.160156 194.046875 L 320.621094 191.894531 L 321.542969 187.34375 L 323.382812 177.304688 L 323.609375 175.96875 L 323.839844 174.617188 L 324.300781 171.863281 L 325.222656 166.175781 L 327.0625 154.152344 L 327.167969 153.425781 L 327.277344 152.699219 L 327.492188 151.238281 L 327.917969 148.292969 L 328.777344 142.308594 L 330.496094 130.0625 L 333.933594 105.113281 L 334.144531 103.589844 L 334.351562 102.070312 L 334.773438 99.042969 L 335.617188 93.039062 L 337.300781 81.3125 L 337.511719 79.882812 L 337.722656 78.457031 L 338.144531 75.636719 L 338.984375 70.113281 L 340.667969 59.601562 L 340.785156 58.917969 L 340.898438 58.238281 L 341.125 56.890625 L 341.582031 54.246094 L 342.496094 49.164062 L 342.609375 48.550781 L 342.722656 47.941406 L 342.953125 46.734375 L 343.410156 44.378906 L 344.324219 39.910156 L 344.4375 39.375 L 344.550781 38.84375 L 344.78125 37.800781 L 345.238281 35.777344 L 346.148438 32 L 346.265625 31.554688 L 346.378906 31.113281 L 346.605469 30.25 L 347.0625 28.597656 L 347.976562 25.578125 L 348.082031 25.25 L 348.191406 24.929688 L 348.402344 24.304688 L 348.828125 23.121094 L 348.9375 22.839844 L 349.042969 22.5625 L 349.253906 22.027344 L 349.683594 21.019531 L 349.789062 20.785156 L 349.894531 20.554688 L 350.109375 20.109375 L 350.214844 19.894531 L 350.320312 19.6875 L 350.535156 19.289062 L 350.640625 19.097656 L 350.746094 18.914062 L 350.960938 18.5625 L 351.386719 17.925781 L 351.492188 17.785156 L 351.601562 17.644531 L 351.8125 17.386719 L 351.917969 17.269531 L 352.027344 17.15625 L 352.238281 16.945312 L 352.347656 16.847656 L 352.453125 16.757812 L 352.558594 16.675781 L 352.664062 16.597656 L 352.773438 16.523438 L 352.878906 16.457031 L 352.984375 16.398438 L 353.089844 16.34375 L 353.199219 16.292969 L 353.410156 16.214844 L 353.519531 16.1875 L 353.625 16.160156 L 353.730469 16.144531 L 353.835938 16.132812 L 353.945312 16.125 L 354.050781 16.125 L 354.15625 16.132812 L 354.265625 16.144531 L 354.371094 16.160156 L 354.476562 16.183594 L 354.582031 16.214844 L 354.691406 16.25 L 354.796875 16.292969 L 354.914062 16.34375 L 355.027344 16.402344 L 355.144531 16.46875 L 355.257812 16.542969 L 355.375 16.625 L 355.488281 16.710938 L 355.71875 16.90625 L 355.835938 17.015625 L 355.953125 17.132812 L 356.183594 17.382812 L 356.296875 17.519531 L 356.414062 17.664062 L 356.644531 17.96875 L 356.761719 18.132812 L 356.875 18.304688 L 357.105469 18.667969 L 357.222656 18.859375 L 357.335938 19.058594 L 357.566406 19.476562 L 357.683594 19.695312 L 357.800781 19.921875 L 358.03125 20.394531 L 358.492188 21.417969 L 358.609375 21.691406 L 358.722656 21.972656 L 358.953125 22.550781 L 359.414062 23.789062 L 359.53125 24.117188 L 359.648438 24.449219 L 359.878906 25.132812 L 360.339844 26.578125 L 360.457031 26.957031 L 360.570312 27.339844 L 360.800781 28.125 L 361.261719 29.769531 L 362.1875 33.351562 L 362.414062 34.289062 L 362.640625 35.25 L 363.09375 37.234375 L 364 41.460938 L 365.816406 50.867188 L 365.929688 51.492188 L 366.042969 52.125 L 366.269531 53.402344 L 366.722656 56.003906 L 367.628906 61.40625 L 369.445312 72.902344 L 369.550781 73.597656 L 369.65625 74.296875 L 369.867188 75.699219 L 370.289062 78.535156 L 371.136719 84.308594 L 372.828125 96.199219 L 376.210938 120.703125 L 376.328125 121.535156 L 376.441406 122.367188 L 376.671875 124.035156 L 377.128906 127.359375 L 378.046875 133.96875 L 379.882812 146.921875 L 379.996094 147.714844 L 380.109375 148.503906 L 380.339844 150.082031 L 380.800781 153.207031 L 381.714844 159.328125 L 383.550781 170.96875 L 383.660156 171.617188 L 383.765625 172.265625 L 383.980469 173.550781 L 384.40625 176.082031 L 385.265625 180.960938 L 385.371094 181.554688 L 385.476562 182.144531 L 385.691406 183.308594 L 386.121094 185.589844 L 386.976562 189.953125 L 387.085938 190.476562 L 387.191406 190.996094 L 387.40625 192.027344 L 387.832031 194.027344 L 388.691406 197.800781 L 388.796875 198.25 L 388.90625 198.695312 L 389.117188 199.570312 L 389.546875 201.257812 L 390.402344 204.382812 L 390.507812 204.746094 L 390.613281 205.097656 L 390.824219 205.792969 L 391.242188 207.117188 L 391.347656 207.4375 L 391.453125 207.75 L 391.664062 208.359375 L 392.082031 209.515625 L 392.1875 209.789062 L 392.292969 210.058594 L 392.503906 210.582031 L 392.921875 211.5625 L 393.027344 211.792969 L 393.132812 212.019531 L 393.34375 212.453125 L 393.761719 213.253906 L 393.867188 213.441406 L 393.972656 213.621094 L 394.183594 213.964844 L 394.285156 214.128906 L 394.390625 214.285156 L 394.601562 214.585938 L 394.707031 214.726562 L 394.8125 214.859375 L 395.019531 215.113281 L 395.125 215.230469 L 395.230469 215.34375 L 395.441406 215.550781 L 395.546875 215.644531 L 395.652344 215.734375 L 395.757812 215.816406 L 395.859375 215.894531 L 395.964844 215.964844 L 396.070312 216.03125 L 396.175781 216.089844 L 396.28125 216.144531 L 396.386719 216.191406 L 396.492188 216.234375 L 396.59375 216.269531 L 396.699219 216.300781 L 396.804688 216.328125 L 397.015625 216.359375 L 397.121094 216.367188 L 397.234375 216.367188 L 397.347656 216.363281 L 397.574219 216.332031 L 397.691406 216.304688 L 397.804688 216.269531 L 397.917969 216.230469 L 398.03125 216.183594 L 398.144531 216.132812 L 398.257812 216.070312 L 398.371094 216.003906 L 398.488281 215.929688 L 398.601562 215.847656 L 398.714844 215.761719 L 398.941406 215.566406 L 399.054688 215.457031 L 399.171875 215.34375 L 399.398438 215.089844 L 399.511719 214.957031 L 399.625 214.8125 L 399.851562 214.507812 L 399.96875 214.347656 L 400.082031 214.179688 L 400.308594 213.820312 L 400.765625 213.023438 L 400.878906 212.808594 L 400.992188 212.585938 L 401.21875 212.121094 L 401.675781 211.113281 L 401.789062 210.84375 L 401.902344 210.570312 L 402.128906 210 L 402.585938 208.785156 L 402.699219 208.464844 L 402.8125 208.140625 L 403.042969 207.46875 L 403.496094 206.050781 L 404.410156 202.925781 L 404.515625 202.535156 L 404.621094 202.140625 L 404.832031 201.332031 L 405.257812 199.664062 L 406.109375 196.082031 L 406.214844 195.613281 L 406.320312 195.140625 L 406.535156 194.175781 L 406.957031 192.199219 L 407.808594 188.023438 L 407.914062 187.480469 L 408.019531 186.933594 L 408.234375 185.832031 L 408.660156 183.574219 L 409.507812 178.867188 L 411.207031 168.753906 L 411.328125 168.015625 L 411.445312 167.277344 L 411.683594 165.78125 L 412.15625 162.75 L 413.105469 156.527344 L 415.003906 143.53125 L 415.121094 142.699219 L 415.242188 141.867188 L 415.480469 140.195312 L 415.953125 136.824219 L 416.902344 130.019531 L 417.019531 129.164062 L 417.140625 128.308594 L 417.375 126.589844 L 417.851562 123.148438 L 417.96875 122.289062 L 418.089844 121.425781 L 418.324219 119.699219 L 418.445312 118.835938 L 418.679688 117.109375 L 418.800781 116.246094 " transform="matrix(1,0,0,1,-66,-5)"/>
<path style="fill:none;stroke-width:1.6;stroke-linecap:square;stroke-linejoin:miter;stroke:rgb(56.016541%,69.155884%,19.488525%);stroke-opacity:1;stroke-miterlimit:3.25;" d="M 73.199219 116.246094 L 73.304688 116.4375 L 73.410156 116.632812 L 73.625 117.019531 L 74.046875 117.789062 L 74.894531 119.332031 L 76.59375 122.417969 L 79.984375 128.5625 L 87.339844 141.699219 L 94.203125 153.558594 L 100.9375 164.621094 L 108.238281 175.800781 L 115.054688 185.289062 L 122.441406 194.375 L 122.894531 194.890625 L 123.347656 195.398438 L 124.253906 196.398438 L 126.066406 198.332031 L 129.691406 201.929688 L 129.796875 202.027344 L 129.902344 202.128906 L 130.117188 202.324219 L 130.539062 202.714844 L 131.382812 203.480469 L 133.074219 204.949219 L 133.285156 205.128906 L 133.496094 205.304688 L 133.921875 205.652344 L 134.765625 206.335938 L 136.457031 207.636719 L 136.570312 207.71875 L 136.6875 207.804688 L 136.914062 207.972656 L 137.375 208.304688 L 138.289062 208.949219 L 140.125 210.15625 L 140.238281 210.230469 L 140.351562 210.300781 L 140.582031 210.441406 L 141.039062 210.722656 L 141.957031 211.261719 L 143.792969 212.261719 L 144.003906 212.371094 L 144.21875 212.480469 L 144.648438 212.691406 L 145.503906 213.097656 L 145.609375 213.148438 L 145.71875 213.195312 L 145.929688 213.292969 L 146.359375 213.480469 L 147.214844 213.839844 L 147.320312 213.882812 L 147.429688 213.925781 L 147.644531 214.011719 L 148.070312 214.175781 L 148.925781 214.488281 L 149.035156 214.527344 L 149.140625 214.5625 L 149.355469 214.636719 L 149.78125 214.777344 L 150.636719 215.042969 L 150.742188 215.074219 L 150.847656 215.101562 L 151.058594 215.164062 L 151.476562 215.277344 L 151.898438 215.386719 L 152.316406 215.492188 L 152.527344 215.539062 L 152.734375 215.589844 L 153.15625 215.679688 L 153.996094 215.847656 L 154.101562 215.867188 L 154.203125 215.886719 L 154.414062 215.921875 L 154.832031 215.992188 L 155.253906 216.054688 L 155.671875 216.113281 L 155.777344 216.125 L 155.882812 216.140625 L 156.199219 216.175781 L 156.300781 216.1875 L 156.511719 216.210938 L 156.617188 216.21875 L 156.722656 216.230469 L 156.929688 216.25 L 157.035156 216.257812 L 157.140625 216.269531 L 157.351562 216.285156 L 157.691406 216.308594 L 157.804688 216.3125 L 157.921875 216.320312 L 158.035156 216.328125 L 158.261719 216.339844 L 158.714844 216.355469 L 158.832031 216.359375 L 158.945312 216.359375 L 159.058594 216.363281 L 159.171875 216.363281 L 159.285156 216.367188 L 159.96875 216.367188 L 160.082031 216.363281 L 160.195312 216.363281 L 160.421875 216.355469 L 160.539062 216.351562 L 161.105469 216.332031 L 161.21875 216.324219 L 161.335938 216.316406 L 161.449219 216.3125 L 161.902344 216.28125 L 162.015625 216.269531 L 162.128906 216.261719 L 162.359375 216.242188 L 162.925781 216.183594 L 163.042969 216.171875 L 163.269531 216.144531 L 163.722656 216.085938 L 163.835938 216.070312 L 163.953125 216.054688 L 164.632812 215.949219 L 164.742188 215.929688 L 164.847656 215.914062 L 165.058594 215.875 L 165.484375 215.796875 L 165.589844 215.773438 L 165.695312 215.753906 L 165.910156 215.710938 L 166.332031 215.617188 L 166.441406 215.59375 L 166.546875 215.570312 L 166.757812 215.519531 L 167.183594 215.417969 L 168.03125 215.195312 L 168.136719 215.164062 L 168.246094 215.132812 L 168.457031 215.074219 L 168.882812 214.945312 L 169.730469 214.675781 L 171.429688 214.0625 L 171.546875 214.015625 L 171.660156 213.96875 L 171.890625 213.878906 L 172.351562 213.6875 L 173.273438 213.289062 L 175.113281 212.410156 L 175.226562 212.351562 L 175.34375 212.292969 L 175.574219 212.175781 L 176.035156 211.933594 L 176.953125 211.425781 L 178.796875 210.332031 L 179.023438 210.191406 L 179.25 210.046875 L 179.699219 209.757812 L 180.605469 209.15625 L 182.414062 207.878906 L 186.027344 205.03125 L 186.238281 204.851562 L 186.449219 204.675781 L 186.871094 204.3125 L 187.714844 203.570312 L 189.402344 202.027344 L 192.773438 198.703125 L 193 198.46875 L 193.230469 198.230469 L 193.6875 197.75 L 194.601562 196.769531 L 196.429688 194.75 L 200.085938 190.445312 L 206.914062 181.554688 L 214.3125 170.785156 L 221.578125 159.257812 L 228.351562 147.820312 L 235.699219 134.886719 L 242.558594 122.503906 L 249.285156 110.273438 L 256.578125 97.109375 L 263.386719 85.121094 L 270.765625 72.675781 L 278.007812 61.214844 L 284.765625 51.378906 L 292.09375 41.824219 L 292.199219 41.695312 L 292.308594 41.566406 L 292.519531 41.308594 L 292.949219 40.792969 L 293.804688 39.78125 L 295.511719 37.808594 L 298.933594 34.09375 L 299.039062 33.984375 L 299.140625 33.875 L 299.351562 33.660156 L 299.769531 33.230469 L 300.609375 32.386719 L 302.285156 30.757812 L 302.496094 30.5625 L 302.703125 30.363281 L 303.125 29.976562 L 303.960938 29.210938 L 305.636719 27.742188 L 305.75 27.648438 L 305.867188 27.550781 L 306.09375 27.359375 L 306.546875 26.980469 L 307.457031 26.242188 L 309.277344 24.84375 L 309.390625 24.757812 L 309.503906 24.675781 L 309.730469 24.507812 L 310.183594 24.179688 L 311.09375 23.542969 L 312.914062 22.34375 L 313.335938 22.078125 L 313.761719 21.816406 L 314.609375 21.316406 L 316.308594 20.378906 L 316.730469 20.160156 L 317.15625 19.945312 L 318.003906 19.535156 L 319.703125 18.78125 L 319.816406 18.734375 L 319.933594 18.6875 L 320.160156 18.59375 L 320.621094 18.410156 L 321.542969 18.070312 L 321.65625 18.027344 L 321.773438 17.988281 L 322 17.910156 L 322.460938 17.753906 L 323.382812 17.46875 L 323.609375 17.398438 L 323.839844 17.335938 L 324.300781 17.207031 L 324.417969 17.175781 L 324.53125 17.148438 L 324.761719 17.089844 L 325.222656 16.976562 L 325.449219 16.921875 L 325.679688 16.871094 L 326.140625 16.773438 L 327.0625 16.597656 L 327.167969 16.578125 L 327.277344 16.558594 L 327.492188 16.523438 L 327.917969 16.457031 L 328.027344 16.441406 L 328.132812 16.425781 L 328.347656 16.394531 L 328.777344 16.339844 L 328.886719 16.328125 L 328.992188 16.316406 L 329.207031 16.292969 L 329.316406 16.28125 L 329.421875 16.269531 L 329.636719 16.25 L 329.746094 16.242188 L 329.851562 16.230469 L 330.066406 16.214844 L 330.175781 16.207031 L 330.28125 16.199219 L 330.496094 16.183594 L 330.605469 16.179688 L 330.710938 16.171875 L 330.820312 16.164062 L 330.925781 16.160156 L 331.035156 16.15625 L 331.140625 16.152344 L 331.25 16.148438 L 331.460938 16.140625 L 331.570312 16.136719 L 331.675781 16.132812 L 331.785156 16.128906 L 332 16.128906 L 332.105469 16.125 L 332.75 16.125 L 332.859375 16.128906 L 332.964844 16.128906 L 333.074219 16.132812 L 333.179688 16.132812 L 333.289062 16.136719 L 333.394531 16.140625 L 333.503906 16.144531 L 333.609375 16.148438 L 333.71875 16.152344 L 333.933594 16.164062 L 334.039062 16.167969 L 334.144531 16.175781 L 334.351562 16.1875 L 334.984375 16.234375 L 335.195312 16.253906 L 335.617188 16.296875 L 336.039062 16.34375 L 336.457031 16.398438 L 336.5625 16.410156 L 336.878906 16.457031 L 337.300781 16.523438 L 337.511719 16.554688 L 337.722656 16.59375 L 338.144531 16.667969 L 338.25 16.691406 L 338.351562 16.710938 L 338.984375 16.839844 L 339.195312 16.886719 L 339.40625 16.9375 L 339.828125 17.035156 L 340.667969 17.253906 L 340.785156 17.285156 L 340.898438 17.316406 L 341.125 17.382812 L 341.582031 17.515625 L 342.496094 17.804688 L 342.722656 17.882812 L 342.953125 17.960938 L 343.410156 18.125 L 344.324219 18.46875 L 344.4375 18.511719 L 344.550781 18.558594 L 344.78125 18.648438 L 345.238281 18.839844 L 346.148438 19.238281 L 347.976562 20.113281 L 348.082031 20.167969 L 348.191406 20.222656 L 348.402344 20.332031 L 348.828125 20.558594 L 349.683594 21.027344 L 351.386719 22.03125 L 351.492188 22.097656 L 351.601562 22.164062 L 351.8125 22.296875 L 352.238281 22.566406 L 353.089844 23.125 L 354.796875 24.3125 L 354.914062 24.394531 L 355.027344 24.476562 L 355.257812 24.648438 L 355.71875 24.988281 L 356.644531 25.695312 L 358.492188 27.179688 L 362.1875 30.449219 L 362.300781 30.558594 L 362.414062 30.664062 L 362.640625 30.878906 L 363.09375 31.3125 L 364 32.199219 L 365.816406 34.039062 L 369.445312 37.984375 L 376.210938 46.242188 L 383.550781 56.386719 L 390.402344 66.824219 L 397.121094 77.796875 L 404.410156 90.347656 L 411.207031 102.472656 L 411.328125 102.6875 L 411.445312 102.898438 L 411.683594 103.328125 L 412.15625 104.183594 L 413.105469 105.902344 L 415.003906 109.34375 L 415.121094 109.558594 L 415.242188 109.773438 L 415.480469 110.203125 L 415.953125 111.066406 L 416.902344 112.792969 L 417.019531 113.007812 L 417.140625 113.222656 L 417.375 113.65625 L 417.851562 114.519531 L 417.96875 114.734375 L 418.089844 114.949219 L 418.324219 115.382812 L 418.445312 115.597656 L 418.5625 115.8125 L 418.679688 116.03125 L 418.800781 116.246094 " transform="matrix(1,0,0,1,-66,-5)"/>
<path style=" stroke:none;fill-rule:evenodd;fill:rgb(36.84082%,50.67749%,70.979309%);fill-opacity:0.2;" d="M 8 111.246094 C 8 111.035156 7.914062 110.832031 7.765625 110.679688 C 7.617188 110.53125 7.414062 110.445312 7.199219 110.445312 C 6.988281 110.445312 6.785156 110.53125 6.632812 110.679688 C 6.484375 110.832031 6.398438 111.035156 6.398438 111.246094 C 6.398438 111.457031 6.484375 111.660156 6.632812 111.8125 C 6.785156 111.960938 6.988281 112.046875 7.199219 112.046875 C 7.414062 112.046875 7.617188 111.960938 7.765625 111.8125 C 7.914062 111.660156 8 111.457031 8 111.246094 Z M 8 111.246094 "/>
<path style="fill:none;stroke-width:1.6;stroke-linecap:square;stroke-linejoin:miter;stroke:rgb(36.84082%,50.67749%,70.979309%);stroke-opacity:0.2;stroke-miterlimit:3.25;" d="M 142.320312 211.46875 L 142.320312 116.246094 " transform="matrix(1,0,0,1,-66,-5)"/>
<path style="fill:none;stroke-width:1.6;stroke-linecap:square;stroke-linejoin:miter;stroke:rgb(36.84082%,50.67749%,70.979309%);stroke-opacity:0.2;stroke-miterlimit:3.25;" d="M 211.441406 175.097656 L 211.441406 116.246094 " transform="matrix(1,0,0,1,-66,-5)"/>
<path style="fill:none;stroke-width:1.6;stroke-linecap:square;stroke-linejoin:miter;stroke:rgb(36.84082%,50.67749%,70.979309%);stroke-opacity:0.2;stroke-miterlimit:3.25;" d="M 418.800781 116.246094 L 418.800781 116.246094 " transform="matrix(1,0,0,1,-66,-5)"/>
<path style="fill:none;stroke-width:1.6;stroke-linecap:square;stroke-linejoin:miter;stroke:rgb(36.84082%,50.67749%,70.979309%);stroke-opacity:0.2;stroke-miterlimit:3.25;" d="M 280.558594 57.394531 L 280.558594 116.246094 " transform="matrix(1,0,0,1,-66,-5)"/>
<path style="fill:none;stroke-width:1.6;stroke-linecap:square;stroke-linejoin:miter;stroke:rgb(36.84082%,50.67749%,70.979309%);stroke-opacity:0.2;stroke-miterlimit:3.25;" d="M 349.679688 21.023438 L 349.679688 116.246094 " transform="matrix(1,0,0,1,-66,-5)"/>
<path style=" stroke:none;fill-rule:evenodd;fill:rgb(36.84082%,50.67749%,70.979309%);fill-opacity:1;" d="M 9.511719 111.246094 C 9.511719 110.632812 9.265625 110.046875 8.832031 109.613281 C 8.398438 109.179688 7.8125 108.9375 7.199219 108.9375 C 6.585938 108.9375 6 109.179688 5.566406 109.613281 C 5.132812 110.046875 4.890625 110.632812 4.890625 111.246094 C 4.890625 111.859375 5.132812 112.445312 5.566406 112.878906 C 6 113.3125 6.585938 113.554688 7.199219 113.554688 C 7.8125 113.554688 8.398438 113.3125 8.832031 112.878906 C 9.265625 112.445312 9.511719 111.859375 9.511719 111.246094 Z M 9.511719 111.246094 "/>
<path style=" stroke:none;fill-rule:evenodd;fill:rgb(36.84082%,50.67749%,70.979309%);fill-opacity:1;" d="M 78.628906 206.46875 C 78.628906 205.855469 78.386719 205.265625 77.953125 204.832031 C 77.519531 204.402344 76.933594 204.15625 76.320312 204.15625 C 75.707031 204.15625 75.121094 204.402344 74.6875 204.832031 C 74.253906 205.265625 74.011719 205.855469 74.011719 206.46875 C 74.011719 207.078125 74.253906 207.667969 74.6875 208.101562 C 75.121094 208.535156 75.707031 208.777344 76.320312 208.777344 C 76.933594 208.777344 77.519531 208.535156 77.953125 208.101562 C 78.386719 207.667969 78.628906 207.078125 78.628906 206.46875 Z M 78.628906 206.46875 "/>
<path style=" stroke:none;fill-rule:evenodd;fill:rgb(36.84082%,50.67749%,70.979309%);fill-opacity:1;" d="M 147.75 170.097656 C 147.75 169.484375 147.507812 168.894531 147.074219 168.460938 C 146.640625 168.03125 146.050781 167.785156 145.441406 167.785156 C 144.828125 167.785156 144.238281 168.03125 143.804688 168.460938 C 143.375 168.894531 143.128906 169.484375 143.128906 170.097656 C 143.128906 170.707031 143.375 171.296875 143.804688 171.730469 C 144.238281 172.164062 144.828125 172.40625 145.441406 172.40625 C 146.050781 172.40625 146.640625 172.164062 147.074219 171.730469 C 147.507812 171.296875 147.75 170.707031 147.75 170.097656 Z M 147.75 170.097656 "/>
<path style=" stroke:none;fill-rule:evenodd;fill:rgb(36.84082%,50.67749%,70.979309%);fill-opacity:1;" d="M 216.871094 52.394531 C 216.871094 51.785156 216.625 51.195312 216.195312 50.761719 C 215.761719 50.328125 215.171875 50.085938 214.558594 50.085938 C 213.949219 50.085938 213.359375 50.328125 212.925781 50.761719 C 212.492188 51.195312 212.25 51.785156 212.25 52.394531 C 212.25 53.007812 212.492188 53.597656 212.925781 54.03125 C 213.359375 54.460938 213.949219 54.707031 214.558594 54.707031 C 215.171875 54.707031 215.761719 54.460938 216.195312 54.03125 C 216.625 53.597656 216.871094 53.007812 216.871094 52.394531 Z M 216.871094 52.394531 "/>
<path style=" stroke:none;fill-rule:evenodd;fill:rgb(36.84082%,50.67749%,70.979309%);fill-opacity:1;" d="M 285.988281 16.023438 C 285.988281 15.414062 285.746094 14.824219 285.3125 14.390625 C 284.878906 13.957031 284.292969 13.714844 283.679688 13.714844 C 283.066406 13.714844 282.480469 13.957031 282.046875 14.390625 C 281.613281 14.824219 281.371094 15.414062 281.371094 16.023438 C 281.371094 16.636719 281.613281 17.226562 282.046875 17.660156 C 282.480469 18.089844 283.066406 18.335938 283.679688 18.335938 C 284.292969 18.335938 284.878906 18.089844 285.3125 17.660156 C 285.746094 17.226562 285.988281 16.636719 285.988281 16.023438 Z M 285.988281 16.023438 "/>
<path style=" stroke:none;fill-rule:evenodd;fill:rgb(36.84082%,50.67749%,70.979309%);fill-opacity:1;" d="M 355.109375 111.246094 C 355.109375 110.632812 354.867188 110.046875 354.433594 109.613281 C 354 109.179688 353.414062 108.9375 352.800781 108.9375 C 352.1875 108.9375 351.601562 109.179688 351.167969 109.613281 C 350.734375 110.046875 350.488281 110.632812 350.488281 111.246094 C 350.488281 111.859375 350.734375 112.445312 351.167969 112.878906 C 351.601562 113.3125 352.1875 113.554688 352.800781 113.554688 C 353.414062 113.554688 354 113.3125 354.433594 112.878906 C 354.867188 112.445312 355.109375 111.859375 355.109375 111.246094 Z M 355.109375 111.246094 "/>
</g>
</svg>
