<svg xmlns="http://www.w3.org/2000/svg" xmlns:xlink="http://www.w3.org/1999/xlink" width="480" height="223pt" version="1.1" viewBox="0 0 360 223"><g id="surface32"><path style="fill:none;stroke-width:1.6;stroke-linecap:square;stroke-linejoin:miter;stroke:#5e81b5;stroke-opacity:1;stroke-miterlimit:3.25" d="M 73.199219 67.304688 L 73.304688 66.949219 L 73.410156 66.609375 L 73.625 65.949219 L 73.730469 65.632812 L 73.835938 65.324219 L 74.046875 64.738281 L 74.152344 64.457031 L 74.261719 64.1875 L 74.472656 63.671875 L 74.894531 62.742188 L 75 62.53125 L 75.109375 62.332031 L 75.320312 61.953125 L 75.425781 61.777344 L 75.53125 61.609375 L 75.742188 61.300781 L 75.851562 61.15625 L 75.957031 61.023438 L 76.0625 60.898438 L 76.167969 60.777344 L 76.273438 60.667969 L 76.378906 60.566406 L 76.484375 60.472656 L 76.59375 60.386719 L 76.699219 60.308594 L 76.804688 60.238281 L 76.910156 60.171875 L 77.015625 60.117188 L 77.121094 60.070312 L 77.226562 60.027344 L 77.332031 59.996094 L 77.441406 59.96875 L 77.546875 59.949219 L 77.652344 59.9375 L 77.757812 59.933594 L 77.863281 59.9375 L 77.96875 59.945312 L 78.074219 59.960938 L 78.183594 59.984375 L 78.289062 60.015625 L 78.394531 60.050781 L 78.5 60.089844 L 78.605469 60.140625 L 78.710938 60.195312 L 78.816406 60.257812 L 78.921875 60.324219 L 79.136719 60.476562 L 79.242188 60.558594 L 79.347656 60.652344 L 79.558594 60.847656 L 79.664062 60.957031 L 79.773438 61.066406 L 79.984375 61.308594 L 80.097656 61.445312 L 80.214844 61.589844 L 80.441406 61.894531 L 80.902344 62.570312 L 81.019531 62.75 L 81.132812 62.9375 L 81.363281 63.320312 L 81.820312 64.140625 L 81.9375 64.355469 L 82.050781 64.574219 L 82.28125 65.023438 L 82.742188 65.953125 L 83.660156 67.9375 L 83.777344 68.195312 L 83.890625 68.453125 L 84.121094 68.972656 L 84.582031 70.027344 L 85.5 72.160156 L 87.339844 76.320312 L 87.550781 76.78125 L 87.765625 77.234375 L 88.195312 78.125 L 89.054688 79.792969 L 89.160156 79.992188 L 89.269531 80.1875 L 89.484375 80.570312 L 89.914062 81.304688 L 90.769531 82.640625 L 90.878906 82.792969 L 90.984375 82.945312 L 91.199219 83.234375 L 91.628906 83.78125 L 91.738281 83.910156 L 91.84375 84.035156 L 92.058594 84.277344 L 92.488281 84.722656 L 92.59375 84.828125 L 92.703125 84.929688 L 92.917969 85.121094 L 93.023438 85.210938 L 93.132812 85.300781 L 93.347656 85.46875 L 93.453125 85.546875 L 93.5625 85.625 L 93.777344 85.769531 L 93.882812 85.835938 L 93.992188 85.898438 L 94.203125 86.019531 L 94.308594 86.074219 L 94.519531 86.175781 L 94.625 86.222656 L 94.835938 86.308594 L 95.046875 86.382812 L 95.363281 86.476562 L 95.574219 86.523438 L 95.675781 86.546875 L 95.78125 86.566406 L 95.992188 86.597656 L 96.097656 86.609375 L 96.203125 86.617188 L 96.308594 86.628906 L 96.625 86.640625 L 96.730469 86.636719 L 96.835938 86.636719 L 96.941406 86.632812 L 97.046875 86.625 L 97.148438 86.621094 L 97.464844 86.585938 L 97.78125 86.539062 L 97.992188 86.5 L 98.414062 86.40625 L 98.519531 86.378906 L 98.621094 86.351562 L 98.832031 86.289062 L 99.253906 86.160156 L 99.675781 86.019531 L 100.09375 85.863281 L 100.9375 85.542969 L 101.050781 85.496094 L 101.164062 85.453125 L 101.394531 85.363281 L 101.851562 85.1875 L 102.304688 85.015625 L 102.761719 84.851562 L 102.875 84.8125 L 102.992188 84.773438 L 103.21875 84.699219 L 103.332031 84.664062 L 103.449219 84.628906 L 103.675781 84.5625 L 103.902344 84.5 L 104.132812 84.4375 L 104.359375 84.382812 L 104.589844 84.332031 L 104.703125 84.308594 L 104.816406 84.289062 L 104.929688 84.265625 L 105.042969 84.246094 L 105.160156 84.226562 L 105.5 84.179688 L 105.617188 84.167969 L 105.957031 84.132812 L 106.070312 84.125 L 106.1875 84.117188 L 106.527344 84.105469 L 106.984375 84.105469 L 107.097656 84.109375 L 107.214844 84.113281 L 107.328125 84.121094 L 107.441406 84.125 L 107.554688 84.136719 L 107.667969 84.144531 L 107.785156 84.15625 L 108.011719 84.179688 L 108.238281 84.207031 L 108.347656 84.222656 L 108.664062 84.269531 L 108.773438 84.289062 L 109.089844 84.347656 L 109.199219 84.367188 L 109.304688 84.390625 L 109.519531 84.433594 L 109.945312 84.527344 L 110.050781 84.554688 L 110.15625 84.578125 L 110.371094 84.628906 L 110.796875 84.730469 L 111.648438 84.929688 L 111.753906 84.957031 L 111.859375 84.980469 L 112.074219 85.023438 L 112.179688 85.042969 L 112.285156 85.066406 L 112.5 85.105469 L 112.605469 85.121094 L 112.710938 85.140625 L 112.820312 85.15625 L 112.925781 85.171875 L 113.03125 85.183594 L 113.136719 85.199219 L 113.246094 85.210938 L 113.351562 85.21875 L 113.457031 85.230469 L 113.5625 85.234375 L 113.671875 85.242188 L 113.882812 85.25 L 114.097656 85.25 L 114.308594 85.242188 L 114.417969 85.238281 L 114.523438 85.226562 L 114.628906 85.21875 L 114.734375 85.207031 L 114.84375 85.191406 L 115.054688 85.152344 L 115.171875 85.128906 L 115.285156 85.105469 L 115.402344 85.074219 L 115.515625 85.042969 L 115.632812 85.007812 L 115.746094 84.96875 L 115.980469 84.878906 L 116.09375 84.832031 L 116.210938 84.777344 L 116.324219 84.722656 L 116.441406 84.664062 L 116.554688 84.601562 L 116.671875 84.53125 L 116.902344 84.386719 L 117.015625 84.308594 L 117.132812 84.226562 L 117.363281 84.046875 L 117.480469 83.953125 L 117.59375 83.851562 L 117.824219 83.636719 L 117.941406 83.523438 L 118.054688 83.40625 L 118.285156 83.15625 L 118.75 82.601562 L 118.863281 82.449219 L 118.980469 82.292969 L 119.210938 81.964844 L 119.671875 81.246094 L 119.785156 81.050781 L 119.902344 80.855469 L 120.132812 80.441406 L 120.59375 79.550781 L 120.710938 79.316406 L 120.824219 79.074219 L 121.054688 78.574219 L 121.519531 77.503906 L 122.441406 75.101562 L 122.554688 74.78125 L 122.667969 74.457031 L 122.894531 73.789062 L 123.347656 72.394531 L 124.253906 69.359375 L 124.367188 68.960938 L 124.480469 68.554688 L 124.707031 67.726562 L 125.160156 66.019531 L 126.066406 62.402344 L 126.179688 61.933594 L 126.292969 61.457031 L 126.519531 60.5 L 126.972656 58.546875 L 127.878906 54.507812 L 129.691406 46.097656 L 129.902344 45.105469 L 130.117188 44.113281 L 130.539062 42.140625 L 131.382812 38.246094 L 131.59375 37.292969 L 131.804688 36.34375 L 132.230469 34.476562 L 133.074219 30.894531 L 133.285156 30.035156 L 133.496094 29.195312 L 133.921875 27.5625 L 134.027344 27.167969 L 134.132812 26.777344 L 134.34375 26.011719 L 134.765625 24.546875 L 134.871094 24.195312 L 134.976562 23.851562 L 135.1875 23.175781 L 135.609375 21.90625 L 135.71875 21.605469 L 135.824219 21.3125 L 136.035156 20.746094 L 136.457031 19.703125 L 136.570312 19.4375 L 136.6875 19.183594 L 136.914062 18.707031 L 137.03125 18.480469 L 137.144531 18.265625 L 137.375 17.863281 L 137.488281 17.675781 L 137.601562 17.5 L 137.71875 17.332031 L 137.832031 17.175781 L 137.945312 17.03125 L 138.0625 16.894531 L 138.175781 16.773438 L 138.289062 16.65625 L 138.40625 16.554688 L 138.519531 16.460938 L 138.632812 16.382812 L 138.75 16.3125 L 138.863281 16.25 L 138.976562 16.203125 L 139.09375 16.167969 L 139.207031 16.140625 L 139.320312 16.128906 L 139.4375 16.125 L 139.550781 16.132812 L 139.664062 16.15625 L 139.78125 16.1875 L 139.894531 16.230469 L 140.007812 16.285156 L 140.125 16.355469 L 140.238281 16.433594 L 140.351562 16.527344 L 140.46875 16.628906 L 140.582031 16.746094 L 140.695312 16.871094 L 140.8125 17.011719 L 141.039062 17.328125 L 141.15625 17.503906 L 141.269531 17.695312 L 141.5 18.109375 L 141.613281 18.335938 L 141.726562 18.570312 L 141.957031 19.085938 L 142.074219 19.359375 L 142.1875 19.648438 L 142.417969 20.257812 L 142.53125 20.582031 L 142.644531 20.917969 L 142.875 21.628906 L 142.988281 22 L 143.105469 22.386719 L 143.332031 23.191406 L 143.792969 24.949219 L 143.898438 25.386719 L 144.003906 25.835938 L 144.21875 26.761719 L 144.648438 28.738281 L 144.753906 29.257812 L 144.859375 29.789062 L 145.074219 30.875 L 145.503906 33.167969 L 145.609375 33.761719 L 145.71875 34.367188 L 145.929688 35.609375 L 146.359375 38.195312 L 147.214844 43.78125 L 147.320312 44.515625 L 147.429688 45.257812 L 147.644531 46.765625 L 148.070312 49.871094 L 148.925781 56.402344 L 150.636719 70.527344 L 150.847656 72.332031 L 151.058594 74.152344 L 151.476562 77.820312 L 152.316406 85.261719 L 153.996094 100.273438 L 154.101562 101.207031 L 154.203125 102.136719 L 154.414062 103.996094 L 154.832031 107.691406 L 155.671875 114.953125 L 157.351562 128.730469 L 157.464844 129.621094 L 157.578125 130.503906 L 157.804688 132.246094 L 158.261719 135.648438 L 159.171875 142.082031 L 159.285156 142.851562 L 159.398438 143.609375 L 159.628906 145.101562 L 160.082031 147.976562 L 160.992188 153.277344 L 161.105469 153.898438 L 161.21875 154.507812 L 161.449219 155.699219 L 161.902344 157.957031 L 162.015625 158.496094 L 162.128906 159.023438 L 162.359375 160.050781 L 162.8125 161.980469 L 162.925781 162.4375 L 163.042969 162.882812 L 163.269531 163.746094 L 163.722656 165.34375 L 163.835938 165.714844 L 163.953125 166.078125 L 164.179688 166.773438 L 164.632812 168.039062 L 164.742188 168.3125 L 164.847656 168.574219 L 165.058594 169.074219 L 165.164062 169.3125 L 165.269531 169.539062 L 165.484375 169.96875 L 165.589844 170.167969 L 165.695312 170.363281 L 165.910156 170.722656 L 166.015625 170.890625 L 166.121094 171.050781 L 166.332031 171.34375 L 166.441406 171.476562 L 166.546875 171.601562 L 166.652344 171.71875 L 166.757812 171.832031 L 166.863281 171.933594 L 166.96875 172.027344 L 167.078125 172.113281 L 167.183594 172.191406 L 167.289062 172.261719 L 167.394531 172.324219 L 167.5 172.378906 L 167.609375 172.425781 L 167.714844 172.464844 L 167.820312 172.5 L 167.925781 172.523438 L 168.03125 172.542969 L 168.136719 172.554688 L 168.246094 172.558594 L 168.351562 172.554688 L 168.457031 172.546875 L 168.5625 172.527344 L 168.667969 172.503906 L 168.777344 172.476562 L 168.882812 172.4375 L 168.988281 172.394531 L 169.09375 172.347656 L 169.199219 172.292969 L 169.304688 172.230469 L 169.414062 172.160156 L 169.519531 172.085938 L 169.730469 171.921875 L 169.835938 171.832031 L 169.945312 171.734375 L 170.15625 171.523438 L 170.261719 171.410156 L 170.367188 171.292969 L 170.582031 171.039062 L 170.6875 170.90625 L 170.792969 170.769531 L 171.003906 170.480469 L 171.429688 169.84375 L 171.546875 169.660156 L 171.660156 169.472656 L 171.890625 169.085938 L 172.351562 168.257812 L 173.273438 166.429688 L 173.5 165.945312 L 173.730469 165.449219 L 174.191406 164.433594 L 175.113281 162.335938 L 175.226562 162.070312 L 175.34375 161.804688 L 175.574219 161.269531 L 176.035156 160.203125 L 176.953125 158.085938 L 178.796875 154.121094 L 178.910156 153.894531 L 179.023438 153.671875 L 179.25 153.234375 L 179.699219 152.390625 L 179.8125 152.183594 L 179.925781 151.984375 L 180.152344 151.589844 L 180.605469 150.835938 L 180.71875 150.65625 L 180.832031 150.480469 L 181.054688 150.136719 L 181.507812 149.488281 L 181.621094 149.332031 L 181.734375 149.183594 L 181.960938 148.894531 L 182.414062 148.351562 L 182.523438 148.226562 L 182.636719 148.105469 L 182.863281 147.867188 L 183.089844 147.648438 L 183.316406 147.441406 L 183.429688 147.339844 L 183.542969 147.246094 L 183.769531 147.066406 L 183.882812 146.980469 L 183.996094 146.898438 L 184.21875 146.746094 L 184.445312 146.605469 L 184.671875 146.476562 L 184.785156 146.417969 L 184.898438 146.363281 L 185.125 146.261719 L 185.238281 146.214844 L 185.351562 146.171875 L 185.578125 146.09375 L 185.6875 146.058594 L 185.800781 146.027344 L 186.027344 145.972656 L 186.132812 145.949219 L 186.238281 145.929688 L 186.449219 145.898438 L 186.660156 145.875 L 186.871094 145.859375 L 186.976562 145.855469 L 187.292969 145.855469 L 187.503906 145.863281 L 187.714844 145.878906 L 187.925781 145.902344 L 188.242188 145.949219 L 188.347656 145.96875 L 188.558594 146.011719 L 188.769531 146.058594 L 188.980469 146.109375 L 189.402344 146.226562 L 189.503906 146.261719 L 189.609375 146.292969 L 189.820312 146.359375 L 190.242188 146.507812 L 191.085938 146.824219 L 191.191406 146.863281 L 191.296875 146.90625 L 191.929688 147.152344 L 192.773438 147.472656 L 192.886719 147.515625 L 193 147.554688 L 193.230469 147.636719 L 193.6875 147.789062 L 193.914062 147.859375 L 194.144531 147.929688 L 194.601562 148.050781 L 194.828125 148.105469 L 195.058594 148.15625 L 195.285156 148.203125 L 195.515625 148.246094 L 195.628906 148.261719 L 195.746094 148.28125 L 195.972656 148.3125 L 196.085938 148.324219 L 196.203125 148.335938 L 196.429688 148.359375 L 196.542969 148.367188 L 196.660156 148.375 L 197 148.386719 L 197.117188 148.386719 L 197.230469 148.390625 L 197.34375 148.386719 L 197.457031 148.386719 L 197.574219 148.382812 L 197.6875 148.378906 L 197.800781 148.371094 L 197.914062 148.367188 L 198.03125 148.359375 L 198.257812 148.335938 L 198.375 148.328125 L 198.488281 148.3125 L 198.601562 148.300781 L 198.714844 148.285156 L 198.832031 148.269531 L 198.945312 148.253906 L 199.171875 148.214844 L 199.289062 148.195312 L 199.402344 148.175781 L 199.628906 148.132812 L 200.085938 148.039062 L 200.195312 148.015625 L 200.300781 147.992188 L 200.515625 147.941406 L 200.941406 147.84375 L 201.046875 147.816406 L 201.15625 147.789062 L 201.367188 147.738281 L 201.792969 147.636719 L 201.902344 147.613281 L 202.007812 147.585938 L 202.222656 147.539062 L 202.433594 147.492188 L 202.648438 147.449219 L 202.859375 147.410156 L 203.074219 147.371094 L 203.179688 147.355469 L 203.289062 147.335938 L 203.5 147.308594 L 203.609375 147.296875 L 203.820312 147.273438 L 203.929688 147.265625 L 204.140625 147.25 L 204.25 147.246094 L 204.355469 147.242188 L 204.566406 147.242188 L 204.675781 147.246094 L 204.886719 147.253906 L 204.996094 147.265625 L 205.101562 147.273438 L 205.207031 147.285156 L 205.316406 147.300781 L 205.421875 147.316406 L 205.527344 147.335938 L 205.636719 147.359375 L 205.742188 147.382812 L 205.953125 147.4375 L 206.0625 147.46875 L 206.167969 147.503906 L 206.273438 147.542969 L 206.382812 147.582031 L 206.488281 147.625 L 206.59375 147.671875 L 206.703125 147.71875 L 206.914062 147.828125 L 207.03125 147.890625 L 207.144531 147.957031 L 207.378906 148.105469 L 207.492188 148.183594 L 207.609375 148.265625 L 207.839844 148.445312 L 207.957031 148.539062 L 208.070312 148.640625 L 208.300781 148.851562 L 208.765625 149.335938 L 208.878906 149.46875 L 208.996094 149.605469 L 209.226562 149.894531 L 209.34375 150.042969 L 209.457031 150.203125 L 209.691406 150.53125 L 209.804688 150.703125 L 209.921875 150.878906 L 210.152344 151.25 L 210.613281 152.054688 L 210.730469 152.269531 L 210.84375 152.492188 L 211.078125 152.949219 L 211.539062 153.929688 L 211.65625 154.1875 L 211.769531 154.453125 L 212 155 L 212.464844 156.160156 L 212.578125 156.464844 L 212.695312 156.773438 L 212.925781 157.410156 L 213.386719 158.75 L 214.3125 161.691406 L 214.425781 162.074219 L 214.539062 162.464844 L 214.765625 163.257812 L 215.222656 164.898438 L 216.128906 168.398438 L 217.945312 176.125 L 218.058594 176.632812 L 218.171875 177.144531 L 218.398438 178.171875 L 218.851562 180.253906 L 219.761719 184.476562 L 221.578125 192.945312 L 221.789062 193.914062 L 222 194.875 L 222.425781 196.769531 L 223.269531 200.429688 L 223.375 200.871094 L 223.484375 201.308594 L 223.695312 202.175781 L 224.117188 203.855469 L 224.964844 206.988281 L 225.070312 207.355469 L 225.175781 207.71875 L 225.386719 208.425781 L 225.8125 209.765625 L 225.917969 210.082031 L 226.023438 210.394531 L 226.234375 211 L 226.660156 212.121094 L 226.765625 212.386719 L 226.871094 212.640625 L 227.082031 213.128906 L 227.1875 213.359375 L 227.292969 213.585938 L 227.507812 214.007812 L 227.613281 214.207031 L 227.71875 214.398438 L 227.929688 214.757812 L 228.035156 214.925781 L 228.140625 215.082031 L 228.351562 215.371094 L 228.46875 215.511719 L 228.582031 215.644531 L 228.699219 215.765625 L 228.8125 215.875 L 228.925781 215.972656 L 229.042969 216.0625 L 229.15625 216.140625 L 229.269531 216.207031 L 229.386719 216.261719 L 229.5 216.304688 L 229.617188 216.335938 L 229.730469 216.359375 L 229.84375 216.367188 L 229.960938 216.367188 L 230.074219 216.351562 L 230.191406 216.328125 L 230.304688 216.289062 L 230.417969 216.242188 L 230.535156 216.179688 L 230.648438 216.105469 L 230.765625 216.023438 L 230.878906 215.925781 L 230.992188 215.816406 L 231.109375 215.695312 L 231.222656 215.5625 L 231.335938 215.417969 L 231.453125 215.257812 L 231.566406 215.089844 L 231.683594 214.90625 L 231.796875 214.714844 L 232.027344 214.289062 L 232.140625 214.058594 L 232.257812 213.8125 L 232.484375 213.289062 L 232.601562 213.007812 L 232.714844 212.714844 L 232.945312 212.09375 L 233.058594 211.761719 L 233.175781 211.421875 L 233.402344 210.699219 L 233.863281 209.109375 L 233.976562 208.683594 L 234.09375 208.242188 L 234.320312 207.328125 L 234.78125 205.351562 L 234.894531 204.828125 L 235.011719 204.296875 L 235.242188 203.191406 L 235.699219 200.847656 L 235.808594 200.277344 L 235.914062 199.695312 L 236.128906 198.5 L 236.558594 196.003906 L 237.414062 190.585938 L 237.523438 189.871094 L 237.628906 189.148438 L 237.84375 187.675781 L 238.273438 184.644531 L 239.128906 178.234375 L 239.238281 177.40625 L 239.34375 176.566406 L 239.558594 174.875 L 239.988281 171.425781 L 240.84375 164.289062 L 242.558594 149.328125 L 242.664062 148.394531 L 242.769531 147.457031 L 242.980469 145.578125 L 243.398438 141.816406 L 244.242188 134.292969 L 245.921875 119.503906 L 246.027344 118.601562 L 246.132812 117.703125 L 246.34375 115.917969 L 246.761719 112.390625 L 247.601562 105.546875 L 249.285156 92.933594 L 249.398438 92.136719 L 249.511719 91.351562 L 249.738281 89.800781 L 250.195312 86.808594 L 250.308594 86.082031 L 250.421875 85.363281 L 250.652344 83.957031 L 251.109375 81.253906 L 251.222656 80.601562 L 251.335938 79.960938 L 251.5625 78.707031 L 252.019531 76.316406 L 252.929688 72.023438 L 253.046875 71.53125 L 253.160156 71.054688 L 253.386719 70.125 L 253.84375 68.394531 L 253.957031 67.984375 L 254.070312 67.589844 L 254.300781 66.828125 L 254.753906 65.429688 L 254.871094 65.105469 L 254.984375 64.792969 L 255.210938 64.199219 L 255.324219 63.914062 L 255.4375 63.644531 L 255.667969 63.128906 L 255.78125 62.886719 L 255.894531 62.65625 L 256.125 62.222656 L 256.238281 62.019531 L 256.351562 61.828125 L 256.578125 61.472656 L 256.6875 61.320312 L 256.792969 61.175781 L 256.898438 61.039062 L 257.003906 60.910156 L 257.109375 60.792969 L 257.21875 60.679688 L 257.429688 60.480469 L 257.535156 60.394531 L 257.644531 60.316406 L 257.75 60.242188 L 257.855469 60.179688 L 257.960938 60.121094 L 258.070312 60.074219 L 258.175781 60.03125 L 258.28125 59.996094 L 258.386719 59.972656 L 258.492188 59.953125 L 258.601562 59.941406 L 258.707031 59.933594 L 258.8125 59.9375 L 258.917969 59.945312 L 259.027344 59.960938 L 259.132812 59.984375 L 259.238281 60.011719 L 259.34375 60.046875 L 259.453125 60.089844 L 259.558594 60.136719 L 259.664062 60.191406 L 259.769531 60.253906 L 259.875 60.320312 L 259.984375 60.394531 L 260.089844 60.472656 L 260.195312 60.558594 L 260.410156 60.746094 L 260.515625 60.847656 L 260.621094 60.957031 L 260.835938 61.1875 L 260.941406 61.308594 L 261.046875 61.4375 L 261.257812 61.707031 L 261.683594 62.304688 L 261.792969 62.464844 L 261.898438 62.632812 L 262.109375 62.972656 L 262.535156 63.703125 L 263.386719 65.320312 L 263.503906 65.554688 L 263.617188 65.789062 L 263.847656 66.269531 L 264.308594 67.261719 L 265.230469 69.328125 L 267.078125 73.59375 L 267.191406 73.859375 L 267.308594 74.121094 L 267.539062 74.644531 L 268 75.671875 L 268.921875 77.648438 L 269.035156 77.886719 L 269.152344 78.121094 L 269.382812 78.585938 L 269.84375 79.480469 L 270.765625 81.132812 L 270.878906 81.324219 L 270.992188 81.507812 L 271.21875 81.871094 L 271.671875 82.558594 L 271.785156 82.722656 L 271.898438 82.882812 L 272.125 83.191406 L 272.578125 83.769531 L 272.691406 83.90625 L 272.804688 84.039062 L 273.03125 84.292969 L 273.140625 84.417969 L 273.253906 84.535156 L 273.480469 84.761719 L 273.59375 84.871094 L 273.707031 84.976562 L 273.933594 85.175781 L 274.386719 85.53125 L 274.5 85.613281 L 274.613281 85.691406 L 274.839844 85.835938 L 275.066406 85.96875 L 275.292969 86.089844 L 275.40625 86.144531 L 275.519531 86.195312 L 275.746094 86.289062 L 275.859375 86.332031 L 275.972656 86.371094 L 276.199219 86.441406 L 276.3125 86.472656 L 276.539062 86.527344 L 276.652344 86.550781 L 276.765625 86.570312 L 276.992188 86.601562 L 277.21875 86.625 L 277.332031 86.632812 L 277.445312 86.636719 L 277.558594 86.636719 L 277.671875 86.640625 L 277.78125 86.636719 L 277.894531 86.632812 L 278.007812 86.625 L 278.21875 86.609375 L 278.328125 86.597656 L 278.433594 86.585938 L 278.644531 86.554688 L 279.066406 86.476562 L 279.277344 86.425781 L 279.382812 86.402344 L 279.488281 86.375 L 279.699219 86.316406 L 279.910156 86.253906 L 280.121094 86.1875 L 280.542969 86.046875 L 281.386719 85.738281 L 281.492188 85.699219 L 281.597656 85.65625 L 282.230469 85.410156 L 283.078125 85.082031 L 283.289062 85.003906 L 283.921875 84.78125 L 284.027344 84.75 L 284.132812 84.714844 L 284.34375 84.648438 L 284.765625 84.523438 L 284.878906 84.492188 L 284.996094 84.460938 L 285.222656 84.40625 L 285.339844 84.378906 L 285.453125 84.351562 L 285.683594 84.304688 L 285.796875 84.285156 L 285.910156 84.261719 L 286.023438 84.242188 L 286.140625 84.222656 L 286.367188 84.191406 L 286.484375 84.175781 L 286.710938 84.152344 L 286.828125 84.140625 L 287.054688 84.125 L 287.171875 84.117188 L 287.398438 84.109375 L 287.515625 84.105469 L 287.972656 84.105469 L 288.085938 84.109375 L 288.199219 84.117188 L 288.316406 84.121094 L 288.542969 84.136719 L 288.660156 84.148438 L 288.773438 84.15625 L 288.886719 84.171875 L 289.003906 84.183594 L 289.117188 84.195312 L 289.34375 84.226562 L 289.460938 84.246094 L 289.574219 84.261719 L 289.804688 84.300781 L 290.261719 84.390625 L 290.375 84.414062 L 290.492188 84.4375 L 290.71875 84.488281 L 291.175781 84.59375 L 292.09375 84.8125 L 292.199219 84.839844 L 292.308594 84.863281 L 292.519531 84.914062 L 292.628906 84.9375 L 292.734375 84.960938 L 292.949219 85.007812 L 293.054688 85.027344 L 293.160156 85.050781 L 293.375 85.089844 L 293.484375 85.109375 L 293.589844 85.128906 L 293.804688 85.160156 L 293.910156 85.175781 L 294.015625 85.1875 L 294.125 85.203125 L 294.230469 85.210938 L 294.335938 85.222656 L 294.445312 85.230469 L 294.550781 85.238281 L 294.65625 85.242188 L 294.765625 85.246094 L 294.871094 85.25 L 295.085938 85.25 L 295.191406 85.246094 L 295.300781 85.242188 L 295.511719 85.226562 L 295.621094 85.214844 L 295.832031 85.183594 L 295.941406 85.167969 L 296.046875 85.148438 L 296.152344 85.125 L 296.261719 85.097656 L 296.367188 85.070312 L 296.476562 85.042969 L 296.6875 84.972656 L 296.796875 84.933594 L 296.902344 84.894531 L 297.007812 84.847656 L 297.222656 84.75 L 297.328125 84.699219 L 297.4375 84.640625 L 297.652344 84.519531 L 297.757812 84.453125 L 297.863281 84.382812 L 298.078125 84.234375 L 298.183594 84.152344 L 298.292969 84.070312 L 298.503906 83.890625 L 298.933594 83.488281 L 299.039062 83.378906 L 299.140625 83.269531 L 299.351562 83.03125 L 299.769531 82.511719 L 299.875 82.375 L 299.980469 82.230469 L 300.191406 81.929688 L 300.609375 81.277344 L 300.714844 81.101562 L 300.820312 80.921875 L 301.027344 80.550781 L 301.449219 79.757812 L 301.550781 79.546875 L 301.65625 79.335938 L 301.867188 78.890625 L 302.285156 77.953125 L 302.390625 77.707031 L 302.496094 77.453125 L 302.703125 76.9375 L 303.125 75.851562 L 303.960938 73.457031 L 304.066406 73.136719 L 304.171875 72.8125 L 304.378906 72.148438 L 304.800781 70.773438 L 305.636719 67.820312 L 305.75 67.398438 L 305.867188 66.972656 L 306.09375 66.109375 L 306.546875 64.332031 L 307.457031 60.582031 L 309.277344 52.492188 L 309.503906 51.445312 L 309.730469 50.390625 L 310.183594 48.265625 L 311.09375 44.003906 L 312.914062 35.671875 L 313.019531 35.203125 L 313.125 34.738281 L 313.335938 33.8125 L 313.761719 32.007812 L 314.609375 28.578125 L 314.714844 28.167969 L 314.824219 27.765625 L 315.035156 26.972656 L 315.460938 25.445312 L 316.308594 22.675781 L 316.414062 22.355469 L 316.519531 22.042969 L 316.730469 21.441406 L 316.839844 21.152344 L 316.945312 20.867188 L 317.15625 20.320312 L 317.261719 20.058594 L 317.367188 19.804688 L 317.582031 19.320312 L 318.003906 18.445312 L 318.109375 18.246094 L 318.21875 18.054688 L 318.429688 17.699219 L 318.535156 17.535156 L 318.640625 17.378906 L 318.851562 17.09375 L 318.960938 16.964844 L 319.066406 16.84375 L 319.171875 16.730469 L 319.277344 16.628906 L 319.382812 16.535156 L 319.488281 16.453125 L 319.597656 16.378906 L 319.703125 16.3125 L 319.816406 16.253906 L 319.933594 16.203125 L 320.046875 16.167969 L 320.160156 16.140625 L 320.277344 16.128906 L 320.390625 16.125 L 320.507812 16.132812 L 320.621094 16.15625 L 320.738281 16.1875 L 320.851562 16.230469 L 320.964844 16.289062 L 321.082031 16.355469 L 321.195312 16.4375 L 321.3125 16.527344 L 321.425781 16.632812 L 321.542969 16.75 L 321.65625 16.878906 L 321.773438 17.019531 L 321.886719 17.171875 L 322 17.335938 L 322.117188 17.515625 L 322.230469 17.703125 L 322.460938 18.121094 L 322.578125 18.347656 L 322.691406 18.585938 L 322.921875 19.101562 L 323.035156 19.378906 L 323.152344 19.667969 L 323.382812 20.285156 L 323.496094 20.609375 L 323.609375 20.949219 L 323.839844 21.664062 L 324.300781 23.238281 L 324.417969 23.660156 L 324.53125 24.097656 L 324.761719 25.007812 L 325.222656 26.96875 L 325.335938 27.488281 L 325.449219 28.019531 L 325.679688 29.117188 L 326.140625 31.449219 L 327.0625 36.640625 L 327.167969 37.292969 L 327.277344 37.953125 L 327.492188 39.296875 L 327.917969 42.085938 L 328.777344 48.058594 L 330.496094 61.324219 L 330.605469 62.203125 L 330.710938 63.089844 L 330.925781 64.871094 L 331.355469 68.488281 L 332.214844 75.902344 L 333.933594 91.164062 L 334.039062 92.109375 L 334.144531 93.050781 L 334.351562 94.9375 L 334.773438 98.703125 L 335.617188 106.167969 L 337.300781 120.609375 L 337.40625 121.480469 L 337.511719 122.34375 L 337.722656 124.0625 L 338.144531 127.4375 L 338.984375 133.925781 L 339.089844 134.710938 L 339.195312 135.488281 L 339.40625 137.023438 L 339.828125 140.015625 L 340.667969 145.65625 L 340.785156 146.386719 L 340.898438 147.105469 L 341.125 148.515625 L 341.582031 151.222656 L 341.695312 151.875 L 341.8125 152.515625 L 342.039062 153.773438 L 342.496094 156.167969 L 342.609375 156.742188 L 342.722656 157.304688 L 342.953125 158.402344 L 343.410156 160.46875 L 343.523438 160.960938 L 343.636719 161.441406 L 343.867188 162.371094 L 344.324219 164.105469 L 344.4375 164.511719 L 344.550781 164.910156 L 344.78125 165.671875 L 344.894531 166.039062 L 345.007812 166.390625 L 345.238281 167.070312 L 345.351562 167.394531 L 345.464844 167.707031 L 345.691406 168.304688 L 346.148438 169.375 L 346.265625 169.613281 L 346.378906 169.847656 L 346.605469 170.28125 L 346.71875 170.484375 L 346.835938 170.675781 L 347.0625 171.03125 L 347.175781 171.191406 L 347.292969 171.34375 L 347.40625 171.488281 L 347.519531 171.625 L 347.632812 171.75 L 347.75 171.863281 L 347.863281 171.96875 L 347.976562 172.066406 L 348.082031 172.148438 L 348.191406 172.226562 L 348.296875 172.292969 L 348.402344 172.351562 L 348.507812 172.402344 L 348.617188 172.445312 L 348.722656 172.484375 L 348.828125 172.511719 L 348.9375 172.535156 L 349.042969 172.550781 L 349.148438 172.558594 L 349.253906 172.558594 L 349.363281 172.550781 L 349.46875 172.539062 L 349.574219 172.515625 L 349.683594 172.492188 L 349.789062 172.457031 L 349.894531 172.417969 L 350 172.371094 L 350.109375 172.316406 L 350.214844 172.257812 L 350.320312 172.191406 L 350.425781 172.121094 L 350.535156 172.042969 L 350.640625 171.960938 L 350.746094 171.871094 L 350.960938 171.675781 L 351.066406 171.570312 L 351.171875 171.457031 L 351.386719 171.21875 L 351.492188 171.09375 L 351.601562 170.960938 L 351.8125 170.683594 L 352.238281 170.070312 L 352.347656 169.90625 L 352.453125 169.738281 L 352.664062 169.390625 L 353.089844 168.652344 L 353.199219 168.457031 L 353.304688 168.257812 L 353.519531 167.855469 L 353.945312 167.011719 L 354.796875 165.210938 L 354.914062 164.957031 L 355.027344 164.703125 L 355.257812 164.1875 L 355.71875 163.136719 L 356.644531 161.003906 L 356.761719 160.734375 L 356.875 160.46875 L 357.105469 159.929688 L 357.566406 158.867188 L 358.492188 156.785156 L 358.609375 156.53125 L 358.722656 156.277344 L 358.953125 155.78125 L 359.414062 154.808594 L 360.339844 152.976562 L 360.457031 152.757812 L 360.570312 152.546875 L 360.800781 152.125 L 361.261719 151.324219 L 362.1875 149.878906 L 362.300781 149.714844 L 362.414062 149.554688 L 362.640625 149.25 L 363.09375 148.671875 L 363.320312 148.40625 L 363.546875 148.152344 L 364 147.691406 L 364.113281 147.582031 L 364.226562 147.480469 L 364.453125 147.28125 L 364.566406 147.1875 L 364.683594 147.097656 L 364.910156 146.929688 L 365.023438 146.847656 L 365.136719 146.773438 L 365.363281 146.628906 L 365.476562 146.5625 L 365.589844 146.5 L 365.816406 146.382812 L 365.929688 146.328125 L 366.042969 146.277344 L 366.15625 146.230469 L 366.382812 146.144531 L 366.496094 146.105469 L 366.722656 146.035156 L 366.949219 145.980469 L 367.175781 145.933594 L 367.289062 145.914062 L 367.402344 145.898438 L 367.742188 145.863281 L 367.96875 145.855469 L 368.308594 145.855469 L 368.648438 145.878906 L 368.875 145.902344 L 368.988281 145.917969 L 369.101562 145.9375 L 369.214844 145.953125 L 369.328125 145.976562 L 369.445312 145.996094 L 369.65625 146.042969 L 369.867188 146.09375 L 370.078125 146.148438 L 370.289062 146.207031 L 370.394531 146.238281 L 370.5 146.273438 L 370.710938 146.339844 L 371.136719 146.484375 L 371.242188 146.523438 L 371.347656 146.558594 L 371.558594 146.636719 L 371.980469 146.800781 L 372.828125 147.128906 L 372.933594 147.171875 L 373.039062 147.210938 L 373.25 147.292969 L 373.675781 147.453125 L 373.886719 147.53125 L 374.097656 147.605469 L 374.519531 147.75 L 374.625 147.785156 L 374.730469 147.816406 L 374.941406 147.882812 L 375.046875 147.914062 L 375.15625 147.945312 L 375.367188 148 L 375.472656 148.03125 L 375.578125 148.054688 L 375.789062 148.105469 L 375.894531 148.132812 L 376 148.152344 L 376.210938 148.195312 L 376.328125 148.21875 L 376.554688 148.257812 L 376.671875 148.277344 L 376.898438 148.308594 L 377.015625 148.320312 L 377.128906 148.335938 L 377.246094 148.34375 L 377.359375 148.355469 L 377.472656 148.363281 L 377.589844 148.371094 L 377.703125 148.378906 L 377.816406 148.382812 L 377.933594 148.386719 L 378.046875 148.386719 L 378.160156 148.390625 L 378.277344 148.386719 L 378.390625 148.386719 L 378.503906 148.382812 L 378.621094 148.378906 L 378.734375 148.375 L 378.851562 148.367188 L 379.078125 148.351562 L 379.195312 148.339844 L 379.421875 148.316406 L 379.539062 148.300781 L 379.652344 148.289062 L 379.882812 148.253906 L 379.996094 148.238281 L 380.109375 148.21875 L 380.339844 148.179688 L 380.800781 148.089844 L 381.027344 148.042969 L 381.257812 147.992188 L 381.714844 147.886719 L 381.832031 147.859375 L 381.945312 147.828125 L 382.175781 147.773438 L 382.632812 147.664062 L 382.75 147.636719 L 382.863281 147.609375 L 383.09375 147.558594 L 383.550781 147.460938 L 383.660156 147.4375 L 383.765625 147.417969 L 383.980469 147.378906 L 384.085938 147.363281 L 384.195312 147.34375 L 384.40625 147.316406 L 384.515625 147.300781 L 384.621094 147.289062 L 384.730469 147.277344 L 384.835938 147.269531 L 384.941406 147.257812 L 385.050781 147.253906 L 385.15625 147.246094 L 385.265625 147.246094 L 385.371094 147.242188 L 385.585938 147.242188 L 385.691406 147.246094 L 385.800781 147.253906 L 385.90625 147.261719 L 386.015625 147.269531 L 386.121094 147.28125 L 386.226562 147.296875 L 386.335938 147.3125 L 386.441406 147.328125 L 386.550781 147.351562 L 386.761719 147.398438 L 386.871094 147.425781 L 386.976562 147.457031 L 387.085938 147.492188 L 387.191406 147.527344 L 387.296875 147.566406 L 387.40625 147.609375 L 387.511719 147.65625 L 387.621094 147.703125 L 387.941406 147.863281 L 388.046875 147.925781 L 388.261719 148.058594 L 388.367188 148.128906 L 388.476562 148.203125 L 388.691406 148.359375 L 388.796875 148.445312 L 388.90625 148.535156 L 389.117188 148.722656 L 389.226562 148.820312 L 389.332031 148.925781 L 389.546875 149.144531 L 389.652344 149.261719 L 389.761719 149.378906 L 389.976562 149.632812 L 390.402344 150.1875 L 390.507812 150.332031 L 390.613281 150.484375 L 390.824219 150.796875 L 391.242188 151.476562 L 391.453125 151.84375 L 391.664062 152.226562 L 392.082031 153.050781 L 392.292969 153.488281 L 392.503906 153.945312 L 392.921875 154.917969 L 393.761719 157.078125 L 393.867188 157.367188 L 393.972656 157.664062 L 394.183594 158.269531 L 394.601562 159.535156 L 395.441406 162.273438 L 395.546875 162.636719 L 395.652344 163.003906 L 395.859375 163.746094 L 396.28125 165.285156 L 397.121094 168.542969 L 397.234375 169 L 397.347656 169.464844 L 397.574219 170.402344 L 398.03125 172.320312 L 398.941406 176.3125 L 400.765625 184.699219 L 400.878906 185.234375 L 400.992188 185.765625 L 401.21875 186.835938 L 401.675781 188.96875 L 402.585938 193.191406 L 404.410156 201.183594 L 404.515625 201.621094 L 404.621094 202.054688 L 404.832031 202.910156 L 405.257812 204.566406 L 405.363281 204.96875 L 405.472656 205.367188 L 405.683594 206.144531 L 406.109375 207.636719 L 406.214844 207.996094 L 406.320312 208.347656 L 406.535156 209.035156 L 406.957031 210.332031 L 407.066406 210.640625 L 407.171875 210.941406 L 407.382812 211.523438 L 407.808594 212.597656 L 407.914062 212.847656 L 408.019531 213.089844 L 408.234375 213.550781 L 408.339844 213.769531 L 408.445312 213.976562 L 408.660156 214.375 L 408.765625 214.558594 L 408.871094 214.734375 L 409.082031 215.0625 L 409.191406 215.214844 L 409.296875 215.355469 L 409.507812 215.613281 L 409.613281 215.726562 L 409.722656 215.832031 L 409.828125 215.929688 L 409.933594 216.015625 L 410.039062 216.09375 L 410.144531 216.160156 L 410.253906 216.21875 L 410.359375 216.269531 L 410.464844 216.308594 L 410.570312 216.335938 L 410.675781 216.355469 L 410.785156 216.367188 L 410.890625 216.367188 L 410.996094 216.355469 L 411.101562 216.335938 L 411.207031 216.308594 L 411.328125 216.261719 L 411.445312 216.203125 L 411.566406 216.132812 L 411.683594 216.050781 L 411.800781 215.953125 L 411.921875 215.84375 L 412.039062 215.722656 L 412.15625 215.585938 L 412.277344 215.441406 L 412.394531 215.277344 L 412.511719 215.105469 L 412.632812 214.917969 L 412.75 214.71875 L 412.871094 214.503906 L 413.105469 214.039062 L 413.226562 213.785156 L 413.34375 213.519531 L 413.582031 212.945312 L 413.699219 212.640625 L 413.816406 212.320312 L 414.054688 211.644531 L 414.175781 211.285156 L 414.292969 210.914062 L 414.53125 210.132812 L 415.003906 208.414062 L 415.121094 207.949219 L 415.242188 207.476562 L 415.480469 206.488281 L 415.953125 204.359375 L 416.070312 203.796875 L 416.191406 203.21875 L 416.425781 202.035156 L 416.902344 199.515625 L 417.019531 198.859375 L 417.140625 198.1875 L 417.375 196.8125 L 417.851562 193.933594 L 417.96875 193.1875 L 418.089844 192.429688 L 418.324219 190.882812 L 418.445312 190.09375 L 418.5625 189.296875 L 418.679688 188.488281 L 418.800781 187.671875" transform="matrix(1,0,0,1,-66,-5)"/></g></svg>