<svg xmlns="http://www.w3.org/2000/svg" xmlns:xlink="http://www.w3.org/1999/xlink" width="480" height="223pt" version="1.1" viewBox="0 0 360 223"><g id="surface17"><path style="fill:none;stroke-width:1.6;stroke-linecap:square;stroke-linejoin:miter;stroke:#e19c24;stroke-opacity:1;stroke-miterlimit:3.25" d="M 73.199219 116.246094 L 73.304688 115.53125 L 73.410156 114.820312 L 73.625 113.390625 L 74.046875 110.539062 L 74.894531 104.855469 L 76.59375 93.625 L 76.699219 92.929688 L 76.804688 92.238281 L 77.015625 90.859375 L 77.441406 88.117188 L 78.289062 82.707031 L 79.984375 72.25 L 80.097656 71.5625 L 80.214844 70.878906 L 80.441406 69.515625 L 80.902344 66.828125 L 81.820312 61.601562 L 83.660156 51.824219 L 83.777344 51.246094 L 83.890625 50.667969 L 84.121094 49.53125 L 84.582031 47.304688 L 85.5 43.054688 L 87.339844 35.414062 L 87.445312 35.003906 L 87.550781 34.601562 L 87.765625 33.804688 L 88.195312 32.261719 L 89.054688 29.378906 L 89.160156 29.039062 L 89.269531 28.703125 L 89.484375 28.042969 L 89.914062 26.777344 L 90.769531 24.457031 L 90.878906 24.1875 L 90.984375 23.921875 L 91.199219 23.40625 L 91.628906 22.425781 L 91.738281 22.191406 L 91.84375 21.960938 L 92.058594 21.515625 L 92.488281 20.679688 L 92.59375 20.480469 L 92.703125 20.285156 L 92.917969 19.914062 L 93.347656 19.21875 L 93.453125 19.058594 L 93.5625 18.898438 L 93.777344 18.597656 L 94.203125 18.046875 L 94.308594 17.921875 L 94.414062 17.800781 L 94.625 17.574219 L 94.835938 17.363281 L 95.046875 17.171875 L 95.152344 17.078125 L 95.257812 16.992188 L 95.46875 16.832031 L 95.574219 16.757812 L 95.675781 16.6875 L 95.886719 16.5625 L 95.992188 16.503906 L 96.203125 16.402344 L 96.308594 16.355469 L 96.519531 16.277344 L 96.730469 16.214844 L 96.835938 16.191406 L 97.046875 16.152344 L 97.148438 16.140625 L 97.359375 16.125 L 97.464844 16.125 L 97.675781 16.132812 L 97.886719 16.15625 L 97.992188 16.175781 L 98.203125 16.222656 L 98.414062 16.285156 L 98.519531 16.324219 L 98.621094 16.363281 L 98.726562 16.40625 L 98.832031 16.453125 L 99.042969 16.5625 L 99.253906 16.683594 L 99.359375 16.75 L 99.464844 16.820312 L 99.675781 16.96875 L 99.78125 17.046875 L 99.886719 17.132812 L 100.09375 17.308594 L 100.199219 17.402344 L 100.304688 17.5 L 100.515625 17.707031 L 100.9375 18.152344 L 101.164062 18.417969 L 101.394531 18.699219 L 101.851562 19.300781 L 101.964844 19.460938 L 102.078125 19.625 L 102.304688 19.960938 L 102.761719 20.675781 L 102.875 20.863281 L 102.992188 21.054688 L 103.21875 21.441406 L 103.675781 22.257812 L 104.589844 24.03125 L 104.816406 24.5 L 105.042969 24.980469 L 105.5 25.972656 L 106.414062 28.058594 L 108.238281 32.601562 L 108.347656 32.878906 L 108.453125 33.15625 L 108.664062 33.714844 L 109.089844 34.847656 L 109.945312 37.148438 L 111.648438 41.84375 L 111.753906 42.136719 L 111.859375 42.433594 L 112.074219 43.023438 L 112.5 44.199219 L 113.351562 46.542969 L 115.054688 51.105469 L 115.171875 51.40625 L 115.285156 51.707031 L 115.515625 52.300781 L 115.980469 53.476562 L 116.902344 55.746094 L 117.015625 56.023438 L 117.132812 56.296875 L 117.363281 56.839844 L 117.824219 57.898438 L 118.75 59.914062 L 118.863281 60.15625 L 118.980469 60.398438 L 119.210938 60.867188 L 119.671875 61.78125 L 119.785156 62 L 119.902344 62.21875 L 120.132812 62.648438 L 120.59375 63.476562 L 120.710938 63.675781 L 120.824219 63.871094 L 121.054688 64.257812 L 121.519531 64.992188 L 122.441406 66.3125 L 122.554688 66.460938 L 122.667969 66.605469 L 122.894531 66.886719 L 123.347656 67.410156 L 123.574219 67.652344 L 123.800781 67.882812 L 124.253906 68.300781 L 124.367188 68.398438 L 124.480469 68.492188 L 124.707031 68.667969 L 124.820312 68.75 L 124.933594 68.828125 L 125.160156 68.980469 L 125.386719 69.113281 L 125.613281 69.238281 L 125.726562 69.292969 L 125.839844 69.34375 L 126.066406 69.441406 L 126.292969 69.519531 L 126.40625 69.554688 L 126.519531 69.585938 L 126.746094 69.640625 L 126.972656 69.679688 L 127.199219 69.703125 L 127.3125 69.710938 L 127.425781 69.714844 L 127.539062 69.714844 L 127.652344 69.710938 L 127.765625 69.703125 L 127.992188 69.679688 L 128.21875 69.640625 L 128.332031 69.617188 L 128.445312 69.589844 L 128.558594 69.558594 L 128.671875 69.523438 L 128.785156 69.484375 L 129.011719 69.398438 L 129.238281 69.296875 L 129.351562 69.242188 L 129.691406 69.054688 L 129.902344 68.921875 L 130.117188 68.777344 L 130.328125 68.621094 L 130.539062 68.453125 L 130.644531 68.367188 L 130.75 68.273438 L 130.960938 68.082031 L 131.382812 67.667969 L 131.488281 67.558594 L 131.804688 67.207031 L 132.230469 66.699219 L 133.074219 65.558594 L 133.179688 65.40625 L 133.285156 65.25 L 133.496094 64.925781 L 133.921875 64.253906 L 134.765625 62.785156 L 134.871094 62.59375 L 134.976562 62.398438 L 135.1875 61.996094 L 135.609375 61.171875 L 136.457031 59.421875 L 136.570312 59.175781 L 136.6875 58.925781 L 136.914062 58.421875 L 137.375 57.386719 L 138.289062 55.21875 L 140.125 50.566406 L 143.792969 40.554688 L 144.003906 39.960938 L 144.648438 38.191406 L 145.503906 35.863281 L 147.214844 31.363281 L 147.320312 31.09375 L 147.429688 30.824219 L 147.644531 30.285156 L 148.070312 29.234375 L 148.925781 27.203125 L 149.035156 26.957031 L 149.140625 26.714844 L 149.355469 26.230469 L 149.78125 25.292969 L 150.636719 23.519531 L 150.742188 23.3125 L 150.847656 23.109375 L 151.058594 22.707031 L 151.476562 21.933594 L 151.6875 21.558594 L 151.898438 21.199219 L 152.316406 20.507812 L 152.421875 20.339844 L 152.527344 20.175781 L 152.734375 19.859375 L 153.15625 19.257812 L 153.367188 18.976562 L 153.574219 18.703125 L 153.996094 18.203125 L 154.101562 18.082031 L 154.203125 17.96875 L 154.414062 17.75 L 154.519531 17.644531 L 154.625 17.542969 L 154.832031 17.347656 L 155.042969 17.167969 L 155.253906 17.003906 L 155.359375 16.925781 L 155.464844 16.851562 L 155.671875 16.710938 L 155.882812 16.585938 L 156.09375 16.476562 L 156.199219 16.429688 L 156.300781 16.382812 L 156.40625 16.339844 L 156.511719 16.300781 L 156.617188 16.265625 L 156.828125 16.210938 L 156.929688 16.1875 L 157.140625 16.148438 L 157.246094 16.136719 L 157.351562 16.128906 L 157.464844 16.125 L 157.578125 16.125 L 157.691406 16.128906 L 157.804688 16.140625 L 157.921875 16.152344 L 158.035156 16.171875 L 158.148438 16.195312 L 158.261719 16.222656 L 158.375 16.253906 L 158.488281 16.289062 L 158.601562 16.332031 L 158.714844 16.378906 L 158.832031 16.429688 L 158.945312 16.484375 L 159.171875 16.613281 L 159.285156 16.683594 L 159.398438 16.757812 L 159.628906 16.921875 L 159.742188 17.011719 L 159.855469 17.105469 L 160.082031 17.3125 L 160.195312 17.421875 L 160.308594 17.535156 L 160.539062 17.777344 L 160.992188 18.324219 L 161.105469 18.472656 L 161.21875 18.628906 L 161.449219 18.949219 L 161.902344 19.65625 L 162.128906 20.039062 L 162.359375 20.445312 L 162.8125 21.3125 L 162.925781 21.542969 L 163.042969 21.777344 L 163.269531 22.261719 L 163.722656 23.289062 L 164.632812 25.589844 L 164.742188 25.878906 L 164.847656 26.171875 L 165.058594 26.773438 L 165.484375 28.023438 L 166.332031 30.734375 L 166.441406 31.09375 L 166.546875 31.457031 L 166.757812 32.191406 L 167.183594 33.71875 L 168.03125 36.960938 L 168.136719 37.386719 L 168.246094 37.816406 L 168.457031 38.683594 L 168.882812 40.464844 L 169.730469 44.214844 L 171.429688 52.417969 L 171.546875 53.007812 L 171.660156 53.597656 L 171.890625 54.792969 L 172.351562 57.230469 L 173.273438 62.273438 L 175.113281 72.996094 L 178.796875 96.347656 L 186.027344 144.472656 L 186.132812 145.152344 L 186.238281 145.828125 L 186.449219 147.175781 L 186.871094 149.851562 L 187.714844 155.113281 L 189.402344 165.222656 L 189.503906 165.835938 L 189.609375 166.445312 L 189.820312 167.652344 L 190.242188 170.039062 L 191.085938 174.675781 L 192.773438 183.347656 L 193 184.457031 L 193.230469 185.550781 L 193.6875 187.6875 L 194.601562 191.753906 L 194.714844 192.242188 L 194.828125 192.726562 L 195.058594 193.679688 L 195.515625 195.535156 L 196.429688 199.015625 L 196.542969 199.429688 L 196.660156 199.839844 L 196.886719 200.644531 L 197.34375 202.191406 L 197.457031 202.566406 L 197.574219 202.9375 L 197.800781 203.660156 L 198.257812 205.054688 L 198.375 205.386719 L 198.488281 205.71875 L 198.714844 206.363281 L 199.171875 207.59375 L 200.085938 209.8125 L 200.195312 210.046875 L 200.300781 210.28125 L 200.515625 210.734375 L 200.941406 211.585938 L 201.046875 211.789062 L 201.15625 211.984375 L 201.367188 212.367188 L 201.792969 213.078125 L 201.902344 213.246094 L 202.007812 213.40625 L 202.222656 213.71875 L 202.328125 213.867188 L 202.433594 214.011719 L 202.648438 214.285156 L 202.753906 214.417969 L 202.859375 214.546875 L 203.074219 214.785156 L 203.5 215.214844 L 203.609375 215.3125 L 203.714844 215.402344 L 203.929688 215.574219 L 204.035156 215.65625 L 204.140625 215.730469 L 204.355469 215.867188 L 204.460938 215.929688 L 204.566406 215.988281 L 204.675781 216.042969 L 204.78125 216.09375 L 204.886719 216.136719 L 204.996094 216.179688 L 205.207031 216.25 L 205.316406 216.277344 L 205.421875 216.304688 L 205.527344 216.324219 L 205.636719 216.339844 L 205.742188 216.355469 L 205.847656 216.363281 L 205.953125 216.367188 L 206.0625 216.367188 L 206.167969 216.363281 L 206.273438 216.355469 L 206.382812 216.34375 L 206.59375 216.3125 L 206.703125 216.289062 L 206.808594 216.261719 L 206.914062 216.230469 L 207.03125 216.191406 L 207.144531 216.148438 L 207.261719 216.101562 L 207.378906 216.050781 L 207.492188 215.996094 L 207.609375 215.933594 L 207.839844 215.800781 L 207.957031 215.730469 L 208.070312 215.652344 L 208.300781 215.484375 L 208.417969 215.394531 L 208.535156 215.296875 L 208.765625 215.097656 L 208.878906 214.992188 L 208.996094 214.878906 L 209.226562 214.644531 L 209.691406 214.132812 L 209.804688 213.992188 L 209.921875 213.851562 L 210.152344 213.554688 L 210.613281 212.921875 L 210.730469 212.753906 L 210.84375 212.582031 L 211.078125 212.226562 L 211.539062 211.480469 L 212.464844 209.832031 L 212.578125 209.613281 L 212.695312 209.390625 L 212.925781 208.9375 L 213.386719 207.996094 L 214.3125 205.988281 L 214.539062 205.472656 L 214.765625 204.949219 L 215.222656 203.875 L 216.128906 201.640625 L 217.945312 196.894531 L 221.578125 186.90625 L 221.683594 186.613281 L 222 185.746094 L 222.425781 184.59375 L 223.269531 182.328125 L 224.964844 177.988281 L 225.070312 177.726562 L 225.175781 177.46875 L 225.386719 176.957031 L 225.8125 175.945312 L 226.660156 174.011719 L 226.871094 173.542969 L 227.082031 173.085938 L 227.507812 172.191406 L 228.351562 170.503906 L 228.46875 170.289062 L 228.582031 170.070312 L 228.8125 169.648438 L 229.269531 168.835938 L 229.386719 168.640625 L 229.5 168.449219 L 229.730469 168.070312 L 230.191406 167.351562 L 230.417969 167.007812 L 230.648438 166.679688 L 231.109375 166.058594 L 231.222656 165.910156 L 231.335938 165.765625 L 231.566406 165.488281 L 232.027344 164.96875 L 232.140625 164.847656 L 232.484375 164.503906 L 232.601562 164.394531 L 232.714844 164.289062 L 232.945312 164.09375 L 233.058594 163.996094 L 233.175781 163.90625 L 233.402344 163.734375 L 233.519531 163.65625 L 233.632812 163.578125 L 233.863281 163.433594 L 233.976562 163.367188 L 234.09375 163.304688 L 234.320312 163.1875 L 234.4375 163.136719 L 234.550781 163.089844 L 234.667969 163.042969 L 234.78125 163 L 234.894531 162.964844 L 235.011719 162.929688 L 235.125 162.898438 L 235.242188 162.871094 L 235.46875 162.824219 L 235.585938 162.808594 L 235.699219 162.796875 L 235.808594 162.789062 L 235.914062 162.78125 L 236.019531 162.777344 L 236.128906 162.777344 L 236.234375 162.78125 L 236.34375 162.789062 L 236.449219 162.800781 L 236.558594 162.8125 L 236.664062 162.828125 L 236.773438 162.847656 L 236.984375 162.894531 L 237.09375 162.925781 L 237.199219 162.957031 L 237.308594 162.992188 L 237.414062 163.027344 L 237.523438 163.070312 L 237.628906 163.113281 L 237.84375 163.210938 L 237.949219 163.265625 L 238.058594 163.320312 L 238.273438 163.441406 L 238.378906 163.507812 L 238.488281 163.578125 L 238.699219 163.722656 L 239.128906 164.054688 L 239.238281 164.144531 L 239.34375 164.238281 L 239.558594 164.429688 L 239.988281 164.855469 L 240.09375 164.96875 L 240.203125 165.085938 L 240.414062 165.328125 L 240.84375 165.84375 L 240.953125 165.980469 L 241.058594 166.117188 L 241.273438 166.40625 L 241.703125 167.011719 L 242.558594 168.347656 L 242.664062 168.523438 L 242.980469 169.0625 L 243.398438 169.816406 L 244.242188 171.429688 L 245.921875 175.046875 L 246.027344 175.289062 L 246.34375 176.027344 L 246.761719 177.027344 L 247.601562 179.105469 L 249.285156 183.484375 L 249.398438 183.789062 L 249.511719 184.097656 L 249.738281 184.710938 L 250.195312 185.953125 L 251.109375 188.460938 L 252.929688 193.503906 L 253.046875 193.816406 L 253.160156 194.132812 L 253.386719 194.757812 L 253.84375 196 L 254.753906 198.445312 L 256.578125 203.101562 L 256.6875 203.359375 L 256.792969 203.617188 L 257.003906 204.128906 L 257.429688 205.128906 L 258.28125 207.039062 L 258.386719 207.265625 L 258.492188 207.496094 L 258.707031 207.941406 L 259.132812 208.8125 L 259.984375 210.4375 L 260.195312 210.820312 L 260.410156 211.1875 L 260.835938 211.894531 L 260.941406 212.066406 L 261.046875 212.234375 L 261.257812 212.558594 L 261.683594 213.171875 L 261.792969 213.320312 L 261.898438 213.460938 L 262.109375 213.738281 L 262.535156 214.253906 L 262.640625 214.375 L 262.75 214.492188 L 262.960938 214.71875 L 263.386719 215.125 L 263.503906 215.226562 L 263.617188 215.324219 L 263.847656 215.507812 L 263.964844 215.589844 L 264.078125 215.671875 L 264.308594 215.820312 L 264.425781 215.886719 L 264.539062 215.949219 L 264.65625 216.007812 L 264.769531 216.0625 L 264.886719 216.113281 L 265 216.160156 L 265.117188 216.199219 L 265.230469 216.238281 L 265.347656 216.269531 L 265.460938 216.296875 L 265.578125 216.320312 L 265.691406 216.339844 L 265.808594 216.351562 L 265.921875 216.363281 L 266.039062 216.367188 L 266.152344 216.367188 L 266.269531 216.363281 L 266.382812 216.351562 L 266.5 216.339844 L 266.617188 216.320312 L 266.730469 216.296875 L 266.847656 216.269531 L 266.960938 216.234375 L 267.078125 216.195312 L 267.191406 216.152344 L 267.308594 216.105469 L 267.421875 216.054688 L 267.539062 215.996094 L 267.652344 215.933594 L 267.769531 215.867188 L 268 215.714844 L 268.113281 215.632812 L 268.230469 215.546875 L 268.460938 215.359375 L 268.574219 215.253906 L 268.691406 215.148438 L 268.921875 214.917969 L 269.035156 214.796875 L 269.152344 214.667969 L 269.382812 214.398438 L 269.496094 214.253906 L 269.613281 214.109375 L 269.84375 213.796875 L 269.957031 213.632812 L 270.074219 213.464844 L 270.304688 213.113281 L 270.765625 212.34375 L 270.878906 212.144531 L 270.992188 211.9375 L 271.21875 211.511719 L 271.671875 210.597656 L 271.898438 210.113281 L 272.125 209.605469 L 272.578125 208.53125 L 272.691406 208.25 L 272.804688 207.964844 L 273.03125 207.378906 L 273.480469 206.144531 L 274.386719 203.445312 L 274.5 203.085938 L 274.613281 202.722656 L 274.839844 201.976562 L 275.292969 200.433594 L 276.199219 197.117188 L 278.007812 189.605469 L 278.113281 189.132812 L 278.21875 188.65625 L 278.433594 187.695312 L 278.855469 185.722656 L 279.699219 181.613281 L 281.386719 172.75 L 284.765625 152.878906 L 284.878906 152.164062 L 284.996094 151.449219 L 285.222656 150.007812 L 285.683594 147.101562 L 286.597656 141.199219 L 288.429688 129.117188 L 292.09375 104.519531 L 292.199219 103.804688 L 292.308594 103.09375 L 292.519531 101.667969 L 292.949219 98.832031 L 293.804688 93.203125 L 295.511719 82.210938 L 295.621094 81.539062 L 295.726562 80.867188 L 295.941406 79.53125 L 296.367188 76.886719 L 297.222656 71.699219 L 298.933594 61.804688 L 299.039062 61.222656 L 299.140625 60.640625 L 299.351562 59.488281 L 299.769531 57.222656 L 300.609375 52.832031 L 300.714844 52.296875 L 300.820312 51.769531 L 301.027344 50.714844 L 301.449219 48.652344 L 302.285156 44.691406 L 302.390625 44.210938 L 302.496094 43.734375 L 302.703125 42.796875 L 303.125 40.960938 L 303.960938 37.46875 L 304.171875 36.632812 L 304.378906 35.816406 L 304.800781 34.226562 L 305.636719 31.238281 L 305.75 30.855469 L 305.867188 30.476562 L 306.09375 29.730469 L 306.546875 28.296875 L 306.660156 27.949219 L 306.773438 27.609375 L 307.003906 26.941406 L 307.457031 25.667969 L 307.570312 25.363281 L 307.683594 25.0625 L 307.910156 24.472656 L 308.367188 23.359375 L 308.480469 23.09375 L 308.59375 22.832031 L 308.820312 22.328125 L 309.277344 21.375 L 309.390625 21.148438 L 309.503906 20.925781 L 309.730469 20.5 L 310.183594 19.710938 L 310.300781 19.523438 L 310.414062 19.34375 L 310.640625 19 L 311.09375 18.367188 L 311.207031 18.222656 L 311.320312 18.082031 L 311.550781 17.816406 L 311.664062 17.691406 L 311.777344 17.570312 L 312.003906 17.34375 L 312.117188 17.238281 L 312.230469 17.136719 L 312.457031 16.949219 L 312.574219 16.863281 L 312.6875 16.78125 L 312.914062 16.632812 L 313.019531 16.570312 L 313.125 16.511719 L 313.230469 16.457031 L 313.335938 16.40625 L 313.445312 16.363281 L 313.550781 16.320312 L 313.65625 16.28125 L 313.867188 16.21875 L 313.972656 16.191406 L 314.082031 16.171875 L 314.292969 16.140625 L 314.503906 16.125 L 314.609375 16.125 L 314.714844 16.128906 L 314.824219 16.132812 L 315.035156 16.15625 L 315.140625 16.175781 L 315.351562 16.222656 L 315.460938 16.253906 L 315.671875 16.324219 L 315.882812 16.410156 L 316.09375 16.511719 L 316.308594 16.628906 L 316.414062 16.691406 L 316.519531 16.757812 L 316.730469 16.902344 L 316.839844 16.980469 L 316.945312 17.0625 L 317.15625 17.234375 L 317.367188 17.421875 L 317.582031 17.625 L 318.003906 18.066406 L 318.109375 18.183594 L 318.21875 18.308594 L 318.429688 18.5625 L 318.851562 19.105469 L 319.703125 20.34375 L 319.816406 20.527344 L 319.933594 20.714844 L 320.160156 21.09375 L 320.621094 21.894531 L 321.542969 23.640625 L 321.65625 23.871094 L 321.773438 24.105469 L 322 24.578125 L 322.460938 25.5625 L 323.382812 27.636719 L 323.496094 27.90625 L 323.609375 28.179688 L 323.839844 28.730469 L 324.300781 29.851562 L 325.222656 32.171875 L 327.0625 37.066406 L 327.167969 37.359375 L 327.277344 37.652344 L 327.492188 38.242188 L 327.917969 39.421875 L 328.777344 41.796875 L 330.496094 46.535156 L 330.605469 46.828125 L 330.710938 47.121094 L 330.925781 47.707031 L 331.355469 48.863281 L 332.214844 51.136719 L 333.933594 55.464844 L 334.144531 55.972656 L 334.351562 56.46875 L 334.773438 57.449219 L 335.617188 59.320312 L 335.828125 59.773438 L 336.039062 60.214844 L 336.457031 61.074219 L 337.300781 62.6875 L 337.511719 63.070312 L 337.722656 63.441406 L 338.144531 64.15625 L 338.25 64.332031 L 338.351562 64.5 L 338.5625 64.835938 L 338.984375 65.472656 L 339.089844 65.625 L 339.195312 65.773438 L 339.40625 66.066406 L 339.828125 66.621094 L 339.933594 66.753906 L 340.039062 66.882812 L 340.25 67.132812 L 340.667969 67.597656 L 340.785156 67.714844 L 340.898438 67.832031 L 341.125 68.050781 L 341.238281 68.15625 L 341.355469 68.261719 L 341.582031 68.453125 L 341.695312 68.546875 L 341.8125 68.632812 L 342.039062 68.800781 L 342.152344 68.878906 L 342.269531 68.953125 L 342.496094 69.09375 L 342.722656 69.21875 L 342.839844 69.277344 L 343.066406 69.378906 L 343.179688 69.425781 L 343.296875 69.46875 L 343.410156 69.511719 L 343.523438 69.546875 L 343.636719 69.578125 L 343.753906 69.609375 L 343.980469 69.65625 L 344.09375 69.675781 L 344.207031 69.6875 L 344.324219 69.699219 L 344.550781 69.714844 L 344.664062 69.714844 L 344.78125 69.710938 L 345.007812 69.695312 L 345.121094 69.679688 L 345.238281 69.664062 L 345.351562 69.644531 L 345.464844 69.621094 L 345.578125 69.59375 L 345.691406 69.5625 L 345.808594 69.527344 L 345.921875 69.488281 L 346.148438 69.402344 L 346.265625 69.351562 L 346.378906 69.300781 L 346.605469 69.183594 L 346.71875 69.121094 L 346.835938 69.054688 L 347.0625 68.914062 L 347.175781 68.835938 L 347.292969 68.757812 L 347.519531 68.585938 L 347.976562 68.203125 L 348.082031 68.105469 L 348.191406 68.007812 L 348.402344 67.796875 L 348.828125 67.347656 L 348.9375 67.226562 L 349.042969 67.105469 L 349.253906 66.851562 L 349.683594 66.308594 L 349.789062 66.167969 L 349.894531 66.019531 L 350.109375 65.722656 L 350.535156 65.09375 L 351.386719 63.714844 L 351.492188 63.53125 L 351.601562 63.347656 L 351.8125 62.96875 L 352.238281 62.179688 L 353.089844 60.5 L 354.796875 56.746094 L 354.914062 56.472656 L 355.027344 56.203125 L 355.257812 55.648438 L 355.71875 54.523438 L 356.644531 52.195312 L 358.492188 47.296875 L 358.609375 46.980469 L 358.722656 46.667969 L 358.953125 46.035156 L 359.414062 44.765625 L 360.339844 42.210938 L 362.1875 37.117188 L 362.414062 36.5 L 362.640625 35.886719 L 363.09375 34.671875 L 364 32.289062 L 364.113281 31.996094 L 364.453125 31.128906 L 364.910156 29.992188 L 365.816406 27.804688 L 366.042969 27.273438 L 366.269531 26.753906 L 366.722656 25.742188 L 367.628906 23.832031 L 367.855469 23.378906 L 368.082031 22.9375 L 368.535156 22.089844 L 369.445312 20.539062 L 369.550781 20.371094 L 369.65625 20.207031 L 369.867188 19.882812 L 370.289062 19.277344 L 370.394531 19.132812 L 370.5 18.992188 L 370.710938 18.71875 L 371.136719 18.207031 L 371.347656 17.972656 L 371.558594 17.75 L 371.664062 17.644531 L 371.769531 17.542969 L 371.980469 17.347656 L 372.085938 17.253906 L 372.191406 17.167969 L 372.40625 17 L 372.511719 16.921875 L 372.617188 16.847656 L 372.828125 16.707031 L 373.039062 16.582031 L 373.25 16.472656 L 373.355469 16.421875 L 373.566406 16.335938 L 373.675781 16.296875 L 373.78125 16.261719 L 373.886719 16.230469 L 374.097656 16.183594 L 374.203125 16.164062 L 374.308594 16.148438 L 374.414062 16.136719 L 374.519531 16.128906 L 374.625 16.125 L 374.730469 16.125 L 374.835938 16.128906 L 374.941406 16.136719 L 375.046875 16.148438 L 375.15625 16.167969 L 375.261719 16.1875 L 375.367188 16.210938 L 375.472656 16.238281 L 375.578125 16.269531 L 375.789062 16.347656 L 375.894531 16.390625 L 376 16.441406 L 376.210938 16.550781 L 376.328125 16.617188 L 376.441406 16.6875 L 376.671875 16.847656 L 376.785156 16.933594 L 376.898438 17.023438 L 377.128906 17.21875 L 377.246094 17.324219 L 377.359375 17.4375 L 377.589844 17.671875 L 378.046875 18.207031 L 378.160156 18.351562 L 378.277344 18.503906 L 378.503906 18.820312 L 378.964844 19.519531 L 379.078125 19.703125 L 379.195312 19.898438 L 379.421875 20.296875 L 379.882812 21.15625 L 379.996094 21.382812 L 380.109375 21.617188 L 380.339844 22.097656 L 380.800781 23.121094 L 380.914062 23.390625 L 381.027344 23.664062 L 381.257812 24.226562 L 381.714844 25.414062 L 381.832031 25.726562 L 381.945312 26.039062 L 382.175781 26.683594 L 382.632812 28.035156 L 383.550781 30.976562 L 383.660156 31.339844 L 383.765625 31.707031 L 383.980469 32.457031 L 384.40625 34.003906 L 385.265625 37.300781 L 386.976562 44.667969 L 387.085938 45.164062 L 387.191406 45.660156 L 387.40625 46.664062 L 387.832031 48.71875 L 388.691406 52.996094 L 390.402344 62.1875 L 390.507812 62.777344 L 390.613281 63.371094 L 390.824219 64.5625 L 391.242188 66.976562 L 392.082031 71.925781 L 393.761719 82.257812 L 397.121094 104.160156 L 397.574219 107.207031 L 398.03125 110.265625 L 398.941406 116.394531 L 400.765625 128.625 L 404.410156 152.300781 L 404.515625 152.964844 L 404.621094 153.625 L 404.832031 154.941406 L 405.257812 157.546875 L 406.109375 162.648438 L 407.808594 172.363281 L 407.914062 172.945312 L 408.019531 173.523438 L 408.234375 174.675781 L 408.660156 176.9375 L 409.507812 181.3125 L 411.207031 189.386719 L 411.328125 189.917969 L 411.445312 190.441406 L 411.683594 191.472656 L 412.15625 193.480469 L 413.105469 197.261719 L 413.226562 197.710938 L 413.34375 198.15625 L 413.582031 199.03125 L 414.054688 200.714844 L 415.003906 203.835938 L 415.121094 204.203125 L 415.242188 204.5625 L 415.480469 205.269531 L 415.953125 206.613281 L 416.070312 206.9375 L 416.191406 207.253906 L 416.425781 207.871094 L 416.902344 209.042969 L 417.019531 209.324219 L 417.140625 209.597656 L 417.375 210.125 L 417.851562 211.121094 L 417.96875 211.359375 L 418.089844 211.585938 L 418.324219 212.03125 L 418.445312 212.242188 L 418.5625 212.453125 L 418.679688 212.652344 L 418.800781 212.851562" transform="matrix(1,0,0,1,-66,-5)"/><path style="stroke:none;fill-rule:evenodd;fill:#5e81b5;fill-opacity:.2" d="M 8 111.246094 C 8 111.035156 7.914062 110.832031 7.765625 110.679688 C 7.617188 110.53125 7.414062 110.445312 7.199219 110.445312 C 6.988281 110.445312 6.785156 110.53125 6.632812 110.679688 C 6.484375 110.832031 6.398438 111.035156 6.398438 111.246094 C 6.398438 111.457031 6.484375 111.660156 6.632812 111.8125 C 6.785156 111.960938 6.988281 112.046875 7.199219 112.046875 C 7.414062 112.046875 7.617188 111.960938 7.765625 111.8125 C 7.914062 111.660156 8 111.457031 8 111.246094 Z M 8 111.246094"/><path style="fill:none;stroke-width:1.6;stroke-linecap:square;stroke-linejoin:miter;stroke:#5e81b5;stroke-opacity:.2;stroke-miterlimit:3.25" d="M 194.160156 189.824219 L 194.160156 116.246094" transform="matrix(1,0,0,1,-66,-5)"/><path style="fill:none;stroke-width:1.6;stroke-linecap:square;stroke-linejoin:miter;stroke:#5e81b5;stroke-opacity:.2;stroke-miterlimit:3.25" d="M 211.441406 211.644531 L 211.441406 116.246094" transform="matrix(1,0,0,1,-66,-5)"/><path style="fill:none;stroke-width:1.6;stroke-linecap:square;stroke-linejoin:miter;stroke:#5e81b5;stroke-opacity:.2;stroke-miterlimit:3.25" d="M 228.71875 169.816406 L 228.71875 116.246094" transform="matrix(1,0,0,1,-66,-5)"/><path style="fill:none;stroke-width:1.6;stroke-linecap:square;stroke-linejoin:miter;stroke:#5e81b5;stroke-opacity:.2;stroke-miterlimit:3.25" d="M 246 175.230469 L 246 116.246094" transform="matrix(1,0,0,1,-66,-5)"/><path style="fill:none;stroke-width:1.6;stroke-linecap:square;stroke-linejoin:miter;stroke:#5e81b5;stroke-opacity:.2;stroke-miterlimit:3.25" d="M 263.28125 215.027344 L 263.28125 116.246094" transform="matrix(1,0,0,1,-66,-5)"/><path style="fill:none;stroke-width:1.6;stroke-linecap:square;stroke-linejoin:miter;stroke:#5e81b5;stroke-opacity:.2;stroke-miterlimit:3.25" d="M 280.558594 177.195312 L 280.558594 116.246094" transform="matrix(1,0,0,1,-66,-5)"/><path style="fill:none;stroke-width:1.6;stroke-linecap:square;stroke-linejoin:miter;stroke:#5e81b5;stroke-opacity:.2;stroke-miterlimit:3.25" d="M 401.519531 133.652344 L 401.519531 116.246094" transform="matrix(1,0,0,1,-66,-5)"/><path style="fill:none;stroke-width:1.6;stroke-linecap:square;stroke-linejoin:miter;stroke:#5e81b5;stroke-opacity:.2;stroke-miterlimit:3.25" d="M 418.800781 212.851562 L 418.800781 116.246094" transform="matrix(1,0,0,1,-66,-5)"/><path style="fill:none;stroke-width:1.6;stroke-linecap:square;stroke-linejoin:miter;stroke:#5e81b5;stroke-opacity:.2;stroke-miterlimit:3.25" d="M 90.480469 25.210938 L 90.480469 116.246094" transform="matrix(1,0,0,1,-66,-5)"/><path style="fill:none;stroke-width:1.6;stroke-linecap:square;stroke-linejoin:miter;stroke:#5e81b5;stroke-opacity:.2;stroke-miterlimit:3.25" d="M 107.761719 31.367188 L 107.761719 116.246094" transform="matrix(1,0,0,1,-66,-5)"/><path style="fill:none;stroke-width:1.6;stroke-linecap:square;stroke-linejoin:miter;stroke:#5e81b5;stroke-opacity:.2;stroke-miterlimit:3.25" d="M 125.039062 68.902344 L 125.039062 116.246094" transform="matrix(1,0,0,1,-66,-5)"/><path style="fill:none;stroke-width:1.6;stroke-linecap:square;stroke-linejoin:miter;stroke:#5e81b5;stroke-opacity:.2;stroke-miterlimit:3.25" d="M 142.320312 44.625 L 142.320312 116.246094" transform="matrix(1,0,0,1,-66,-5)"/><path style="fill:none;stroke-width:1.6;stroke-linecap:square;stroke-linejoin:miter;stroke:#5e81b5;stroke-opacity:.2;stroke-miterlimit:3.25" d="M 159.601562 16.902344 L 159.601562 116.246094" transform="matrix(1,0,0,1,-66,-5)"/><path style="fill:none;stroke-width:1.6;stroke-linecap:square;stroke-linejoin:miter;stroke:#5e81b5;stroke-opacity:.2;stroke-miterlimit:3.25" d="M 176.878906 83.9375 L 176.878906 116.246094" transform="matrix(1,0,0,1,-66,-5)"/><path style="fill:none;stroke-width:1.6;stroke-linecap:square;stroke-linejoin:miter;stroke:#5e81b5;stroke-opacity:.2;stroke-miterlimit:3.25" d="M 297.839844 68.050781 L 297.839844 116.246094" transform="matrix(1,0,0,1,-66,-5)"/><path style="fill:none;stroke-width:1.6;stroke-linecap:square;stroke-linejoin:miter;stroke:#5e81b5;stroke-opacity:.2;stroke-miterlimit:3.25" d="M 315.121094 16.171875 L 315.121094 116.246094" transform="matrix(1,0,0,1,-66,-5)"/><path style="fill:none;stroke-width:1.6;stroke-linecap:square;stroke-linejoin:miter;stroke:#5e81b5;stroke-opacity:.2;stroke-miterlimit:3.25" d="M 332.398438 51.621094 L 332.398438 116.246094" transform="matrix(1,0,0,1,-66,-5)"/><path style="fill:none;stroke-width:1.6;stroke-linecap:square;stroke-linejoin:miter;stroke:#5e81b5;stroke-opacity:.2;stroke-miterlimit:3.25" d="M 349.679688 66.3125 L 349.679688 116.246094" transform="matrix(1,0,0,1,-66,-5)"/><path style="fill:none;stroke-width:1.6;stroke-linecap:square;stroke-linejoin:miter;stroke:#5e81b5;stroke-opacity:.2;stroke-miterlimit:3.25" d="M 366.960938 25.226562 L 366.960938 116.246094" transform="matrix(1,0,0,1,-66,-5)"/><path style="fill:none;stroke-width:1.6;stroke-linecap:square;stroke-linejoin:miter;stroke:#5e81b5;stroke-opacity:.2;stroke-miterlimit:3.25" d="M 384.238281 33.390625 L 384.238281 116.246094" transform="matrix(1,0,0,1,-66,-5)"/><path style="stroke:none;fill-rule:evenodd;fill:#5e81b5;fill-opacity:1" d="M 9.179688 111.246094 C 9.179688 110.722656 8.972656 110.21875 8.601562 109.847656 C 8.230469 109.476562 7.726562 109.265625 7.199219 109.265625 C 6.675781 109.265625 6.171875 109.476562 5.800781 109.847656 C 5.429688 110.21875 5.21875 110.722656 5.21875 111.246094 C 5.21875 111.769531 5.429688 112.273438 5.800781 112.644531 C 6.171875 113.019531 6.675781 113.226562 7.199219 113.226562 C 7.726562 113.226562 8.230469 113.019531 8.601562 112.644531 C 8.972656 112.273438 9.179688 111.769531 9.179688 111.246094 Z M 9.179688 111.246094"/><path style="stroke:none;fill-rule:evenodd;fill:#5e81b5;fill-opacity:1" d="M 26.460938 20.210938 C 26.460938 19.6875 26.25 19.183594 25.878906 18.8125 C 25.507812 18.441406 25.003906 18.234375 24.480469 18.234375 C 23.953125 18.234375 23.453125 18.441406 23.078125 18.8125 C 22.707031 19.183594 22.5 19.6875 22.5 20.210938 C 22.5 20.738281 22.707031 21.242188 23.078125 21.613281 C 23.453125 21.984375 23.953125 22.191406 24.480469 22.191406 C 25.003906 22.191406 25.507812 21.984375 25.878906 21.613281 C 26.25 21.242188 26.460938 20.738281 26.460938 20.210938 Z M 26.460938 20.210938"/><path style="stroke:none;fill-rule:evenodd;fill:#5e81b5;fill-opacity:1" d="M 43.738281 26.367188 C 43.738281 25.84375 43.53125 25.339844 43.160156 24.96875 C 42.789062 24.597656 42.285156 24.386719 41.761719 24.386719 C 41.234375 24.386719 40.730469 24.597656 40.359375 24.96875 C 39.988281 25.339844 39.78125 25.84375 39.78125 26.367188 C 39.78125 26.894531 39.988281 27.398438 40.359375 27.769531 C 40.730469 28.140625 41.234375 28.347656 41.761719 28.347656 C 42.285156 28.347656 42.789062 28.140625 43.160156 27.769531 C 43.53125 27.398438 43.738281 26.894531 43.738281 26.367188 Z M 43.738281 26.367188"/><path style="stroke:none;fill-rule:evenodd;fill:#5e81b5;fill-opacity:1" d="M 61.019531 63.902344 C 61.019531 63.375 60.8125 62.871094 60.441406 62.5 C 60.070312 62.128906 59.566406 61.921875 59.039062 61.921875 C 58.515625 61.921875 58.011719 62.128906 57.640625 62.5 C 57.269531 62.871094 57.058594 63.375 57.058594 63.902344 C 57.058594 64.425781 57.269531 64.929688 57.640625 65.300781 C 58.011719 65.671875 58.515625 65.882812 59.039062 65.882812 C 59.566406 65.882812 60.070312 65.671875 60.441406 65.300781 C 60.8125 64.929688 61.019531 64.425781 61.019531 63.902344 Z M 61.019531 63.902344"/><path style="stroke:none;fill-rule:evenodd;fill:#5e81b5;fill-opacity:1" d="M 78.300781 39.625 C 78.300781 39.097656 78.089844 38.597656 77.71875 38.222656 C 77.347656 37.851562 76.84375 37.644531 76.320312 37.644531 C 75.792969 37.644531 75.292969 37.851562 74.921875 38.222656 C 74.546875 38.597656 74.339844 39.097656 74.339844 39.625 C 74.339844 40.148438 74.546875 40.652344 74.921875 41.023438 C 75.292969 41.394531 75.792969 41.605469 76.320312 41.605469 C 76.84375 41.605469 77.347656 41.394531 77.71875 41.023438 C 78.089844 40.652344 78.300781 40.148438 78.300781 39.625 Z M 78.300781 39.625"/><path style="stroke:none;fill-rule:evenodd;fill:#5e81b5;fill-opacity:1" d="M 95.578125 11.902344 C 95.578125 11.378906 95.371094 10.875 95 10.503906 C 94.628906 10.132812 94.125 9.921875 93.601562 9.921875 C 93.074219 9.921875 92.570312 10.132812 92.199219 10.503906 C 91.828125 10.875 91.621094 11.378906 91.621094 11.902344 C 91.621094 12.425781 91.828125 12.929688 92.199219 13.300781 C 92.570312 13.671875 93.074219 13.882812 93.601562 13.882812 C 94.125 13.882812 94.628906 13.671875 95 13.300781 C 95.371094 12.929688 95.578125 12.425781 95.578125 11.902344 Z M 95.578125 11.902344"/><path style="stroke:none;fill-rule:evenodd;fill:#5e81b5;fill-opacity:1" d="M 112.859375 78.9375 C 112.859375 78.410156 112.652344 77.90625 112.28125 77.535156 C 111.910156 77.164062 111.40625 76.957031 110.878906 76.957031 C 110.355469 76.957031 109.851562 77.164062 109.480469 77.535156 C 109.109375 77.90625 108.898438 78.410156 108.898438 78.9375 C 108.898438 79.460938 109.109375 79.964844 109.480469 80.335938 C 109.851562 80.707031 110.355469 80.917969 110.878906 80.917969 C 111.40625 80.917969 111.910156 80.707031 112.28125 80.335938 C 112.652344 79.964844 112.859375 79.460938 112.859375 78.9375 Z M 112.859375 78.9375"/><path style="stroke:none;fill-rule:evenodd;fill:#5e81b5;fill-opacity:1" d="M 130.140625 184.824219 C 130.140625 184.300781 129.929688 183.796875 129.558594 183.425781 C 129.1875 183.054688 128.683594 182.847656 128.160156 182.847656 C 127.636719 182.847656 127.132812 183.054688 126.761719 183.425781 C 126.386719 183.796875 126.179688 184.300781 126.179688 184.824219 C 126.179688 185.351562 126.386719 185.855469 126.761719 186.226562 C 127.132812 186.597656 127.636719 186.804688 128.160156 186.804688 C 128.683594 186.804688 129.1875 186.597656 129.558594 186.226562 C 129.929688 185.855469 130.140625 185.351562 130.140625 184.824219 Z M 130.140625 184.824219"/><path style="stroke:none;fill-rule:evenodd;fill:#5e81b5;fill-opacity:1" d="M 147.421875 206.644531 C 147.421875 206.121094 147.210938 205.617188 146.839844 205.246094 C 146.46875 204.875 145.964844 204.664062 145.441406 204.664062 C 144.914062 204.664062 144.410156 204.875 144.039062 205.246094 C 143.667969 205.617188 143.460938 206.121094 143.460938 206.644531 C 143.460938 207.171875 143.667969 207.675781 144.039062 208.046875 C 144.410156 208.417969 144.914062 208.625 145.441406 208.625 C 145.964844 208.625 146.46875 208.417969 146.839844 208.046875 C 147.210938 207.675781 147.421875 207.171875 147.421875 206.644531 Z M 147.421875 206.644531"/><path style="stroke:none;fill-rule:evenodd;fill:#5e81b5;fill-opacity:1" d="M 164.699219 164.816406 C 164.699219 164.292969 164.492188 163.789062 164.121094 163.417969 C 163.75 163.046875 163.246094 162.835938 162.71875 162.835938 C 162.195312 162.835938 161.691406 163.046875 161.320312 163.417969 C 160.949219 163.789062 160.738281 164.292969 160.738281 164.816406 C 160.738281 165.34375 160.949219 165.847656 161.320312 166.21875 C 161.691406 166.589844 162.195312 166.796875 162.71875 166.796875 C 163.246094 166.796875 163.75 166.589844 164.121094 166.21875 C 164.492188 165.847656 164.699219 165.34375 164.699219 164.816406 Z M 164.699219 164.816406"/><path style="stroke:none;fill-rule:evenodd;fill:#5e81b5;fill-opacity:1" d="M 181.980469 170.230469 C 181.980469 169.703125 181.769531 169.199219 181.398438 168.828125 C 181.027344 168.457031 180.523438 168.25 180 168.25 C 179.476562 168.25 178.972656 168.457031 178.601562 168.828125 C 178.230469 169.199219 178.019531 169.703125 178.019531 170.230469 C 178.019531 170.753906 178.230469 171.257812 178.601562 171.628906 C 178.972656 172 179.476562 172.207031 180 172.207031 C 180.523438 172.207031 181.027344 172 181.398438 171.628906 C 181.769531 171.257812 181.980469 170.753906 181.980469 170.230469 Z M 181.980469 170.230469"/><path style="stroke:none;fill-rule:evenodd;fill:#5e81b5;fill-opacity:1" d="M 199.261719 210.027344 C 199.261719 209.503906 199.050781 209 198.679688 208.628906 C 198.308594 208.257812 197.804688 208.046875 197.28125 208.046875 C 196.753906 208.046875 196.25 208.257812 195.878906 208.628906 C 195.507812 209 195.300781 209.503906 195.300781 210.027344 C 195.300781 210.554688 195.507812 211.058594 195.878906 211.429688 C 196.25 211.800781 196.753906 212.007812 197.28125 212.007812 C 197.804688 212.007812 198.308594 211.800781 198.679688 211.429688 C 199.050781 211.058594 199.261719 210.554688 199.261719 210.027344 Z M 199.261719 210.027344"/><path style="stroke:none;fill-rule:evenodd;fill:#5e81b5;fill-opacity:1" d="M 216.539062 172.195312 C 216.539062 171.671875 216.332031 171.167969 215.960938 170.796875 C 215.589844 170.421875 215.085938 170.214844 214.558594 170.214844 C 214.035156 170.214844 213.53125 170.421875 213.160156 170.796875 C 212.789062 171.167969 212.578125 171.671875 212.578125 172.195312 C 212.578125 172.71875 212.789062 173.222656 213.160156 173.59375 C 213.53125 173.964844 214.035156 174.175781 214.558594 174.175781 C 215.085938 174.175781 215.589844 173.964844 215.960938 173.59375 C 216.332031 173.222656 216.539062 172.71875 216.539062 172.195312 Z M 216.539062 172.195312"/><path style="stroke:none;fill-rule:evenodd;fill:#5e81b5;fill-opacity:1" d="M 233.820312 63.050781 C 233.820312 62.523438 233.613281 62.019531 233.238281 61.648438 C 232.867188 61.277344 232.363281 61.070312 231.839844 61.070312 C 231.316406 61.070312 230.8125 61.277344 230.441406 61.648438 C 230.070312 62.019531 229.859375 62.523438 229.859375 63.050781 C 229.859375 63.574219 230.070312 64.078125 230.441406 64.449219 C 230.8125 64.820312 231.316406 65.027344 231.839844 65.027344 C 232.363281 65.027344 232.867188 64.820312 233.238281 64.449219 C 233.613281 64.078125 233.820312 63.574219 233.820312 63.050781 Z M 233.820312 63.050781"/><path style="stroke:none;fill-rule:evenodd;fill:#5e81b5;fill-opacity:1" d="M 251.101562 11.171875 C 251.101562 10.648438 250.890625 10.144531 250.519531 9.773438 C 250.148438 9.402344 249.644531 9.191406 249.121094 9.191406 C 248.59375 9.191406 248.089844 9.402344 247.71875 9.773438 C 247.347656 10.144531 247.140625 10.648438 247.140625 11.171875 C 247.140625 11.699219 247.347656 12.203125 247.71875 12.574219 C 248.089844 12.945312 248.59375 13.152344 249.121094 13.152344 C 249.644531 13.152344 250.148438 12.945312 250.519531 12.574219 C 250.890625 12.203125 251.101562 11.699219 251.101562 11.171875 Z M 251.101562 11.171875"/><path style="stroke:none;fill-rule:evenodd;fill:#5e81b5;fill-opacity:1" d="M 268.378906 46.621094 C 268.378906 46.097656 268.171875 45.59375 267.800781 45.222656 C 267.429688 44.847656 266.925781 44.640625 266.398438 44.640625 C 265.875 44.640625 265.371094 44.847656 265 45.222656 C 264.628906 45.59375 264.421875 46.097656 264.421875 46.621094 C 264.421875 47.144531 264.628906 47.648438 265 48.019531 C 265.371094 48.390625 265.875 48.601562 266.398438 48.601562 C 266.925781 48.601562 267.429688 48.390625 267.800781 48.019531 C 268.171875 47.648438 268.378906 47.144531 268.378906 46.621094 Z M 268.378906 46.621094"/><path style="stroke:none;fill-rule:evenodd;fill:#5e81b5;fill-opacity:1" d="M 285.660156 61.3125 C 285.660156 60.785156 285.453125 60.28125 285.078125 59.910156 C 284.707031 59.539062 284.207031 59.332031 283.679688 59.332031 C 283.15625 59.332031 282.652344 59.539062 282.28125 59.910156 C 281.910156 60.28125 281.699219 60.785156 281.699219 61.3125 C 281.699219 61.835938 281.910156 62.339844 282.28125 62.710938 C 282.652344 63.082031 283.15625 63.289062 283.679688 63.289062 C 284.207031 63.289062 284.707031 63.082031 285.078125 62.710938 C 285.453125 62.339844 285.660156 61.835938 285.660156 61.3125 Z M 285.660156 61.3125"/><path style="stroke:none;fill-rule:evenodd;fill:#5e81b5;fill-opacity:1" d="M 302.941406 20.226562 C 302.941406 19.703125 302.730469 19.199219 302.359375 18.828125 C 301.988281 18.457031 301.484375 18.246094 300.960938 18.246094 C 300.433594 18.246094 299.929688 18.457031 299.558594 18.828125 C 299.1875 19.199219 298.980469 19.703125 298.980469 20.226562 C 298.980469 20.753906 299.1875 21.257812 299.558594 21.628906 C 299.929688 22 300.433594 22.207031 300.960938 22.207031 C 301.484375 22.207031 301.988281 22 302.359375 21.628906 C 302.730469 21.257812 302.941406 20.753906 302.941406 20.226562 Z M 302.941406 20.226562"/><path style="stroke:none;fill-rule:evenodd;fill:#5e81b5;fill-opacity:1" d="M 320.21875 28.390625 C 320.21875 27.863281 320.011719 27.363281 319.640625 26.988281 C 319.269531 26.617188 318.765625 26.410156 318.238281 26.410156 C 317.714844 26.410156 317.210938 26.617188 316.839844 26.988281 C 316.46875 27.363281 316.261719 27.863281 316.261719 28.390625 C 316.261719 28.914062 316.46875 29.417969 316.839844 29.789062 C 317.210938 30.160156 317.714844 30.371094 318.238281 30.371094 C 318.765625 30.371094 319.269531 30.160156 319.640625 29.789062 C 320.011719 29.417969 320.21875 28.914062 320.21875 28.390625 Z M 320.21875 28.390625"/><path style="stroke:none;fill-rule:evenodd;fill:#5e81b5;fill-opacity:1" d="M 337.5 128.652344 C 337.5 128.125 337.292969 127.625 336.921875 127.25 C 336.546875 126.878906 336.046875 126.671875 335.519531 126.671875 C 334.996094 126.671875 334.492188 126.878906 334.121094 127.25 C 333.75 127.625 333.539062 128.125 333.539062 128.652344 C 333.539062 129.175781 333.75 129.679688 334.121094 130.050781 C 334.492188 130.421875 334.996094 130.632812 335.519531 130.632812 C 336.046875 130.632812 336.546875 130.421875 336.921875 130.050781 C 337.292969 129.679688 337.5 129.175781 337.5 128.652344 Z M 337.5 128.652344"/><path style="stroke:none;fill-rule:evenodd;fill:#5e81b5;fill-opacity:1" d="M 354.78125 207.851562 C 354.78125 207.324219 354.570312 206.820312 354.199219 206.449219 C 353.828125 206.078125 353.324219 205.871094 352.800781 205.871094 C 352.273438 205.871094 351.769531 206.078125 351.398438 206.449219 C 351.027344 206.820312 350.820312 207.324219 350.820312 207.851562 C 350.820312 208.375 351.027344 208.878906 351.398438 209.25 C 351.769531 209.621094 352.273438 209.832031 352.800781 209.832031 C 353.324219 209.832031 353.828125 209.621094 354.199219 209.25 C 354.570312 208.878906 354.78125 208.375 354.78125 207.851562 Z M 354.78125 207.851562"/></g></svg>