<svg xmlns="http://www.w3.org/2000/svg" viewBox="0 0 64 64">
  <g fill="#a0ece6"><path
      d="M28.28 37.32c-1.022-.789-2.263.781-1.242 1.568c2.405 1.857 3.734 4.264 4.431 6.916c-2.759-.672-6.519.057-8.47 1.75c-.454.393-.593 1.199-.023 1.584c2.563 1.734 6.292 1.539 9.08.227c.303 4.03-.354 8.309-.766 11.984c-.141 1.277 1.842 1.547 1.985.262c.905-8.135 2.501-18.504-4.996-24.291"
    /><path
      d="M40.37 34.805c1.022-.789 2.262.781 1.242 1.568c-2.406 1.855-3.734 4.264-4.431 6.916c2.759-.674 6.519.057 8.47 1.748c.454.393.592 1.201.023 1.586c-2.564 1.732-6.293 1.537-9.08.225c-.302 4.03.355 8.309.766 11.984c.142 1.279-1.841 1.547-1.984.262c-.904-8.133-2.502-18.504 4.996-24.289"
    /></g><path
    fill="#47d3a7"
    d="M48.938 34.385c-1.869-2.334-4.904-3.133-7.619-1.615c-4.155 2.32-6.071 6.436-6.949 11.01c-1.33-4.084-3.889-7.205-8.636-7.418c-7.833-.352-6.305 10.51-6.31 15.9c-.002 1.936 1.514 2.113 1.514.178c.003-3.586-.441-14.09 5.336-12.949c8.313 1.643 6.558 15.906 6.04 21.639c-.174 1.924 2.826 1.844 3-.066q.06-.659.12-1.414c.662-.107 1.256-.596 1.256-1.459c-.021-5.412-.194-10.803 1.261-16.07c.788-2.861 2.476-5.779 5.337-6.932c5.407-2.178 4.182 6.99 3.217 9.305c-.736 1.766-.221 3.139.521 1.354c1.532-3.666 4.656-8.03 1.912-11.459"
  /><path
    fill="#dde4e9"
    d="m16.602 18l-2.699-3.03s-.835-4.811 3.483-2.034l1.252 3.87l-2.036 1.189"
  /><path
    fill="#c8d2d9"
    d="m18.69 16.884l-1.268-3.852s1.148-4.745 4-.477l-.395 4.047l-2.341.282"
  /><path
    fill="#dde4e9"
    d="m19.703 16.448l1.744-3.924s4.28-2.902 3.481 2.476l-3.189 2.896zm.284 5.811l-.227 4.049s-2.813 3.99-3.903-1.025l1.851-3.623zm1.721-3.548l3.894 1.226s2.935 4.01-2.362 3.988l-2.911-2.883z"
  /><path
    fill="#c8d2d9"
    d="m17.72 21.572l-1.826 3.623s-4.169 2.539-3.169-2.496l3.142-2.586z"
  /><path
    fill="#dde4e9"
    d="m16.507 21.13l-3.782 1.455s-4.795-.922-.671-3.979l4.063.199z"
  /><path
    fill="#c8d2d9"
    d="m16.11 19.535l-3.941-.949s-3.42-3.48 1.71-3.656l3.231 2.467zm4.292-1.756l3.991-2.441s5.633.047 1.59 4.377l-4.652.623z"
  /><circle cx="18.589" cy="19.07" r="3.125" fill="#f8ae1c" /><path
    fill="#ca8a2a"
    d="M17.902 19.681a3.11 3.11 0 0 1-.437-3.496a3.127 3.127 0 0 0-1.269 5.002a3.124 3.124 0 0 0 5.122-.645a3.125 3.125 0 0 1-3.416-.861"
  /><path
    fill="#c8d2d9"
    d="m21.07 21.242l2.447 3.238s.438 4.861-3.64 1.744l-.932-3.961z"
  /><path
    fill="#86cdec"
    d="m41.915 24.795l-2.699-3.02s-.836-4.811 3.483-2.034l1.253 3.871l-2.037 1.188"
  /><path
    fill="#8abdd8"
    d="m44.01 23.674l-1.271-3.851s1.15-4.746 4-.477l-.393 4.047l-2.34.281"
  /><path
    fill="#86cdec"
    d="m45.02 23.24l1.744-3.924s4.279-2.902 3.479 2.477l-3.186 2.896zm.28 5.81l-.233 4.05s-2.811 3.988-3.898-1.026l1.849-3.623zm1.72-3.549l3.894 1.227s2.938 4.01-2.361 3.988l-2.913-2.883z"
  /><path
    fill="#8abdd8"
    d="m43.03 28.363l-1.824 3.623s-4.168 2.54-3.172-2.496l3.143-2.586z"
  /><path
    fill="#dde4e9"
    d="m41.819 27.915l-3.783 1.456s-4.793-.922-.668-3.979l4.063.198z"
  /><path
    fill="#8abdd8"
    d="m41.42 26.326l-3.943-.95s-3.42-3.48 1.711-3.655l3.23 2.467zm4.249-1.804l3.992-2.44s5.633.045 1.59 4.377l-4.653.621z"
  /><circle cx="43.902" cy="25.864" r="3.126" fill="#ecd4a9" /><path
    fill="#e7cb9f"
    d="M43.22 26.471a3.12 3.12 0 0 1-.438-3.496a3.127 3.127 0 0 0-1.267 5.002a3.127 3.127 0 0 0 4.412.272c.302-.268.533-.577.709-.916a3.12 3.12 0 0 1-3.416-.862"
  /><path
    fill="#8abdd8"
    d="m46.34 27.986l2.445 3.236s.436 4.864-3.641 1.745l-.932-3.961z"
  /><path
    fill="#86cdec"
    d="m26.903 25.04l-2.699-3.02s-.836-4.811 3.482-2.033l1.252 3.869l-2.035 1.189"
  /><path
    fill="#8abdd8"
    d="m28.995 23.916l-1.271-3.852s1.147-4.744 4-.476l-.393 4.048l-2.339.28"
  /><path
    fill="#86cdec"
    d="m30 23.48l1.743-3.924s4.282-2.902 3.482 2.476l-3.19 2.896zm.29 5.81l-.229 4.049s-2.814 3.99-3.901-1.025l1.847-3.623zm1.72-3.547l3.896 1.227s2.938 4.02-2.363 3.988l-2.911-2.883z"
  /><path
    fill="#8abdd8"
    d="m28.02 28.604l-1.826 3.623s-4.169 2.541-3.169-2.496l3.139-2.586z"
  /><path
    fill="#dde4e9"
    d="m26.809 28.16l-3.782 1.456s-4.796-.922-.672-3.978l4.064.197z"
  /><path
    fill="#8abdd8"
    d="m26.411 26.568l-3.942-.951s-3.421-3.48 1.708-3.655l3.23 2.467zm4.244-1.805l3.992-2.441s5.635.047 1.592 4.377l-4.654.623z"
  /><circle cx="28.89" cy="26.11" r="3.125" fill="#ecd4a9" /><path
    fill="#e7cb9f"
    d="M28.2 26.712a3.11 3.11 0 0 1-.438-3.496a3.123 3.123 0 1 0 3.855 4.358a3.12 3.12 0 0 1-3.417-.862"
  /><path
    fill="#8abdd8"
    d="m31.33 28.23l2.446 3.238s.436 4.862-3.641 1.745l-.932-3.961z"
  /><path
    fill="#f46384"
    d="M31.605 29.778s-2.02-.81-2.451-3.421c-.438-2.612-2.318-2.026-2.318-2.026l-3.788 4.866c.24-2.84.382-6.73-.562-7.584c-1.53-1.373-3.557.971-3.557.971s-1.507 1.563-4.093.988c-2.586-.573-2.75 1.388-2.75 1.388l3.557 6.142c-2.545-1.092-5.756-2.254-6.789-1.68c-1.795.996-.238 3.68-.238 3.68s.99 1.928-.392 4.188c-1.377 2.262.423 3.051.423 3.051l5.79-1.143c-1.542 2.295-3.269 5.221-2.897 6.34c.646 1.947 3.574.912 3.574.912s2.076-.613 4.04 1.164s3.076.15 3.076.15l-.063-8.08c1.287 2.279 4.234 7.217 5.803 7.385c2.042.223 2.315-2.865 2.315-2.865s.312-2.148 2.741-3.197c2.438-1.045 1.416-2.732 1.416-2.732l-5.957-2.668c2.416-.82 4.986-1.9 5.348-2.893c.702-1.931-2.229-2.932-2.229-2.932"
  /><path
    fill="#d34d75"
    d="M22.17 39.922s5.688 4.994 9.401 2.029c0 0-1.437 1.426-1.282 2.248c0 0-.347 2.502-1.633 2.809c0 0-.938.313-1.783-.574c-.846-.887-3.303-4.26-4.703-6.512m-3.674 5.791s-2.925 1.035-3.573-.91c-.367-1.119 1.355-4.045 2.896-6.338l-5.788 1.141s-1.807-.791-.425-3.049c1.381-2.262.396-4.192.396-4.192s-.923-1.596-.523-2.781c-1.16-.314-2.139-.434-2.625-.162c-1.795.996-.238 3.68-.238 3.68s.99 1.928-.392 4.188c-1.377 2.262.423 3.051.423 3.051l5.79-1.143c-1.542 2.295-3.269 5.221-2.897 6.34c.646 1.947 3.574.912 3.574.912s2.076-.613 4.04 1.164s3.076.15 3.076.15l-.007-1.146c-1.863-1.45-3.728-.905-3.728-.905m.535-15.344l-3.555-6.143s.02-.25.162-.543a5 5 0 0 1-.797-.111c-2.586-.573-2.75 1.388-2.75 1.388l2.168 3.737c1.401.306 3.215 1 4.772 1.672"
  /><circle cx="20.438" cy="34.484" r="3.832" fill="#ffc84d" /><path
    fill="#e45a6f"
    d="M28.62 32c-.402-.135-.806-.27-1.197-.426c-.668-.266-1.565.344-1.82 1.01c-.131.344-.131.719.009 1.025c.159.35.434.502.778.643c.391.158.797.295 1.197.43c.689.229 1.551-.314 1.816-1.01c.3-.763-.091-1.441-.783-1.67m-3.44-4.243c-.343.252-.687.502-1.041.729c-.609.393-.629 1.472-.238 2.064c.204.311.513.526.845.592c.373.07.656-.059.974-.262c.354-.227.7-.477 1.045-.727c.584-.43.646-1.444.233-2.066c-.455-.683-1.233-.759-1.818-.33m-5.357-1.214c-.053.423-.109.843-.186 1.261c-.133.709.637 1.465 1.336 1.588c.365.063.734-.01 1.01-.209c.309-.224.407-.518.478-.885c.084-.416.139-.836.19-1.257c.089-.72-.605-1.46-1.341-1.591c-.806-.14-1.397.374-1.486 1.093m-4.883 2.685c.302.299.606.598.887.91c.481.535 1.557.379 2.075-.102c.275-.254.436-.59.45-.93c.004-.383-.171-.639-.42-.918c-.28-.314-.583-.613-.886-.911c-.521-.509-1.533-.402-2.078.104c-.597.556-.548 1.337-.028 1.847m-2.434 4.465c.408.125.812.256 1.205.404c.676.258 1.558-.367 1.803-1.035c.126-.35.119-.724-.027-1.029c-.168-.345-.438-.493-.785-.627c-.394-.154-.8-.283-1.206-.41c-.69-.218-1.544.341-1.799 1.04c-.286.769.119 1.441.809 1.657m1.011 4.799c.39-.17.781-.334 1.178-.479c.684-.244.941-1.293.692-1.959a1.35 1.35 0 0 0-.688-.764c-.354-.154-.66-.092-1.01.035c-.395.143-.788.309-1.179.477c-.664.285-.952 1.266-.692 1.959c.287.768 1.035 1.018 1.699.731m3.309 3.047c.146-.402.293-.799.467-1.189c.286-.656-.293-1.568-.944-1.848c-.345-.145-.721-.156-1.03-.025c-.355.148-.518.412-.665.756c-.175.387-.325.783-.469 1.182c-.251.682.262 1.563.946 1.854c.753.315 1.442-.048 1.695-.73m4.629.4a20 20 0 0 1-.207-1.256c-.091-.717-1.054-1.203-1.762-1.107a1.36 1.36 0 0 0-.896.506c-.224.309-.228.617-.185.988c.049.422.129.84.205 1.256c.131.713 1.025 1.209 1.76 1.107c.812-.111 1.22-.781 1.085-1.494m4.604-2.125a19 19 0 0 1-.841-.957c-.451-.563-1.526-.467-2.073-.014a1.34 1.34 0 0 0-.5.898c-.028.385.126.648.361.941c.266.33.551.645.836.959c.488.535 1.509.486 2.079.014c.633-.52.625-1.302.138-1.841m2.509-3.052a21 21 0 0 1-1.066-.695c-.591-.416-1.6-.033-2.01.553a1.35 1.35 0 0 0-.231 1c.073.377.302.59.606.807c.345.246.705.475 1.063.697c.618.381 1.584.059 2.01-.557c.461-.673.244-1.423-.373-1.805"
  /><path
    fill="#fff"
    d="M21.01 39.32a18 18 0 0 1-.048-1.111c-.014-.639-.661-1-1.172-.865a1.22 1.22 0 0 0-.674.521c-.186.293-.213.574-.208.904c.008.371.026.744.054 1.111a.93.93 0 0 0 1.163.861c.588-.155.925-.788.885-1.421m-3.144-.441c.187-.322.373-.639.58-.955c.348-.531.01-1.197-.485-1.363a1.18 1.18 0 0 0-.854.055c-.315.139-.495.357-.673.633q-.306.471-.58.953a.935.935 0 0 0 .485 1.365c.574.193 1.206-.145 1.527-.688m-1.706-2.104c.317-.199.63-.395.955-.582c.555-.313.562-1.057.198-1.438a1.2 1.2 0 0 0-.782-.338c-.346-.023-.605.088-.893.248c-.325.186-.637.381-.953.58a.937.937 0 0 0-.197 1.438c.422.436 1.139.432 1.672.092m-.823-2.685q.552.057 1.104.146c.63.104 1.104-.469 1.063-.992a1.2 1.2 0 0 0-.398-.756c-.253-.237-.523-.313-.85-.366a20 20 0 0 0-1.104-.149a.937.937 0 0 0-1.058.993c.052.604.618 1.05 1.243 1.124m1.373-2.86c.229.291.459.584.675.891c.368.518 1.108.45 1.447.049c.176-.213.271-.506.26-.813c-.012-.349-.15-.594-.34-.862c-.216-.306-.446-.599-.671-.892a.935.935 0 0 0-1.449-.047c-.393.463-.315 1.176.078 1.674m2.868-1.506c0 .371-.004.742-.022 1.115c-.038.637.582 1.045 1.1.943c.271-.057.53-.227.709-.472c.207-.282.251-.56.272-.888c.019-.373.025-.744.027-1.115a.936.936 0 0 0-1.102-.943c-.593.122-.978.727-.984 1.36m2.972.496a22 22 0 0 1-.646.91c-.382.51-.095 1.195.388 1.397c.258.107.566.107.853.006c.33-.118.521-.324.724-.584c.225-.301.435-.605.645-.914a.933.933 0 0 0-.392-1.395c-.562-.232-1.219.059-1.572.58m2.437 2.08q-.53.157-1.076.289c-.62.145-.841.855-.597 1.32c.13.242.368.445.654.549c.326.119.605.086.925.014c.361-.084.723-.184 1.078-.285c.608-.176.852-.836.598-1.324c-.281-.538-.971-.734-1.582-.563m-1.124 5.589c-.229-.291-.46-.586-.673-.891c-.371-.52-1.11-.455-1.452-.051a1.25 1.25 0 0 0-.265.813c.014.344.15.592.341.859c.217.307.442.6.673.891a.937.937 0 0 0 1.45.053c.39-.461.312-1.176-.074-1.674m1.535-2.309a20 20 0 0 1-1-.494c-.563-.301-1.194.092-1.319.604c-.063.268-.015.576.13.842c.168.307.401.465.694.619c.332.176.664.336 1 .494a.936.936 0 0 0 1.318-.605c.141-.589-.247-1.19-.818-1.46"
  /><path
    fill="#f46384"
    d="M32.396 30.859s2.02-.811 2.451-3.422c.438-2.611 2.318-2.025 2.318-2.025l3.788 4.865c-.24-2.84-.382-6.73.562-7.584c1.53-1.373 3.557.971 3.557.971s1.507 1.563 4.093.988c2.586-.572 2.75 1.389 2.75 1.389l-3.557 6.141c2.545-1.092 5.756-2.254 6.789-1.68c1.795.996.238 3.68.238 3.68s-.99 1.928.392 4.188c1.377 2.262-.423 3.051-.423 3.051l-5.79-1.143c1.542 2.295 3.269 5.221 2.897 6.34c-.646 1.947-3.574.912-3.574.912s-2.076-.613-4.04 1.164s-3.076.15-3.076.15l.063-8.08c-1.287 2.279-4.234 7.217-5.803 7.385c-2.042.223-2.315-2.865-2.315-2.865s-.312-2.148-2.741-3.197c-2.438-1.045-1.416-2.732-1.416-2.732l5.957-2.668c-2.416-.82-4.986-1.9-5.348-2.891c-.702-1.933 2.229-2.933 2.229-2.933"
  /><path
    fill="#d34d75"
    d="M41.832 41s-5.688 4.994-9.401 2.029c0 0 1.437 1.426 1.282 2.248c0 0 .347 2.502 1.633 2.809c0 0 .938.313 1.783-.574c.846-.887 3.303-4.26 4.703-6.512m3.673 5.793s2.925 1.035 3.573-.91c.367-1.119-1.355-4.045-2.896-6.338l5.788 1.141s1.807-.791.425-3.049c-1.381-2.262-.396-4.191-.396-4.191s.923-1.596.523-2.782c1.16-.314 2.139-.434 2.625-.162c1.795.996.238 3.68.238 3.68s-.99 1.928.392 4.188c1.377 2.262-.423 3.051-.423 3.051l-5.79-1.143c1.542 2.295 3.269 5.221 2.897 6.34c-.646 1.947-3.574.912-3.574.912s-2.076-.613-4.04 1.164s-3.076.15-3.076.15l.007-1.146c1.863-1.45 3.728-.905 3.728-.905m-.531-15.344l3.555-6.143s-.02-.25-.162-.543c.252-.016.518-.049.797-.111c2.586-.572 2.75 1.389 2.75 1.389l-2.168 3.736c-1.401.306-3.215 1-4.772 1.672"
  /><circle cx="43.563" cy="35.564" r="3.832" fill="#ffc84d" /><path
    fill="#e45a6f"
    d="M35.38 33.08c.402-.135.806-.27 1.197-.426c.668-.266 1.565.344 1.82 1.01c.131.344.131.719-.009 1.025c-.159.352-.434.502-.778.643c-.391.16-.797.295-1.197.43c-.689.229-1.551-.314-1.816-1.01c-.3-.762.091-1.441.783-1.67m3.439-4.243c.343.252.687.502 1.041.729c.609.393.629 1.473.238 2.064a1.34 1.34 0 0 1-.845.592c-.373.07-.656-.059-.974-.262c-.354-.227-.7-.477-1.045-.727c-.584-.43-.646-1.443-.233-2.066c.455-.683 1.233-.759 1.818-.33m5.361-1.213c.053.422.109.842.186 1.26c.133.709-.637 1.465-1.336 1.588a1.34 1.34 0 0 1-1.01-.209c-.309-.223-.407-.518-.478-.885a16 16 0 0 1-.19-1.256c-.089-.721.605-1.461 1.341-1.592c.806-.14 1.397.374 1.486 1.094m4.881 2.684c-.302.299-.606.598-.887.91c-.481.535-1.557.379-2.075-.102a1.36 1.36 0 0 1-.45-.93c-.004-.383.171-.639.42-.918c.28-.314.583-.613.886-.91c.521-.51 1.533-.402 2.078.104c.597.555.548 1.336.028 1.846m2.43 4.465c-.408.125-.812.256-1.205.404c-.676.258-1.558-.367-1.803-1.035c-.126-.348-.119-.723.027-1.027c.168-.346.438-.494.785-.627c.394-.154.8-.283 1.206-.41c.69-.219 1.544.34 1.799 1.04c.286.767-.119 1.439-.809 1.655m-1.01 4.801c-.39-.172-.781-.336-1.178-.48c-.684-.244-.941-1.293-.692-1.959c.131-.348.381-.625.688-.764c.354-.154.66-.092 1.01.035c.395.143.788.309 1.179.477c.664.287.952 1.266.692 1.959c-.287.767-1.035 1.017-1.699.732m-3.31 3.045a18 18 0 0 0-.467-1.189c-.286-.656.293-1.568.944-1.848c.345-.145.721-.156 1.03-.025c.355.148.518.412.665.756c.175.387.325.783.469 1.182c.251.682-.262 1.563-.946 1.854c-.753.315-1.442-.048-1.695-.73m-4.625.399c.081-.418.154-.838.207-1.256c.091-.717 1.054-1.203 1.762-1.107c.363.053.689.234.896.506c.224.309.228.617.185.988c-.049.424-.129.84-.205 1.256c-.131.713-1.025 1.209-1.76 1.107c-.812-.111-1.22-.781-1.085-1.494m-4.602-2.124c.291-.313.574-.629.841-.957c.451-.563 1.526-.467 2.073-.014c.286.234.469.561.5.9c.028.383-.126.646-.361.939c-.266.33-.551.645-.836.959c-.488.535-1.509.486-2.079.014c-.633-.52-.625-1.301-.138-1.841m-2.511-3.052c.366-.227.722-.451 1.066-.695c.591-.416 1.6-.031 2.01.553c.209.303.293.668.231 1c-.073.377-.302.592-.606.807c-.345.246-.705.475-1.063.697c-.618.381-1.584.059-2.01-.557c-.461-.672-.244-1.422.373-1.805"
  /><path
    fill="#fff"
    d="M42.987 40.4c.026-.369.045-.738.048-1.111c.014-.639.661-1 1.172-.865c.262.074.511.264.674.521c.186.293.213.574.208.904a21 21 0 0 1-.054 1.111a.93.93 0 0 1-1.163.861c-.588-.155-.925-.788-.885-1.421m3.143-.441a21 21 0 0 0-.58-.955c-.348-.531-.01-1.197.485-1.363c.263-.09.573-.07.854.055c.315.139.495.357.673.633q.306.471.58.953a.934.934 0 0 1-.485 1.365c-.574.193-1.206-.145-1.527-.688m1.706-2.104c-.317-.199-.63-.395-.955-.582c-.555-.311-.562-1.057-.198-1.438c.19-.195.479-.32.782-.338c.346-.023.605.088.893.248c.325.186.637.381.953.582a.935.935 0 0 1 .197 1.436c-.422.436-1.139.432-1.672.092m.828-2.685q-.552.06-1.104.146c-.63.104-1.104-.469-1.063-.992c.026-.273.169-.549.398-.756c.253-.236.523-.313.85-.365c.369-.063.738-.109 1.104-.15a.937.937 0 0 1 1.058.992c-.053.605-.618 1.051-1.243 1.125m-1.374-2.86c-.229.292-.459.584-.675.891c-.368.518-1.108.449-1.447.049a1.2 1.2 0 0 1-.26-.813c.012-.348.15-.594.34-.861c.216-.307.446-.6.671-.893a.935.935 0 0 1 1.449-.047c.393.463.315 1.176-.078 1.674m-2.87-1.506c0 .371.004.742.022 1.115c.038.637-.582 1.045-1.1.944a1.2 1.2 0 0 1-.709-.471c-.207-.283-.251-.561-.272-.889a25 25 0 0 1-.027-1.115a.937.937 0 0 1 1.102-.943c.593.121.978.726.984 1.359m-2.97.496q.312.464.646.91c.382.51.095 1.196-.388 1.397a1.2 1.2 0 0 1-.853.006c-.33-.117-.521-.322-.724-.584a25 25 0 0 1-.645-.915a.933.933 0 0 1 .392-1.395c.562-.231 1.219.06 1.572.581m-2.44 2.077q.53.157 1.076.287c.62.145.841.855.597 1.32c-.13.242-.368.445-.654.549c-.326.119-.605.088-.925.014a23 23 0 0 1-1.078-.285a.94.94 0 0 1-.598-1.324c.281-.538.971-.733 1.582-.561m1.13 5.592c.229-.291.46-.586.673-.891c.371-.52 1.11-.455 1.452-.051c.173.209.272.506.265.813c-.014.344-.15.592-.341.859c-.217.307-.442.6-.673.891a.937.937 0 0 1-1.45.053c-.39-.461-.312-1.176.074-1.674m-1.537-2.309c.341-.158.674-.32 1.01-.494c.563-.299 1.194.092 1.319.604c.063.27.015.576-.13.842c-.168.307-.401.465-.694.619c-.332.176-.664.336-1 .494a.936.936 0 0 1-1.318-.605c-.141-.589.247-1.19.818-1.46"
  /><path
    fill="#efa8b6"
    d="M44.966 19.685s-1.172-1.824-.019-4.207c1.154-2.385-.716-2.996-.716-2.996l-5.908 1.777c1.842-2.176 4.209-5.267 3.934-6.51c-.448-2-3.461-1.27-3.461-1.27s-2.132.404-3.911-1.561s-3.046-.461-3.046-.461l-.656 7.06c-1.439-2.359-3.387-5.168-4.563-5.297c-2.037-.228-2.318 2.861-2.318 2.861s-.314 2.145-2.748 3.19s-1.421 2.731-1.421 2.731l5.381 2.418c-2.584.979-5.686 2.366-6.03 3.492c-.599 1.962 2.384 2.813 2.384 2.813s2.05.705 2.628 3.289c.57 2.586 2.421 1.906 2.421 1.906l4.624-6.63c-.271 2.604-.722 8.337.455 9.382c1.537 1.364 3.545-.996 3.545-.996s1.5-1.57 4.092-1.019c2.589.556 2.736-1.409 2.736-1.409l-3.313-5.625c2.444.73 5.166 1.338 6.04.738c1.688-1.162-.125-3.68-.125-3.68"
  /><path
    fill="#e295a8"
    d="M31.398 22.498s1.748 7.361 6.489 7.096c0 0-1.992.329-2.348 1.09c0 0-1.728 1.842-2.953 1.346c0 0-.946-.291-1.121-1.502c-.177-1.212-.23-5.386-.067-8.03M25.05 25.09s-2.985-.851-2.384-2.814c.348-1.125 3.445-2.512 6.03-3.489l-5.379-2.42s-1.017-1.69 1.421-2.731c2.436-1.043 2.744-3.191 2.744-3.191s.172-1.834 1.186-2.569c-.762-.925-1.492-1.59-2.049-1.651c-2.037-.228-2.318 2.861-2.318 2.861s-.314 2.145-2.748 3.19s-1.421 2.731-1.421 2.731l5.381 2.418c-2.584.979-5.686 2.366-6.03 3.492c-.599 1.962 2.384 2.813 2.384 2.813s2.05.705 2.628 3.289c.57 2.586 2.421 1.906 2.421 1.906l.655-.941c-.682-2.261-2.519-2.894-2.519-2.894m9.318-12.206l.655-7.06s.16-.192.447-.348a5.5 5.5 0 0 1-.589-.553c-1.778-1.965-3.046-.461-3.046-.461l-.397 4.301c.97 1.063 2.046 2.678 2.93 4.125"
  /><circle cx="33.13" cy="17.06" r="3.831" fill="#ffc84d" /><path
    fill="#e45a6f"
    d="M41.25 19.771a19 19 0 0 1-.734-1.041c-.391-.604-1.471-.625-2.063-.23c-.312.203-.522.51-.589.842c-.075.379.06.66.261.973c.23.357.479.701.73 1.043c.43.584 1.446.643 2.068.23c.68-.45.758-1.229.327-1.817m-.352-5.449c-.427.007-.854.01-1.274-.01c-.722-.033-1.362.836-1.386 1.547c-.014.371.111.727.345.97c.265.274.57.335.943.351c.422.021.849.018 1.274.012c.726-.012 1.36-.805 1.386-1.551c.031-.816-.562-1.33-1.288-1.319m-3.668-4.094c-.286.314-.581.625-.882.922c-.518.5-.331 1.564.173 2.07c.258.262.602.416.938.414c.388-.004.636-.188.907-.447c.308-.291.593-.602.88-.914c.488-.535.352-1.543-.173-2.074c-.575-.58-1.353-.506-1.843.029m-5.535-.64c.079.421.152.839.198 1.257c.085.717 1.048 1.211 1.753 1.121a1.36 1.36 0 0 0 .902-.5c.228-.307.235-.619.189-.99c-.048-.42-.123-.838-.198-1.258c-.128-.714-1.014-1.214-1.752-1.117c-.808.107-1.22.773-1.092 1.487m-4.575 2.234c.261.341.514.68.751 1.029c.401.602 1.482.604 2.066.199c.31-.21.519-.52.576-.852c.065-.379-.07-.657-.278-.969c-.232-.354-.492-.693-.746-1.033c-.439-.575-1.457-.615-2.07-.192c-.675.462-.736 1.243-.299 1.818m-1.95 4.5c.42.087.836.181 1.238.291c.699.195 1.522-.51 1.699-1.197a1.32 1.32 0 0 0-.119-1.021c-.193-.33-.479-.453-.838-.555a22 22 0 0 0-1.238-.293c-.707-.152-1.508.48-1.695 1.198c-.211.792.248 1.426.953 1.577m.94 4.4c.35-.242.703-.48 1.068-.699c.613-.371.666-1.447.299-2.055a1.33 1.33 0 0 0-.826-.615c-.373-.086-.66.035-.979.229a18 18 0 0 0-1.065.693c-.598.41-.689 1.426-.302 2.059c.432.694 1.206.797 1.805.388m3.54 3.008c.178-.389.357-.772.558-1.145c.342-.637-.159-1.593-.792-1.923c-.329-.168-.699-.212-1.022-.104c-.363.117-.548.367-.726.696c-.202.373-.38.759-.562 1.142c-.302.66.133 1.58.797 1.92c.726.383 1.444.072 1.747-.586m4.983.93a18 18 0 0 1-.128-1.268c-.049-.721-.979-1.266-1.688-1.213c-.37.026-.711.188-.93.444c-.247.298-.271.603-.247.979c.022.422.075.844.125 1.266c.089.719.95 1.268 1.687 1.212c.819-.059 1.269-.699 1.181-1.42m3.814-1.035a19 19 0 0 1-.467-1.186c-.241-.68-1.29-.953-1.954-.709c-.35.125-.63.375-.77.681c-.158.353-.102.653.026 1.01c.14.402.3.795.464 1.186c.279.666 1.254.963 1.955.709c.773-.28 1.027-1.02.746-1.688"
  /><path
    fill="#fff"
    d="M30.809 21.333a19 19 0 0 1 .604-.939c.362-.523.04-1.199-.452-1.379a1.2 1.2 0 0 0-.854.037c-.32.131-.505.342-.691.615c-.213.307-.408.621-.606.938a.933.933 0 0 0 .455 1.377c.566.209 1.209-.111 1.544-.649m-2.313-2.183a18 18 0 0 1 1.021-.442c.594-.233.704-.971.397-1.394a1.2 1.2 0 0 0-.729-.448c-.338-.071-.608.003-.911.125c-.352.135-.69.286-1.031.44a.94.94 0 0 0-.394 1.396c.355.487 1.07.582 1.647.323m-.168-2.694c.371.019.743.04 1.113.075c.63.068 1.07-.534.992-1.057a1.2 1.2 0 0 0-.442-.729c-.267-.219-.54-.277-.871-.313c-.369-.039-.74-.061-1.113-.08a.934.934 0 0 0-.99 1.057c.089.6.68 1.01 1.311 1.047m.872-2.675q.424.37.822.761c.447.45 1.169.256 1.438-.194a1.2 1.2 0 0 0 .115-.846c-.072-.342-.248-.561-.48-.79a26 26 0 0 0-.814-.763a.943.943 0 0 0-1.443.197c-.306.523-.104 1.215.362 1.635m2.782-1.536q.029.556.035 1.116c-.004.637.641 1.01 1.15.879c.267-.068.514-.256.683-.51c.189-.291.221-.572.221-.9c0-.375-.014-.744-.035-1.115a.93.93 0 0 0-1.151-.879c-.583.15-.937.777-.903 1.409m3.208.434q-.319.456-.664.896c-.402.497-.13 1.19.352 1.407c.251.109.561.121.853.024c.332-.108.526-.31.735-.563c.231-.295.45-.594.667-.895a.94.94 0 0 0-.354-1.408c-.554-.244-1.219.027-1.589.539m2.13 2.129c-.35.129-.694.254-1.053.367c-.606.193-.768.92-.49 1.365c.145.234.396.414.689.497c.336.094.611.039.929-.058c.354-.113.703-.242 1.053-.373a.933.933 0 0 0 .49-1.362c-.321-.516-1.022-.659-1.618-.436m.8 3.101a20 20 0 0 1-1.045-.39c-.591-.24-1.181.213-1.251.732a1.18 1.18 0 0 0 .212.825c.197.286.442.423.748.548c.345.141.694.268 1.044.391c.6.209 1.184-.188 1.251-.734c.084-.6-.362-1.16-.959-1.372m-4.164 3.909a22 22 0 0 1-.033-1.115c0-.639-.642-1.014-1.153-.885a1.2 1.2 0 0 0-.679.513c-.192.289-.225.569-.225.896c-.003.375.013.748.032 1.117a.936.936 0 0 0 1.15.883c.589-.152.935-.78.908-1.409m2.589-.996a21 21 0 0 1-.528-.981c-.286-.571-1.033-.618-1.426-.272a1.2 1.2 0 0 0-.383.762c-.04.346.058.609.206.904c.169.336.343.658.527.982a.94.94 0 0 0 1.43.27c.452-.4.483-1.114.174-1.665"
  /><path
    fill="#dde4e9"
    d="m33.382 35.02l-2.699-3.03s-.835-4.811 3.485-2.034l1.252 3.871l-2.038 1.189"
  /><path
    fill="#c8d2d9"
    d="m35.474 33.895l-1.271-3.852s1.15-4.745 4.01-.477l-.394 4.047l-2.34.282"
  /><path
    fill="#dde4e9"
    d="m36.483 33.457l1.745-3.922s4.279-2.903 3.481 2.475l-3.188 2.897zm.288 5.813l-.23 4.049s-2.813 3.99-3.899-1.025l1.847-3.623zm1.716-3.549l3.895 1.227s2.938 4.01-2.36 3.988l-2.915-2.883z"
  /><path
    fill="#c8d2d9"
    d="m34.501 38.582l-1.826 3.623s-4.168 2.539-3.168-2.496l3.14-2.586z"
  /><path
    fill="#dde4e9"
    d="m33.29 38.13l-3.781 1.455s-4.797-.922-.671-3.979l4.063.199z"
  /><path
    fill="#c8d2d9"
    d="m32.89 36.545l-3.942-.949s-3.421-3.481 1.708-3.657l3.232 2.467zm4.29-1.756l3.992-2.442s5.634.047 1.591 4.377l-4.654.623z"
  /><circle cx="35.37" cy="36.08" r="3.126" fill="#f8ae1c" /><path
    fill="#ca8a2a"
    d="M34.683 36.691a3.12 3.12 0 0 1-.437-3.496a3.1 3.1 0 0 0-.993.59a3.13 3.13 0 0 0-.274 4.412a3.125 3.125 0 0 0 5.12-.645a3.12 3.12 0 0 1-3.416-.861"
  /><path
    fill="#c8d2d9"
    d="m37.854 38.25l2.446 3.238s.435 4.861-3.643 1.744l-.931-3.961z"
  />
</svg>
